<svg xmlns="http://www.w3.org/2000/svg" xmlns:xlink="http://www.w3.org/1999/xlink" id="Layer_1" enable-background="new 0 0 450 450" height="60" viewBox="0 0 450 450" width="60"><linearGradient id="SVGID_1_" gradientTransform="matrix(1 0 0 -1 0 450)" gradientUnits="userSpaceOnUse" x1="26.109" x2="424.411" y1="423.411" y2="25.109"><stop offset="0" stop-color="#4084E9"/><stop offset="1" stop-color="#4084E9"/></linearGradient><path d="m230.13 364.35c-.01 0-.01 0 0 0h-9.73c-8.94 0-16.15-7.07-16.77-16.45l-1.51-22.54c-10.97-2.53-21.33-6.83-30.91-12.81l-17.01 14.88c-7.08 6.19-17.18 6.09-23.5-.23l-6.88-6.88c-6.32-6.32-6.42-16.42-.23-23.5l14.87-17.01c-5.98-9.57-10.28-19.94-12.82-30.91l-22.53-1.51c-9.38-.63-16.46-7.84-16.46-16.78v-9.73c0-8.94 7.07-16.15 16.46-16.78l22.53-1.51c2.53-10.97 6.83-21.34 12.82-30.91l-14.87-17.01c-6.19-7.08-6.09-17.18.23-23.5l6.88-6.88c6.32-6.32 16.42-6.42 23.5-.23l17.01 14.87c9.57-5.98 19.94-10.28 30.91-12.81l1.51-22.54c.63-9.38 7.84-16.46 16.78-16.46h9.73c8.94 0 16.15 7.07 16.78 16.46l1.51 22.54c10.97 2.53 21.34 6.83 30.91 12.81l17.01-14.87c7.08-6.19 17.18-6.09 23.5.23l6.88 6.88c6.32 6.32 6.42 16.42.23 23.5l-14.87 17.01c5.98 9.57 10.28 19.94 12.82 30.91l22.53 1.51c9.38.63 16.45 7.84 16.45 16.78v9.73c0 8.94-7.07 16.15-16.45 16.78l-22.54 1.51c-2.53 10.97-6.83 21.34-12.81 30.91l14.87 17.02c6.19 7.08 6.09 17.18-.23 23.5l-6.88 6.88c-6.32 6.32-16.42 6.42-23.5.23l-17.01-14.87c-9.58 5.98-19.94 10.28-30.91 12.82l-1.52 22.53c-.64 9.36-7.85 16.43-16.78 16.43zm-59.38-63.05c.98 0 1.95.28 2.8.86 10.41 7.06 21.92 11.83 34.22 14.19 2.23.43 3.9 2.31 4.05 4.58l1.77 26.31c.27 4.06 3.2 7.13 6.8 7.12h9.73c3.6 0 6.53-3.06 6.8-7.12l1.77-26.31c.15-2.27 1.81-4.15 4.05-4.58 12.3-2.36 23.82-7.14 34.23-14.19 1.88-1.28 4.39-1.12 6.1.37l19.86 17.36c3.06 2.68 7.3 2.78 9.85.23l6.88-6.88c2.55-2.55 2.45-6.78-.23-9.85l-17.36-19.86c-1.49-1.71-1.65-4.22-.37-6.1 7.05-10.41 11.83-21.92 14.19-34.22.43-2.23 2.31-3.9 4.58-4.05l26.31-1.77c4.06-.27 7.12-3.2 7.12-6.8v-9.73c0-3.6-3.06-6.53-7.12-6.8l-26.31-1.77c-2.27-.15-4.15-1.82-4.58-4.05-2.36-12.3-7.14-23.82-14.19-34.23-1.27-1.88-1.12-4.39.37-6.1l17.36-19.86c2.68-3.07 2.78-7.3.23-9.85l-6.88-6.88c-2.55-2.55-6.78-2.45-9.85.23l-19.86 17.36c-1.71 1.5-4.22 1.65-6.1.38-10.4-7.05-21.92-11.83-34.22-14.19-2.23-.43-3.9-2.31-4.05-4.58l-1.77-26.31c-.27-4.06-3.2-7.13-6.8-7.13h-9.73c-3.6 0-6.53 3.06-6.8 7.13l-1.77 26.31c-.15 2.27-1.82 4.15-4.05 4.58-12.3 2.36-23.81 7.13-34.22 14.19-1.88 1.27-4.39 1.12-6.1-.37l-19.86-17.36c-3.07-2.68-7.3-2.78-9.85-.23l-6.88 6.88c-2.55 2.55-2.45 6.78.23 9.85l17.36 19.86c1.5 1.71 1.65 4.21.37 6.1-7.06 10.41-11.83 21.92-14.19 34.22-.43 2.23-2.31 3.9-4.58 4.05l-26.31 1.77c-4.06.27-7.13 3.2-7.13 6.8v9.73c0 3.6 3.06 6.53 7.12 6.8l26.31 1.77c2.27.15 4.15 1.81 4.58 4.05 2.36 12.3 7.13 23.82 14.19 34.23 1.28 1.88 1.12 4.39-.37 6.1l-17.36 19.86c-2.68 3.06-2.78 7.3-.23 9.85l6.88 6.88c2.55 2.55 6.78 2.45 9.85-.23l19.86-17.36c.95-.83 2.12-1.24 3.3-1.24zm54.51.97c-42.2 0-76.54-34.33-76.54-76.54s34.33-76.54 76.54-76.54c42.2 0 76.54 34.33 76.54 76.54s-34.34 76.54-76.54 76.54zm0-143.07c-36.69 0-66.54 29.85-66.54 66.54s29.85 66.54 66.54 66.54 66.54-29.85 66.54-66.54-29.85-66.54-66.54-66.54zm0-62.07c-2.76 0-5-2.24-5-5v-28.4c0-12.9-10.49-23.39-23.39-23.39h-110.66c-2.76 0-5-2.24-5-5s2.24-5 5-5h110.66c18.41 0 33.39 14.98 33.39 33.39v28.39c0 2.77-2.24 5.01-5 5.01zm-190.4 272.66c-2.76 0-5-2.24-5-5v-110.66c0-18.41 14.98-33.39 33.39-33.39h28.39c2.76 0 5 2.24 5 5s-2.24 5-5 5h-28.39c-12.9 0-23.39 10.49-23.39 23.39v110.66c0 2.76-2.24 5-5 5zm329.45 51.35h-110.66c-18.41 0-33.39-14.98-33.39-33.39v-28.39c0-2.76 2.24-5 5-5s5 2.24 5 5v28.39c0 12.9 10.49 23.39 23.39 23.39h110.66c2.76 0 5 2.24 5 5s-2.24 5-5 5zm22.96-190.4h-28.39c-2.76 0-5-2.24-5-5s2.24-5 5-5h28.39c12.9 0 23.39-10.49 23.39-23.39v-110.66c0-2.76 2.24-5 5-5s5 2.24 5 5v110.66c0 18.41-14.98 33.39-33.39 33.39zm-326.66-164.8c-16.87 0-30.6-13.73-30.6-30.6s13.73-30.6 30.6-30.6 30.6 13.73 30.6 30.6-13.72 30.6-30.6 30.6zm0-51.2c-11.36 0-20.6 9.24-20.6 20.6s9.24 20.6 20.6 20.6 20.6-9.24 20.6-20.6-9.24-20.6-20.6-20.6zm-25.75 406.25c-16.87 0-30.6-13.73-30.6-30.6s13.73-30.6 30.6-30.6 30.6 13.73 30.6 30.6-13.73 30.6-30.6 30.6zm0-51.2c-11.36 0-20.6 9.24-20.6 20.6s9.24 20.6 20.6 20.6 20.6-9.24 20.6-20.6-9.24-20.6-20.6-20.6zm355.05 76.95c-16.87 0-30.6-13.73-30.6-30.6s13.73-30.6 30.6-30.6 30.6 13.73 30.6 30.6-13.73 30.6-30.6 30.6zm0-51.2c-11.36 0-20.6 9.24-20.6 20.6s9.24 20.6 20.6 20.6 20.6-9.24 20.6-20.6-9.24-20.6-20.6-20.6zm25.75-303.85c-16.87 0-30.6-13.73-30.6-30.6s13.73-30.6 30.6-30.6 30.6 13.73 30.6 30.6-13.73 30.6-30.6 30.6zm0-51.2c-11.36 0-20.6 9.24-20.6 20.6s9.24 20.6 20.6 20.6 20.6-9.24 20.6-20.6-9.24-20.6-20.6-20.6zm-284.88 95.77h-79.1c-2.76 0-5-2.24-5-5s2.24-5 5-5h79.1c2.76 0 5 2.24 5 5s-2.24 5-5 5zm0 268.06c-2.76 0-5-2.24-5-5v-79.1c0-2.76 2.24-5 5-5s5 2.24 5 5v79.1c0 2.76-2.24 5-5 5zm268.06-79.1h-79.1c-2.76 0-5-2.24-5-5s2.24-5 5-5h79.1c2.76 0 5 2.24 5 5s-2.24 5-5 5zm-79.1-188.96c-2.76 0-5-2.24-5-5v-79.1c0-2.76 2.24-5 5-5s5 2.24 5 5v79.1c0 2.76-2.24 5-5 5zm-188.96 306.47c-13.35 0-24.2-10.86-24.2-24.2s10.86-24.2 24.2-24.2 24.2 10.86 24.2 24.2-10.85 24.2-24.2 24.2zm0-38.41c-7.83 0-14.2 6.37-14.2 14.2s6.37 14.2 14.2 14.2 14.2-6.37 14.2-14.2-6.37-14.2-14.2-14.2zm287.26-59.9c-13.35 0-24.2-10.86-24.2-24.2s10.86-24.2 24.2-24.2 24.2 10.86 24.2 24.2-10.85 24.2-24.2 24.2zm0-38.4c-7.83 0-14.2 6.37-14.2 14.2s6.37 14.2 14.2 14.2 14.2-6.37 14.2-14.2-6.36-14.2-14.2-14.2zm-385.56-150.56c-13.35 0-24.2-10.86-24.2-24.2s10.86-24.2 24.2-24.2 24.2 10.86 24.2 24.2-10.86 24.2-24.2 24.2zm0-38.4c-7.83 0-14.2 6.37-14.2 14.2s6.37 14.2 14.2 14.2 14.2-6.37 14.2-14.2-6.37-14.2-14.2-14.2zm287.26-59.9c-13.35 0-24.2-10.86-24.2-24.2s10.86-24.2 24.2-24.2 24.2 10.86 24.2 24.2-10.85 24.2-24.2 24.2zm0-38.41c-7.83 0-14.2 6.37-14.2 14.2s6.37 14.2 14.2 14.2 14.2-6.37 14.2-14.2-6.37-14.2-14.2-14.2zm-91.24 232.97c-2.76 0-5-2.24-5-5v-41.91c0-2.76 2.24-5 5-5s5 2.24 5 5v41.91c0 2.76-2.24 5-5 5zm14.52-18.26h-14.52c-2.76 0-5-2.24-5-5v-23.65c0-2.76 2.24-5 5-5h14.52c9.28 0 16.83 7.55 16.83 16.82s-7.55 16.83-16.83 16.83zm-9.52-10h9.52c3.76 0 6.83-3.06 6.83-6.82s-3.06-6.82-6.83-6.82h-9.52zm-23.35 28.26c-2.76 0-5-2.24-5-5v-26.15c0-5.96-4.85-10.82-10.82-10.82s-10.82 4.85-10.82 10.82v26.15c0 2.76-2.24 5-5 5s-5-2.24-5-5v-26.15c0-11.48 9.34-20.82 20.82-20.82s20.82 9.34 20.82 20.82v26.15c0 2.76-2.24 5-5 5zm0-16.91h-31.63c-2.76 0-5-2.24-5-5s2.24-5 5-5h31.63c2.76 0 5 2.24 5 5s-2.24 5-5 5zm61.85 16.91c-2.76 0-5-2.24-5-5v-41.91c0-2.76 2.24-5 5-5s5 2.24 5 5v41.91c0 2.76-2.24 5-5 5z" fill="url(#SVGID_1_)"/></svg>