<svg id="Layer_1" viewBox="0 0 48 48" xmlns="http://www.w3.org/2000/svg" data-name="Layer 1"><rect fill="#eff3f9" height="36" rx="5" width="36" x="3" y="5"/><path d="m39 24.78c-1.985-1.304-4.423-1.969-7.036-1.733-4.828.435-8.88 4.127-9.771 8.891-.403 2.153-.152 4.228.558 6.062h-13.75c-1.657 0-3-1.343-3-3v-28c0-.6.1-1.17.3-1.7-1.92.69-3.3 2.54-3.3 4.7v26c0 2.761 2.239 5 5 5h26c2.761 0 5-2.239 5-5v-11.22z" fill="#cfe0f3"/><path d="m34 5h-26c-2.761 0-5 2.239-5 5v5h36v-5c0-2.761-2.239-5-5-5z" fill="#ff3b65"/><path d="m6 7c0-.595.122-1.158.313-1.687-1.927.694-3.313 2.521-3.313 4.687v5h3z" fill="#d82b50"/><g fill="#aecee8"><rect height="6" rx="2" width="6" x="9" y="19"/><rect height="6" rx="2" width="6" x="18" y="19"/><rect height="6" rx="2" width="6" x="27" y="19"/></g><path d="m31.964 23.047c-1.564.141-3.044.628-4.364 1.379.361.355.855.574 1.4.574h2c1.104 0 1.998-.894 2-1.997-.342 0-.687.013-1.036.044z" fill="#7eafd0"/><rect fill="#aecee8" height="6" rx="2" width="6" x="9" y="29"/><rect fill="#aecee8" height="6" rx="2" width="6" x="18" y="29"/><path d="m24 33v-2c0-.717-.38-1.341-.947-1.694-.393.827-.687 1.709-.86 2.632-.195 1.044-.234 2.068-.144 3.057 1.082-.026 1.952-.907 1.952-1.995z" fill="#7eafd0"/><rect fill="#ffc343" height="8" rx="2.5" width="5" x="9.5" y="2"/><rect fill="#ffc343" height="8" rx="2.5" width="5" x="27.5" y="2"/><path d="m14 8c-1.381 0-2.5-1.119-2.5-2.5v-3c0-.156.019-.307.046-.454-1.163.214-2.046 1.229-2.046 2.454v3c0 1.381 1.119 2.5 2.5 2.5 1.225 0 2.24-.883 2.454-2.046-.148.027-.299.046-.454.046z" fill="#ffa221"/><path d="m32 8c-1.381 0-2.5-1.119-2.5-2.5v-3c0-.156.019-.307.046-.454-1.163.214-2.046 1.229-2.046 2.454v3c0 1.381 1.119 2.5 2.5 2.5 1.225 0 2.24-.883 2.454-2.046-.148.027-.299.046-.454.046z" fill="#ffa221"/><circle cx="36" cy="35" fill="#ff3b65" r="11"/><path d="m41 33h-3v-3c0-.552-.448-1-1-1h-2c-.552 0-1 .448-1 1v3h-3c-.552 0-1 .448-1 1v2c0 .552.448 1 1 1h3v3c0 .552.448 1 1 1h2c.552 0 1-.448 1-1v-3h3c.552 0 1-.448 1-1v-2c0-.552-.448-1-1-1z" fill="#eff3f9"/></svg>