<svg xmlns="http://www.w3.org/2000/svg" width="60" height="60" xmlns:xlink="http://www.w3.org/1999/xlink" id="Layer_1" viewBox="0 0 512 512" data-name="Layer 1"><linearGradient id="linear-gradient" gradientUnits="userSpaceOnUse" x1="256" x2="256" y1="501.444" y2="10.556"><stop offset="0" stop-color="#4084E9"/><stop offset="1" stop-color="#4084E9"/></linearGradient><path d="m157.023 199.825h119.646c4.418 0 8 3.582 8 8s-3.582 8-8 8h-119.646c-4.418 0-8-3.582-8-8s3.582-8 8-8zm260.653 247.333v16.889c0 7.738-5.021 14.282-12.496 16.285l-63.703 17.069c-10.439 2.797-19.915 4.044-30.722 4.044h-200.834c-10.805 0-20.28-1.248-30.722-4.044l-63.703-17.069c-7.475-2.002-12.496-8.547-12.496-16.285v-16.889c0-9.296 7.563-16.859 16.859-16.859h2.816v-205.206c0-13.933 11.336-25.268 25.269-25.268h18.871c4.418 0 8 3.582 8 8s-3.582 8-8 8h-18.871c-5.11 0-9.269 4.158-9.269 9.268v205.206h343.325v-88.023c0-4.418 3.582-8 8-8s8 3.582 8 8v88.023h2.816c9.296 0 16.859 7.563 16.859 16.859zm-262.154-.859 2.341 9.256c.361 1.429 1.502 2.317 2.976 2.317h98.999c1.474 0 2.614-.888 2.976-2.318l2.341-9.255h-109.632zm246.154.859c0-.458-.401-.859-.859-.859h-119.159l-3.333 13.179c-2.145 8.476-9.747 14.394-18.487 14.394h-98.999c-8.74 0-16.343-5.918-18.487-14.393l-3.333-13.18h-119.16c-.458 0-.859.401-.859.859v16.889c0 .443.208.715.637.83l63.703 17.069c9.156 2.453 17.106 3.5 26.581 3.5h200.835c9.477 0 17.426-1.046 26.581-3.5l63.703-17.069c.429-.115.637-.386.637-.83v-16.889zm107.324-388.377v258.027c0 5.881-4.785 10.667-10.667 10.667h-193.197c-5.881 0-10.666-4.785-10.666-10.667v-258.027c0-5.882 4.785-10.667 10.666-10.667h193.197c5.882 0 10.667 4.785 10.667 10.667zm-16 5.333h-182.53v247.361h182.53zm-165.109 85.088c0-40.718 33.126-73.844 73.844-73.844s73.844 33.126 73.844 73.844-33.126 73.844-73.844 73.844-73.844-33.126-73.844-73.844zm111.837 43.561c-4.548-17.078-19.918-29.087-37.993-29.087s-33.445 12.01-37.993 29.087c10.172 8.883 23.46 14.282 37.993 14.282s27.821-5.4 37.993-14.282zm-37.993-45.24c8.023 0 14.551-6.527 14.551-14.55s-6.527-14.551-14.551-14.551-14.551 6.527-14.551 14.551 6.527 14.55 14.551 14.55zm-57.844 1.679c0 10.756 2.96 20.83 8.095 29.466 5.591-11.52 14.98-20.643 26.483-25.927-4.538-5.333-7.285-12.234-7.285-19.768 0-16.846 13.705-30.551 30.551-30.551s30.551 13.705 30.551 30.551c0 7.534-2.747 14.435-7.285 19.768 11.502 5.284 20.891 14.407 26.482 25.928 5.135-8.636 8.095-18.71 8.095-29.466 0-31.895-25.948-57.844-57.844-57.844s-57.844 25.949-57.844 57.844zm125.882 124.844h-96.65c-4.418 0-8 3.582-8 8s3.582 8 8 8h96.65c4.418 0 8-3.582 8-8s-3.582-8-8-8zm0-40.605h-96.65c-4.418 0-8 3.582-8 8s3.582 8 8 8h96.65c4.418 0 8-3.582 8-8s-3.582-8-8-8zm-129.484 22.751c8.125 0 14.751-6.627 14.751-14.751s-6.627-14.751-14.751-14.751-14.751 6.627-14.751 14.751 6.626 14.751 14.751 14.751zm0 40.605c8.125 0 14.751-6.627 14.751-14.751s-6.627-14.751-14.751-14.751-14.751 6.627-14.751 14.751 6.626 14.751 14.751 14.751zm-91.483-15.425v13.628h.866c12.346 0 22.39 10.044 22.39 22.39v63.439c0 12.346-10.044 22.39-22.39 22.39h-78.667c-12.346 0-22.39-10.044-22.39-22.39v-63.439c0-12.346 10.044-22.39 22.39-22.39h.866v-13.628c0-21.211 17.257-38.468 38.468-38.468s38.467 17.257 38.467 38.468zm-60.935 13.628h44.935v-13.628c0-12.389-10.078-22.468-22.467-22.468s-22.468 10.079-22.468 22.468zm-16.866 16c-3.523 0-6.39 2.867-6.39 6.39v63.439c0 3.523 2.866 6.39 6.39 6.39h78.667c3.523 0 6.39-2.867 6.39-6.39v-63.439c0-3.523-2.866-6.39-6.39-6.39zm32.058 39.578v16.922c0 4.002 3.274 7.276 7.276 7.276s7.276-3.274 7.276-7.276v-16.923c4.344-2.515 7.266-7.212 7.266-12.593 0-8.031-6.511-14.542-14.542-14.542s-14.541 6.51-14.541 14.542c0 5.38 2.922 10.078 7.266 12.593zm-164.48-267.585c0-39.942 32.495-72.437 72.437-72.437s72.438 32.495 72.438 72.437c0 26.523-14.629 50.931-37.676 63.562v35.135c0 1.965-.724 3.861-2.031 5.327l-3.326 3.726v22.233c0 2.696-1.358 5.211-3.613 6.69l-7.568 4.963 7.568 4.962c2.255 1.478 3.613 3.994 3.613 6.69v3.706c0 2.696-1.358 5.211-3.613 6.69l-7.568 4.962 7.568 4.963c2.255 1.479 3.613 3.994 3.613 6.69v16.688c0 2.587-1.251 5.014-3.357 6.515l-21.404 15.251c-1.39.99-3.016 1.485-4.643 1.485s-3.253-.495-4.643-1.485l-21.403-15.25c-2.106-1.501-3.357-3.928-3.357-6.515v-89.237l-3.325-3.726c-1.309-1.466-2.032-3.362-2.032-5.327v-35.135c-23.047-12.631-37.676-37.039-37.676-63.562zm16 0c0 22.032 12.954 42.19 33.002 51.356 2.848 1.302 4.674 4.145 4.674 7.275v37.015l3.325 3.726c1.309 1.466 2.032 3.362 2.032 5.327v88.166l13.403 9.55 13.404-9.551v-8.245l-14.158-9.284c-2.255-1.479-3.613-3.994-3.613-6.69s1.358-5.211 3.613-6.69l10.394-6.815-10.394-6.815c-2.255-1.478-3.613-3.993-3.613-6.689s1.358-5.212 3.613-6.69l14.158-9.284v-20.963c0-1.965.724-3.861 2.031-5.327l3.326-3.726v-37.015c0-3.131 1.826-5.974 4.674-7.275 20.048-9.167 33.002-29.325 33.002-51.356 0-31.12-25.317-56.437-56.438-56.437s-56.437 25.317-56.437 56.437zm28.003-15.479c0-15.679 12.755-28.434 28.434-28.434s28.435 12.755 28.435 28.434-12.756 28.434-28.435 28.434-28.434-12.755-28.434-28.434zm16 0c0 6.856 5.578 12.434 12.434 12.434s12.435-5.578 12.435-12.434-5.578-12.434-12.435-12.434-12.434 5.578-12.434 12.434z" fill="url(#linear-gradient)"/></svg>