<svg id="Шар_1" enable-background="new 0 0 512 512" height="512" viewBox="0 0 512 512" width="512" xmlns="http://www.w3.org/2000/svg"><g><path d="m295.285 120.934c-3.46-.994-5.842-4.157-5.842-7.756v-29.713c-22.168-4.258-44.719-4.258-66.886 0v29.713c0 3.599-2.382 6.762-5.841 7.756-15.378 4.418-29.809 11.377-42.895 20.682-2.934 2.088-6.895 1.976-9.708-.267l-23.252-18.541c-8.574 7.338-16.412 15.439-23.357 24.148s-13.099 18.153-18.345 28.146l23.211 18.51c2.814 2.244 3.802 6.079 2.422 9.403-6.134 14.778-9.691 30.406-10.575 46.451-.198 3.594-2.753 6.623-6.262 7.424l-28.973 6.613c.391 11.277 1.838 22.458 4.316 33.318 2.479 10.86 6.025 21.56 10.567 31.892l28.959-6.61c3.503-.799 7.116.816 8.856 3.959 7.754 14.007 17.755 26.536 29.727 37.238 2.681 2.396 3.453 6.278 1.893 9.518l-12.9 26.787c9.062 6.727 18.703 12.565 28.74 17.399 10.036 4.832 20.613 8.731 31.523 11.622l12.896-26.781c1.559-3.239 5.08-5.051 8.615-4.456 7.971 1.347 15.987 2.03 23.826 2.03s15.855-.683 23.826-2.03c3.54-.596 7.054 1.218 8.615 4.456l12.896 26.78c10.91-2.891 21.489-6.79 31.523-11.622 10.037-4.834 19.681-10.673 28.74-17.399l-12.9-26.786c-1.56-3.24-.789-7.121 1.893-9.518 11.972-10.702 21.974-23.231 29.727-37.238 1.739-3.144 5.353-4.758 8.856-3.959l28.959 6.61c4.542-10.332 8.089-21.032 10.568-31.892 2.478-10.86 3.926-22.04 4.316-33.318l-28.973-6.613c-3.509-.801-6.064-3.83-6.262-7.424-.884-16.045-4.441-31.673-10.575-46.451-1.38-3.324-.392-7.159 2.422-9.403l23.211-18.51c-5.246-9.993-11.4-19.437-18.345-28.146-6.947-8.71-14.785-16.812-23.359-24.148l-23.251 18.542c-2.814 2.243-6.774 2.355-9.708.267-13.085-9.306-27.517-16.264-42.894-20.683zm53.519 132.828c0 51.172-41.632 92.804-92.804 92.804s-92.804-41.632-92.804-92.804 41.632-92.804 92.804-92.804 92.804 41.632 92.804 92.804z" fill="#bbe8ff"/><path d="m299.315 69.052c-14.287-3.273-28.861-4.933-43.315-4.933-14.455 0-29.028 1.66-43.316 4.933-3.667.84-6.267 4.104-6.267 7.866v30.306c-13.027 4.295-25.394 10.258-36.899 17.792l-23.712-18.909c-2.941-2.346-7.113-2.349-10.058-.004-11.467 9.13-21.851 19.489-30.862 30.79-9.013 11.302-16.802 23.731-23.15 36.941-1.629 3.391-.699 7.459 2.243 9.805l23.674 18.88c-4.766 12.866-7.814 26.26-9.098 39.963l-29.546 6.743c-3.668.838-6.271 4.099-6.274 7.861-.012 14.655 1.613 29.233 4.83 43.327 3.215 14.092 8.077 27.931 14.447 41.132 1.636 3.389 5.395 5.196 9.064 4.36l29.543-6.743c7.098 11.739 15.666 22.471 25.559 32.016l-13.159 27.322c-1.632 3.39-.706 7.458 2.234 9.807 11.451 9.147 23.861 16.966 36.885 23.238 13.022 6.272 26.873 11.1 41.167 14.35.598.136 1.198.202 1.791.202 3.046 0 5.903-1.732 7.268-4.569l13.155-27.319c13.722 1.795 27.24 1.795 40.962 0l13.155 27.319c1.632 3.39 5.385 5.201 9.061 4.368 14.294-3.251 28.145-8.078 41.166-14.35 13.027-6.274 25.437-14.092 36.885-23.238 2.94-2.349 3.866-6.417 2.234-9.807l-13.158-27.323c9.893-9.546 18.46-20.277 25.559-32.016l29.543 6.743c3.663.834 7.428-.972 9.064-4.36 6.37-13.199 11.23-27.038 14.448-41.132 3.216-14.095 4.842-28.672 4.83-43.327-.003-3.763-2.606-7.024-6.274-7.861l-29.546-6.743c-1.284-13.702-4.332-27.097-9.098-39.963l23.674-18.88c2.942-2.346 3.872-6.413 2.243-9.805-6.349-13.21-14.137-25.639-23.15-36.941-9.016-11.304-19.4-21.663-30.865-30.79-2.942-2.343-7.115-2.341-10.057.004l-23.711 18.909c-11.505-7.533-23.872-13.497-36.9-17.792v-30.306c-.001-3.762-2.602-7.025-6.269-7.866zm48.573 72.297 23.251-18.542c8.573 7.337 16.411 15.439 23.359 24.148 6.945 8.709 13.099 18.153 18.345 28.146l-23.211 18.51c-2.814 2.244-3.802 6.079-2.422 9.403 6.134 14.778 9.691 30.406 10.575 46.451.198 3.594 2.753 6.623 6.262 7.424l28.973 6.613c-.391 11.277-1.838 22.457-4.316 33.318-2.479 10.861-6.026 21.561-10.568 31.892l-28.959-6.61c-3.503-.799-7.116.816-8.856 3.959-7.754 14.007-17.755 26.536-29.727 37.238-2.682 2.396-3.453 6.278-1.893 9.518l12.9 26.786c-9.059 6.726-18.703 12.565-28.74 17.399-10.035 4.832-20.613 8.731-31.523 11.622l-12.896-26.78c-1.56-3.238-5.075-5.052-8.615-4.456-7.971 1.347-15.987 2.03-23.826 2.03s-15.855-.683-23.826-2.03c-3.535-.595-7.056 1.217-8.615 4.456l-12.896 26.781c-10.91-2.891-21.488-6.79-31.523-11.622-10.037-4.834-19.678-10.672-28.74-17.399l12.899-26.786c1.56-3.24.788-7.121-1.893-9.518-11.972-10.702-21.974-23.231-29.727-37.238-1.739-3.144-5.353-4.758-8.856-3.959l-28.959 6.61c-4.542-10.332-8.088-21.032-10.567-31.892-2.478-10.86-3.926-22.041-4.316-33.318l28.973-6.613c3.509-.801 6.064-3.83 6.262-7.424.884-16.045 4.441-31.673 10.575-46.451 1.38-3.324.392-7.159-2.422-9.403l-23.211-18.51c5.246-9.993 11.4-19.437 18.345-28.146 6.945-8.708 14.783-16.81 23.357-24.148l23.252 18.541c2.814 2.243 6.774 2.355 9.708.267 13.087-9.305 27.517-16.264 42.895-20.682 3.459-.994 5.841-4.157 5.841-7.756v-29.713c22.167-4.258 44.719-4.258 66.886 0v29.713c0 3.599 2.382 6.762 5.842 7.756 15.378 4.419 29.81 11.377 42.895 20.682 2.934 2.088 6.894 1.976 9.708-.267z" fill="#005284"/><path d="m256 177.098c-42.273 0-76.664 34.391-76.664 76.664s34.392 76.664 76.664 76.664 76.664-34.391 76.664-76.664-34.391-76.664-76.664-76.664zm48.139 60.178-52.454 52.454c-1.576 1.575-3.641 2.364-5.707 2.364-2.054 0-4.107-.779-5.68-2.337l-28.375-28.115c-3.166-3.137-3.19-8.247-.053-11.412 3.139-3.167 8.247-3.188 11.412-.053l22.67 22.461 46.774-46.775c3.152-3.151 8.261-3.151 11.414 0 3.15 3.152 3.15 8.262-.001 11.413z" fill="#ffc550"/><g fill="#005284"><path d="m256 160.958c-51.172 0-92.804 41.632-92.804 92.804s41.632 92.804 92.804 92.804 92.804-41.632 92.804-92.804-41.632-92.804-92.804-92.804zm0 169.469c-42.273 0-76.664-34.391-76.664-76.664s34.392-76.664 76.664-76.664 76.664 34.391 76.664 76.664-34.391 76.664-76.664 76.664z"/><path d="m292.726 225.864-46.774 46.775-22.67-22.461c-3.166-3.135-8.274-3.114-11.412.053-3.137 3.166-3.113 8.275.053 11.412l28.375 28.115c1.573 1.559 3.626 2.337 5.68 2.337 2.066 0 4.131-.789 5.707-2.364l52.454-52.454c3.151-3.151 3.151-8.261 0-11.412-3.152-3.152-8.261-3.152-11.413-.001z"/><path d="m323.069 23.552c.093 2.447 15.146 43.141 15.616 44.437 1.19 3.282 4.287 5.322 7.587 5.322.913 0 1.843-.156 2.75-.485 4.19-1.519 6.355-6.147 4.837-10.337l-9.338-25.758c90.109 35.939 149.542 122.755 149.542 221.067 0 131.268-106.795 238.063-238.063 238.063-46.671 0-91.856-13.498-130.67-39.034-3.723-2.448-8.727-1.416-11.177 2.307s-1.417 8.727 2.306 11.177c41.456 27.273 89.709 41.689 139.541 41.689 67.9 0 131.735-26.442 179.748-74.454 48.012-48.013 74.454-111.849 74.454-179.748 0-54.962-17.258-107.28-49.909-151.297-27.513-37.091-63.767-65.503-105.74-83.1l21.356-7.742c4.19-1.519 6.355-6.147 4.837-10.337-1.519-4.191-6.149-6.353-10.337-4.837-2.767 1.003-41.123 14.901-41.851 15.172-2.91 1.083-5.137 3.627-5.454 6.784-.039.379-.048.749-.035 1.111z"/><path d="m45.925 435.336c-4.457 0-8.07 3.613-8.07 8.07s3.613 8.07 8.07 8.07c.35 0 47.64.002 48.273-.002 2.159-.013 4.259-.8 5.808-2.327 1.68-1.656 2.408-3.867 2.408-6.185 0-.656 0-43.607 0-43.941 0-4.457-3.613-8.07-8.07-8.07s-8.07 3.613-8.07 8.07v25.694c-43.63-44.38-68.338-104.239-68.338-166.918.001-131.268 106.796-238.062 238.064-238.062 13.151 0 26.341 1.08 39.203 3.211 4.392.73 8.552-2.244 9.281-6.642.728-4.397-2.246-8.552-6.642-9.28-13.732-2.276-27.81-3.429-41.842-3.429-67.9 0-131.736 26.442-179.748 74.454-48.013 48.013-74.454 111.849-74.454 179.748 0 66.599 26.114 130.223 72.273 177.538z"/></g></g></svg>