<?xml version="1.0" encoding="UTF-8" standalone="no"?>
<!-- Created with Inkscape (http://www.inkscape.org/) -->

<svg
   version="1.1"
   id="svg279"
   width="682.66669"
   height="682.66669"
   viewBox="0 0 682.66669 682.66669"
   xmlns="http://www.w3.org/2000/svg"
   xmlns:svg="http://www.w3.org/2000/svg">
  <defs
     id="defs283">
    <clipPath
       clipPathUnits="userSpaceOnUse"
       id="clipPath293">
      <path
         d="M 0,512 H 512 V 0 H 0 Z"
         id="path291" />
    </clipPath>
  </defs>
  <g
     id="g285"
     transform="matrix(1.3333333,0,0,-1.3333333,0,682.66667)">
    <g
       id="g287">
      <g
         id="g289"
         clip-path="url(#clipPath293)">
        <g
           id="g295"
           transform="translate(210.6592,174.896)">
          <path
             d="m 0,0 c -53.432,0 -98.748,43.315 -98.748,96.748 0,53.432 43.316,96.747 96.748,96.747 40.15,0 74.585,-26.457 89.225,-61.286 h 15.643 c 4.111,0 7.75,-2.658 9.001,-6.574 l 8.218,-25.727 c 0.982,-3.074 3.839,-5.16 7.066,-5.16 h 72.051 v 24.693 c 0,4.919 -3.988,8.905 -8.905,8.905 H 156.17 c -4.098,0 -7.627,2.811 -8.643,6.781 -3.661,14.303 -9.322,27.804 -16.664,40.19 -2.092,3.531 -1.588,8.017 1.313,10.919 l 24.144,24.142 c 3.477,3.478 3.477,9.117 0,12.594 l -32.094,32.095 c -3.478,3.478 -9.117,3.478 -12.595,0 L 87.488,230.924 c -2.902,-2.902 -7.388,-3.406 -10.918,-1.314 -12.387,7.342 -25.887,13.002 -40.189,16.664 -3.972,1.017 -6.782,4.546 -6.782,8.644 v 34.128 c 0,4.918 -3.987,8.905 -8.904,8.905 h -45.389 c -4.918,0 -8.906,-3.987 -8.906,-8.905 v -34.128 c 0,-4.098 -2.808,-7.627 -6.781,-8.644 -14.302,-3.662 -27.802,-9.322 -40.188,-16.664 -3.532,-2.092 -8.017,-1.588 -10.92,1.314 l -24.142,24.143 c -3.477,3.478 -9.117,3.478 -12.595,0 l -32.093,-32.095 c -3.478,-3.477 -3.478,-9.116 0,-12.594 l 24.143,-24.143 c 2.901,-2.901 3.406,-7.387 1.314,-10.918 -7.342,-12.386 -13.003,-25.887 -16.664,-40.19 -1.016,-3.97 -4.545,-6.781 -8.644,-6.781 h -34.127 c -4.919,0 -8.907,-3.986 -8.907,-8.905 V 74.054 c 0,-4.918 3.988,-8.906 8.907,-8.906 h 34.127 c 4.099,0 7.628,-2.81 8.644,-6.781 3.661,-14.303 9.322,-27.802 16.664,-40.19 2.092,-3.53 1.587,-8.016 -1.314,-10.917 l -24.143,-24.143 c -3.478,-3.478 -3.478,-9.117 0,-12.595 l 32.093,-32.094 c 3.478,-3.478 9.118,-3.478 12.595,0 l 24.142,24.143 c 2.903,2.902 7.388,3.406 10.92,1.314 12.386,-7.342 25.886,-13.003 40.188,-16.665 3.973,-1.015 6.781,-4.544 6.781,-8.644 v -34.127 c 0,-4.918 3.988,-8.905 8.906,-8.905 H 0 Z"
             style="fill:#4b98d4;fill-opacity:1;fill-rule:nonzero;stroke:none"
             id="path297" />
        </g>
        <g
           id="g299"
           transform="translate(74.4829,361.1309)">
          <path
             d="m 0,0 c 2.901,-2.901 3.406,-7.387 1.314,-10.917 -7.341,-12.387 -13.002,-25.888 -16.664,-40.19 -1.016,-3.971 -4.545,-6.781 -8.644,-6.781 h 20 c 4.099,0 7.628,2.81 8.644,6.781 3.662,14.302 9.323,27.803 16.664,40.19 C 23.406,-7.387 22.901,-2.901 20,0 L -4.143,24.143 c -3.478,3.478 -3.478,9.117 0,12.594 l 28.391,28.392 -3.703,3.703 c -3.477,3.478 -9.116,3.478 -12.594,0 L -24.143,36.737 c -3.478,-3.477 -3.478,-9.116 0,-12.594 z"
             style="fill:#2472b2;fill-opacity:1;fill-rule:nonzero;stroke:none"
             id="path301" />
        </g>
        <g
           id="g303"
           transform="translate(27.4556,248.9502)">
          <path
             d="m 0,0 v 45.387 c 0,4.919 3.987,8.905 8.906,8.905 h -20 C -16.013,54.292 -20,50.306 -20,45.387 V 0 c 0,-4.918 3.987,-8.906 8.906,-8.906 h 20 C 3.987,-8.906 0,-4.918 0,0"
             style="fill:#2472b2;fill-opacity:1;fill-rule:nonzero;stroke:none"
             id="path305" />
        </g>
        <g
           id="g307"
           transform="translate(70.3403,145.4185)">
          <path
             d="m 0,0 c -3.478,3.478 -3.478,9.116 0,12.594 l 24.143,24.143 c 2.901,2.902 3.405,7.388 1.314,10.918 -7.342,12.387 -13.003,25.887 -16.665,40.19 -1.015,3.971 -4.544,6.781 -8.644,6.781 h -20 c 4.1,0 7.629,-2.81 8.644,-6.781 C -7.546,73.542 -1.885,60.042 5.457,47.655 7.548,44.125 7.044,39.639 4.143,36.737 L -20,12.594 C -23.478,9.116 -23.478,3.478 -20,0 l 32.093,-32.095 c 3.478,-3.477 9.117,-3.477 12.594,0 l 3.704,3.703 z"
             style="fill:#2472b2;fill-opacity:1;fill-rule:nonzero;stroke:none"
             id="path309" />
        </g>
        <g
           id="g311"
           transform="translate(185.9653,472.8467)">
          <path
             d="m 0,0 c -4.918,0 -8.906,-3.987 -8.906,-8.906 v -34.126 c 0,-2.283 -0.873,-4.387 -2.331,-5.981 3.926,2.076 10.136,4.755 17.358,5.663 2.848,0.358 4.973,2.802 4.973,5.672 V -8.905 C 11.094,-3.987 15.082,0 20,0 Z"
             style="fill:#2472b2;fill-opacity:1;fill-rule:nonzero;stroke:none"
             id="path313" />
        </g>
        <g
           id="g315"
           transform="translate(197.0596,79.3447)">
          <path
             d="m 0,0 v 27.934 c 0,3.357 -2.549,6.143 -5.886,6.502 -7.04,0.758 -12.204,2.785 -15.639,4.65 C -20.558,37.66 -20,35.951 -20,34.127 V 0 c 0,-4.918 3.987,-8.905 8.905,-8.905 H 8.906 C 3.988,-8.905 0,-4.918 0,0"
             style="fill:#2472b2;fill-opacity:1;fill-rule:nonzero;stroke:none"
             id="path317" />
        </g>
        <g
           id="g319"
           transform="translate(494.6665,271.6436)">
          <path
             d="m 0,0 h -154.854 c -3.227,0 -6.084,2.086 -7.066,5.161 l -8.219,25.727 c -1.251,3.916 -4.889,6.574 -9.001,6.574 h -97.418 c -5.219,0 -9.449,-4.231 -9.449,-9.449 v -250.745 c 0,-5.39 4.369,-9.758 9.758,-9.758 H 0 c 5.39,0 9.758,4.368 9.758,9.758 V -9.758 C 9.758,-4.369 5.39,0 0,0"
             style="fill:#ffc964;fill-opacity:1;fill-rule:nonzero;stroke:none"
             id="path321" />
        </g>
        <g
           id="g323"
           transform="translate(228.6592,48.9111)">
          <path
             d="m 0,0 v 250.746 c 0,5.218 4.23,9.448 9.449,9.448 h -20 c -5.219,0 -9.449,-4.23 -9.449,-9.448 V 0 c 0,-5.389 4.369,-9.758 9.758,-9.758 h 20 C 4.369,-9.758 0,-5.389 0,0"
             style="fill:#f3a334;fill-opacity:1;fill-rule:nonzero;stroke:none"
             id="path325" />
        </g>
        <g
           id="g327"
           transform="translate(435.268,154.8887)">
          <path
             d="m 0,0 c 0,-43.479 -35.247,-78.727 -78.727,-78.727 -43.478,0 -78.725,35.248 -78.725,78.727 0,43.479 35.247,78.726 78.725,78.726 C -35.247,78.726 0,43.479 0,0"
             style="fill:#e4e3e1;fill-opacity:1;fill-rule:nonzero;stroke:none"
             id="path329" />
        </g>
        <g
           id="g331"
           transform="translate(338.8071,117.6157)">
          <path
             d="m 0,0 -28.865,28.865 c -5.401,5.401 -5.401,14.157 0,19.558 5.401,5.401 14.157,5.4 19.558,0 L 9.779,29.337 44.776,64.334 c 5.402,5.401 14.158,5.401 19.558,0 5.401,-5.4 5.401,-14.157 0,-19.558 L 19.559,0 C 14.158,-5.4 5.401,-5.401 0,0"
             style="fill:#9ad14b;fill-opacity:1;fill-rule:nonzero;stroke:none"
             id="path333" />
        </g>
        <g
           id="g335"
           transform="translate(297.8159,154.8887)">
          <path
             d="m 0,0 c 0,40.089 29.972,73.155 68.726,78.072 -3.277,0.416 -6.61,0.654 -10,0.654 C 15.247,78.726 -20,43.479 -20,0 c 0,-43.479 35.247,-78.727 78.726,-78.727 3.39,0 6.723,0.239 10,0.655 C 29.972,-73.156 0,-40.089 0,0"
             style="fill:#d1d0cf;fill-opacity:1;fill-rule:nonzero;stroke:none"
             id="path337" />
        </g>
        <g
           id="g339"
           transform="translate(329.9419,146.4805)">
          <path
             d="m 0,0 c -5.326,5.326 -5.389,13.91 -0.209,19.326 l -0.232,0.232 c -5.402,5.401 -14.158,5.401 -19.559,0 C -25.4,14.157 -25.4,5.401 -20,0 L 8.865,-28.865 c 5.402,-5.401 14.158,-5.4 19.559,0 l 0.221,0.221 z"
             style="fill:#76ab29;fill-opacity:1;fill-rule:nonzero;stroke:none"
             id="path341" />
        </g>
        <g
           id="g343"
           transform="translate(339.812,271.6436)">
          <path
             d="m 0,0 c -3.227,0 -6.084,2.086 -7.065,5.161 l -8.219,25.727 c -1.251,3.916 -4.89,6.574 -9.001,6.574 h -97.419 c -5.218,0 -9.449,-4.231 -9.449,-9.449 V 0 Z"
             style="fill:#f3a334;fill-opacity:1;fill-rule:nonzero;stroke:none"
             id="path345" />
        </g>
        <g
           id="g347"
           transform="translate(208.6592,271.6436)">
          <path
             d="m 0,0 h 20 v 28.013 c 0,5.218 4.23,9.449 9.449,9.449 h -20 C 8.145,37.462 6.901,37.197 5.771,36.719 5.488,36.6 5.213,36.467 4.945,36.321 2,34.721 0,31.601 0,28.013 Z"
             style="fill:#ea7f2f;fill-opacity:1;fill-rule:nonzero;stroke:none"
             id="path349" />
        </g>
        <g
           id="g351"
           transform="translate(339.8725,271.6436)">
          <path
             d="m 0,0 c -3.227,0 -6.084,2.086 -7.066,5.161 l -8.218,25.727 c -1.251,3.916 -4.891,6.574 -9.001,6.574 h -97.419 c -5.218,0 -9.449,-4.231 -9.449,-9.449 V 0 Z"
             style="fill:none;stroke:#000000;stroke-width:15;stroke-linecap:round;stroke-linejoin:round;stroke-miterlimit:10;stroke-dasharray:none;stroke-opacity:1"
             id="path353" />
        </g>
        <g
           id="g355"
           transform="translate(435.3286,154.8887)">
          <path
             d="m 0,0 c 0,-43.479 -35.247,-78.727 -78.727,-78.727 -43.479,0 -78.726,35.248 -78.726,78.727 0,43.479 35.247,78.726 78.726,78.726 C -35.247,78.726 0,43.479 0,0 Z"
             style="fill:none;stroke:#000000;stroke-width:15;stroke-linecap:round;stroke-linejoin:round;stroke-miterlimit:10;stroke-dasharray:none;stroke-opacity:1"
             id="path357" />
        </g>
        <g
           id="g359"
           transform="translate(338.8676,117.6157)">
          <path
             d="m 0,0 -28.865,28.865 c -5.401,5.401 -5.401,14.157 0,19.558 5.401,5.401 14.157,5.4 19.557,0 L 9.778,29.337 44.776,64.334 c 5.401,5.401 14.157,5.401 19.558,0 5.4,-5.4 5.4,-14.157 0,-19.558 L 19.558,0 C 14.157,-5.4 5.401,-5.401 0,0 Z"
             style="fill:none;stroke:#000000;stroke-width:15;stroke-linecap:round;stroke-linejoin:round;stroke-miterlimit:10;stroke-dasharray:none;stroke-opacity:1"
             id="path361" />
        </g>
        <g
           id="g363"
           transform="translate(226.2197,366.7998)">
          <path
             d="m 0,0 c 32.459,-5.932 59.264,-28.05 71.725,-57.694 h 17.643 c 4.11,0 7.75,-2.658 9.001,-6.574 l 8.217,-25.728 c 0.983,-3.074 3.84,-5.16 7.067,-5.16 h 70.051 v 22.694 c 0,4.919 -3.988,8.905 -8.906,8.905 H 140.67 c -4.098,0 -7.627,2.81 -8.643,6.781 -3.662,14.302 -9.322,27.803 -16.665,40.19 -2.092,3.53 -1.587,8.016 1.314,10.918 l 24.143,24.142 c 3.478,3.478 3.478,9.117 0,12.594 l -32.094,32.095 c -3.477,3.478 -9.117,3.478 -12.594,0 L 71.988,39.021 C 69.086,36.119 64.6,35.614 61.069,37.706 48.683,45.048 35.183,50.708 20.881,54.371 c -3.972,1.016 -6.782,4.545 -6.782,8.644 v 34.127 c 0,4.918 -3.987,8.905 -8.905,8.905 h -45.388 c -4.918,0 -8.906,-3.987 -8.906,-8.905 V 63.015 c 0,-4.099 -2.809,-7.628 -6.781,-8.644 -14.302,-3.663 -27.802,-9.323 -40.189,-16.665 -3.531,-2.092 -8.016,-1.587 -10.919,1.315 l -24.143,24.142 c -3.476,3.478 -9.116,3.478 -12.594,0 l -32.093,-32.095 c -3.478,-3.477 -3.478,-9.116 0,-12.594 l 24.142,-24.143 c 2.902,-2.901 3.406,-7.387 1.315,-10.917 -7.342,-12.387 -13.003,-25.888 -16.665,-40.19 -1.015,-3.971 -4.544,-6.781 -8.644,-6.781 h -34.127 c -4.918,0 -8.906,-3.986 -8.906,-8.905 v -45.388 c 0,-4.918 3.988,-8.905 8.906,-8.905 h 34.127 c 4.1,0 7.629,-2.81 8.644,-6.782 3.662,-14.302 9.323,-27.802 16.665,-40.19 2.091,-3.53 1.587,-8.015 -1.315,-10.917 l -24.142,-24.143 c -3.478,-3.478 -3.478,-9.117 0,-12.594 l 32.093,-32.095 c 3.478,-3.478 9.118,-3.478 12.594,0 l 24.143,24.143 c 2.903,2.902 7.388,3.406 10.919,1.314 12.387,-7.342 25.887,-13.002 40.189,-16.665 3.972,-1.015 6.781,-4.544 6.781,-8.644 v -34.127 c 0,-4.918 3.988,-8.905 8.906,-8.905 H -17.5 v 104.456 c -53.432,0 -96.748,43.316 -96.748,96.748 0,47.457 34.17,86.928 79.248,95.165"
             style="fill:none;stroke:#000000;stroke-width:15;stroke-linecap:round;stroke-linejoin:round;stroke-miterlimit:10;stroke-dasharray:none;stroke-opacity:1"
             id="path365" />
        </g>
        <g
           id="g367"
           transform="translate(504.4848,167.2827)">
          <path
             d="m 0,0 v 94.603 c 0,5.389 -4.369,9.758 -9.758,9.758 h -154.854 c -3.227,0 -6.084,2.086 -7.067,5.16 l -8.217,25.728 c -1.251,3.916 -4.891,6.574 -9.001,6.574 h -97.419 c -5.219,0 -9.449,-4.231 -9.449,-9.449 v -250.746 c 0,-5.389 4.369,-9.757 9.758,-9.757 H -9.758 c 5.389,0 9.758,4.368 9.758,9.757 L 0,-35"
             style="fill:none;stroke:#000000;stroke-width:15;stroke-linecap:round;stroke-linejoin:round;stroke-miterlimit:10;stroke-dasharray:none;stroke-opacity:1"
             id="path369" />
        </g>
      </g>
    </g>
  </g>
</svg>
