<svg xmlns="http://www.w3.org/2000/svg" xmlns:xlink="http://www.w3.org/1999/xlink" id="Layer_5" enable-background="new 0 0 64 64" height="60" viewBox="0 0 64 64" width="60"><linearGradient id="SVGID_1_" gradientUnits="userSpaceOnUse" x1="32" x2="32" y1="63" y2="1"><stop offset="0" stop-color="#4084E9"/><stop offset="1" stop-color="#4084E9"/></linearGradient><path d="m55 13c-.548 0-1.095.058-1.636.173-1.625-4.86-6.161-8.173-11.364-8.173-2.658 0-5.173.881-7.225 2.434-2.566-3.995-6.971-6.434-11.775-6.434-6.253 0-11.657 4.076-13.41 10.009-4.773.215-8.59 4.166-8.59 8.991 0 4.963 4.038 9 9 9h11v4.101c-2.279.465-4 2.484-4 4.899v20c0 2.757 2.243 5 5 5h20c2.757 0 5-2.243 5-5v-20c0-2.414-1.721-4.434-4-4.899v-4.101h12c4.411 0 8-3.589 8-8s-3.589-8-8-8zm-14 20h-2v-7c0-3.859-3.14-7-7-7s-7 3.141-7 7v7h-2v-7c0-4.963 4.038-9 9-9s9 4.037 9 9zm-4-6h-10v-1c0-2.757 2.243-5 5-5s5 2.243 5 5zm-10 2h10v4h-10zm18 9v20c0 1.654-1.346 3-3 3h-20c-1.654 0-3-1.346-3-3v-20c0-1.654 1.346-3 3-3h20c1.654 0 3 1.346 3 3zm10-11h-12v-1c0-6.065-4.935-11-11-11s-11 4.935-11 11v1h-11c-3.86 0-7-3.141-7-7s3.14-7 7-7c.052 0 .104.004.155.008l.986.043.189-.805c1.281-5.443 6.08-9.246 11.67-9.246 4.229 0 8.1 2.205 10.27 5.796-.481.513-.937 1.056-1.329 1.658l1.676 1.092c1.855-2.847 4.989-4.546 8.383-4.546 4.625 0 8.616 3.141 9.707 7.638l.26 1.075 1.043-.367c.653-.23 1.322-.346 1.99-.346 3.309 0 6 2.691 6 6s-2.691 6-6 6zm-17 22h-12c-2.757 0-5 2.243-5 5s2.243 5 5 5h12c2.757 0 5-2.243 5-5s-2.243-5-5-5zm-15 5c0-1.654 1.346-3 3-3h1v6h-1c-1.654 0-3-1.346-3-3zm15 3h-9v-6h9c1.654 0 3 1.346 3 3s-1.346 3-3 3zm-5-4h2v2h-2zm4 0h2v2h-2zm1-16h-12c-2.757 0-5 2.243-5 5s2.243 5 5 5h12c2.757 0 5-2.243 5-5s-2.243-5-5-5zm-15 5c0-1.654 1.346-3 3-3h1v6h-1c-1.654 0-3-1.346-3-3zm15 3h-9v-6h9c1.654 0 3 1.346 3 3s-1.346 3-3 3zm-1-4h2v2h-2zm-4 0h2v2h-2zm-10-36v2c-3.763 0-6.971 2.559-7.802 6.222l-1.95-.443c1.039-4.58 5.049-7.779 9.752-7.779zm27 12h-2c0-3.309-2.691-6-6-6v-2c4.411 0 8 3.589 8 8zm-40 37c0 .552-.448 1-1 1s-1-.448-1-1 .448-1 1-1 1 .448 1 1zm0-4c0 .552-.448 1-1 1s-1-.448-1-1 .448-1 1-1 1 .448 1 1zm0-3h-2v-12.586l-4.293 4.293-1.414-1.414 6.707-6.707 6.707 6.707-1.414 1.414-4.293-4.293zm44-13c0-.552.448-1 1-1s1 .448 1 1-.448 1-1 1-1-.448-1-1zm0 4c0-.552.448-1 1-1s1 .448 1 1-.448 1-1 1-1-.448-1-1zm0 3h2v12.586l4.293-4.293 1.414 1.414-6.707 6.707-6.707-6.707 1.414-1.414 4.293 4.293z" fill="url(#SVGID_1_)"/></svg>