<svg height="512pt" viewBox="-113 0 512 512" width="512pt" xmlns="http://www.w3.org/2000/svg"><path d="m254.550781 294.625-7.726562-13.378906-103.195313 59.578125-7.726562 22.304687v130.84375h15.453125v-130.84375l95.46875 55.121094 7.726562-13.382812-95.46875-55.121094zm0 0" fill="#292c32"/><path d="m40.429688 281.246094-7.726563 13.378906 95.472656 55.121094-95.472656 55.121094 7.726563 13.382812 95.472656-55.121094 7.726562-22.304687zm0 0" fill="#41494e"/><path d="m143.628906 0v295.660156l84.925782-123.207031c13.925781-18.082031 22.210937-40.730469 22.210937-65.3125 0-59.171875-47.964844-107.140625-107.136719-107.140625zm0 0" fill="#ff1b10"/><path d="m219.859375 107.140625c0-59.171875-34.128906-107.140625-76.230469-107.140625-59.171875 0-107.140625 47.96875-107.140625 107.140625 0 24.582031 8.285157 47.230469 22.210938 65.3125l84.929687 123.207031 60.425782-123.207031c9.910156-18.082031 15.804687-40.730469 15.804687-65.3125zm0 0" fill="#ff451b"/><path d="m143.628906 30.90625v152.464844c42.101563 0 76.230469-34.128906 76.230469-76.230469 0-42.105469-34.128906-76.234375-76.230469-76.234375zm0 0" fill="#d6faff"/><path d="m188.957031 107.140625c0-42.105469-20.296875-76.234375-45.328125-76.234375-42.105468 0-76.234375 34.128906-76.234375 76.234375 0 42.101563 34.128907 76.230469 76.234375 76.230469 25.03125 0 45.328125-34.128906 45.328125-76.230469zm0 0" fill="#fff"/><path d="m166.804688 349.746094c0 12.800781-10.375 23.179687-23.175782 23.179687-12.804687 0-23.179687-10.378906-23.179687-23.179687 0-12.800782 10.375-23.179688 23.179687-23.179688 12.800782 0 23.175782 10.378906 23.175782 23.179688zm0 0" fill="#199aff"/><path d="m166.804688 488.820312c0 12.800782-10.375 23.179688-23.175782 23.179688-12.804687 0-23.179687-10.378906-23.179687-23.179688 0-12.800781 10.375-23.179687 23.179687-23.179687 12.800782 0 23.175782 10.378906 23.175782 23.179687zm0 0" fill="#0cbf4e"/><path d="m275.648438 399.21875c-11.085938-6.398438-25.261719-2.601562-31.664063 8.484375-6.398437 11.085937-2.601563 25.261719 8.484375 31.664063 11.085938 6.398437 25.261719 2.601562 31.664062-8.484376 6.398438-11.085937 2.601563-25.261718-8.484374-31.664062zm0 0" fill="#2275ff"/><path d="m284.132812 268.613281c-6.402343-11.085937-20.578124-14.882812-31.664062-8.484375-11.085938 6.402344-14.882812 20.578125-8.480469 31.664063 6.398438 11.085937 20.574219 14.882812 31.660157 8.484375 11.085937-6.402344 14.886718-20.578125 8.484374-31.664063zm0 0" fill="#0cbf4e"/><path d="m43.253906 407.683594c-6.398437-11.085938-20.574218-14.882813-31.660156-8.484375-11.085938 6.402343-14.886719 20.578125-8.484375 31.664062 6.402344 11.085938 20.578125 14.882813 31.664063 8.484375 11.085937-6.402344 14.882812-20.578125 8.480468-31.664062zm0 0" fill="#199aff"/><path d="m34.769531 260.140625c-11.085937-6.402344-25.261719-2.605469-31.664062 8.480469-6.402344 11.085937-2.601563 25.261718 8.484375 31.664062 11.085937 6.402344 25.261718 2.601563 31.660156-8.484375 6.402344-11.085937 2.605469-25.261719-8.480469-31.660156zm0 0" fill="#5dc75d"/></svg>