<svg id="Layer_1" enable-background="new 0 0 512 512" height="512" viewBox="0 0 512 512" width="512" xmlns="http://www.w3.org/2000/svg"><g clip-rule="evenodd" fill-rule="evenodd"><g><g><path d="m46.57 384.086 216.318-.001c4.59 0 8.541-1.936 11.353-5.565 2.812-3.627 3.704-7.935 2.56-12.381-13.992-54.366-63.339-94.539-122.071-94.539-58.734 0-108.08 40.173-122.072 94.539-1.144 4.446-.253 8.753 2.56 12.381 2.811 3.63 6.761 5.566 11.352 5.566z" fill="#60b7ff"/><path d="m262.887 384.085c4.591 0 8.541-1.937 11.353-5.565s3.704-7.935 2.56-12.381c-13.992-54.366-63.339-94.539-122.071-94.539-4.858 0-9.65.28-14.365.816 52.287 5.933 94.871 43.854 107.706 93.723 1.144 4.445.253 8.753-2.559 12.381s-6.763 5.565-11.353 5.565z" fill="#41a8fc"/><ellipse cx="154.73" cy="207.866" fill="#f6dccd" rx="63.731" ry="63.731" transform="matrix(.973 -.23 .23 .973 -43.619 41.11)"/><path d="m154.729 144.136c35.198 0 63.731 28.533 63.731 63.731 0 35.197-28.533 63.73-63.731 63.73-3.032 0-6.014-.217-8.933-.626 30.967-4.345 54.797-30.939 54.797-63.104s-23.83-58.76-54.797-63.105c2.919-.41 5.901-.626 8.933-.626z" fill="#f1cbbc"/></g><g><path d="m222.457 375.696v99.784c0 9.182 7.513 16.697 16.697 16.697h174.419c9.183 0 16.697-7.514 16.697-16.697v-99.781z" fill="#ecba78"/><path d="m222.457 375.696v99.784c0 9.182 7.513 16.697 16.697 16.697h16.689c-9.183 0-16.697-7.515-16.697-16.697v-99.783z" fill="#e3a76f"/><path d="m425.072 404.153c1.836-1.162 3.584-2.398 5.198-3.723 6.007-4.931 10.169-11.087 10.169-19.169v-40.703c0-4.712-3.844-8.555-8.555-8.555-71.528 0-139.512 0-211.04 0-4.712 0-8.555 3.843-8.555 8.555v40.703c0 8.081 4.162 14.238 10.168 19.168 1.615 1.326 3.363 2.563 5.199 3.725 34.735 21.976 162.934 21.815 197.416-.001z" fill="#e3a76f"/><path d="m239.146 332.002h-18.302c-4.712 0-8.555 3.843-8.555 8.555v40.703c0 8.081 4.162 14.238 10.168 19.168 1.615 1.326 3.363 2.563 5.199 3.724 3.118 1.973 7.001 3.764 11.49 5.381z" fill="#c48958"/><path d="m277.521 370.548h97.687c5.9 0 10.726-4.827 10.726-10.726v-27.82c-6.609 0-13.201 0-19.78 0h-79.579-19.781v27.82c0 5.9 4.827 10.726 10.727 10.726z" fill="#c48958"/><path d="m305.339 423.275c0 11.612 9.413 21.026 21.026 21.026 11.612 0 21.025-9.414 21.025-21.026 0-11.575-9.376-21.026-21.025-21.026s-21.026 9.45-21.026 21.026z" fill="#837683"/><path d="m323.862 444.152c.821.098 1.656.149 2.503.149 11.612 0 21.026-9.413 21.026-21.025 0-11.575-9.376-21.026-21.026-21.026-.848 0-1.683.051-2.504.148 10.461 1.238 18.524 10.144 18.524 20.877 0 10.765-8.091 19.639-18.523 20.877z" fill="#685e68"/></g><g><path d="m372.558 232.254-37.329-64.656-24.371 14.071 28.583 49.507c5.741 9.943 18.532 13.37 28.475 7.63l3.416-1.972c1.598-.924 2.15-2.981 1.226-4.58z" fill="#837683"/><path d="m372.558 232.254-37.329-64.656-24.372 14.07 20.956-12.098 37.329 64.656c.923 1.599.372 3.656-1.227 4.579l3.416-1.972c1.599-.923 2.151-2.98 1.227-4.579z" fill="#685e68"/><path d="m436.883 75.827c-6.189-10.721-19.898-14.393-30.619-8.204-.318.184-2.932 1.704-3.238 1.9l22.388 38.776c.323-.166 2.946-1.67 3.264-1.854 10.721-6.189 14.394-19.897 8.205-30.618z" fill="#837683"/><path d="m436.883 75.827c-6.19-10.721-19.898-14.394-30.619-8.204-.318.183-2.932 1.704-3.238 1.9l2.581 4.471c.306-.197 2.92-1.717 3.238-1.9 9.965-5.753 22.509-2.984 29.199 6.043-.339-.783-.725-1.554-1.161-2.31z" fill="#685e68"/><path d="m339.623 175.208-34.519 19.929c-18.068 10.432-41.386 4.183-51.817-13.885s-4.184-41.385 13.884-51.816l34.52-19.929c25.845-22.968 43.248-57.066 59.191-83.969 2.144-3.619 5.768-5.67 9.974-5.646s7.806 2.116 9.91 5.759l70.271 121.713c2.156 3.735 2.112 8.032-.12 11.722s-6.019 5.723-10.327 5.546c-33.059-1.36-67.76-1.807-100.967 10.576z" fill="#ffe177"/><path d="m256.593 186.076c-1.207-1.499-2.314-3.107-3.305-4.823-10.432-18.067-4.184-41.385 13.884-51.816l34.52-19.929c25.845-22.968 43.248-57.066 59.191-83.969 2.144-3.619 5.768-5.67 9.974-5.646s7.806 2.116 9.91 5.759l70.271 121.713.011.019-64.453-111.636c-2.103-3.643-5.704-5.735-9.909-5.759-4.207-.024-7.83 2.027-9.974 5.646-15.943 26.903-33.346 61.001-59.191 83.969l-34.52 19.929c-16.353 9.441-23.023 29.437-16.409 46.543z" fill="#ffd064"/><path d="m405.329 68.194-24.562-42.543c-2.103-3.643-5.703-5.735-9.909-5.759s-7.83 2.027-9.975 5.646c-2.618 4.417-5.275 9.029-8.002 13.753l72.061 124.814c5.248.122 10.469.313 15.648.526 4.309.177 8.095-1.856 10.328-5.546 2.232-3.69 2.276-7.987.12-11.722l-23.322-40.394z" fill="#fe646f"/><path d="m386.592 35.74-5.826-10.089c-2.103-3.643-5.703-5.735-9.91-5.759-4.206-.024-7.83 2.027-9.974 5.646-2.618 4.417-5.276 9.029-8.003 13.753l5.829 10.097c2.727-4.724 5.385-9.336 8.003-13.753 2.144-3.619 5.768-5.67 9.974-5.646 4.205.024 7.803 2.113 9.907 5.751zm44.504 77.083-3.379-5.853-16.318-28.264z" fill="#fd4755"/><path d="m335.229 167.598-33.538-58.091-34.52 19.93c-18.068 10.432-24.316 33.749-13.885 51.816 10.432 18.068 33.749 24.316 51.817 13.885l10.147-5.859 24.371-14.071z" fill="#fe646f"/><path d="m307.521 119.604-5.829-10.097-34.52 19.93c-18.068 10.432-24.316 33.749-13.885 51.816.991 1.716 2.098 3.325 3.305 4.823-6.613-17.106.056-37.102 16.408-46.543z" fill="#fd4755"/></g></g><path d="m422.256 475.442v-60.823c-18.639 8.393-47.21 11.701-67.214 12.991-2.118 13.942-14.168 24.65-28.712 24.65-14.497 0-26.547-10.699-28.712-24.631-19.957-1.29-48.528-4.589-67.167-13.01v60.823c0 4.801 3.86 8.698 8.661 8.698h174.437c4.8 0 8.707-3.897 8.707-8.698zm-201.454-151.482h26.547c-22.264-28.03-55.777-44.391-92.208-44.4-.047 0-.047 0-.047 0s0 0-.047 0c-57.424.019-105.858 40.898-116.025 96.491h165.258v-35.532c0-9.131 7.39-16.559 16.522-16.559zm-65.755-60.399h.047s0 0 .047 0c30.689-.014 55.682-25.012 55.682-55.729 0-30.731-24.994-55.73-55.729-55.73-30.736 0-55.729 24.999-55.729 55.73-.001 30.717 24.993 55.715 55.682 55.729zm134.758 60.399h73.051v-9.87c0-5.441-4.425-9.861-9.837-9.861h-53.329c-5.46 0-9.884 4.42-9.884 9.861v9.87zm-15.016 15.999v19.821c0 1.478 1.224 2.73 2.683 2.73h97.715c1.459 0 2.73-1.252 2.73-2.73v-19.821zm51.541 70.25c7.202 0 13.038 5.841 13.038 13.029 0 7.183-5.837 13.024-13.038 13.024-7.154 0-13.038-5.841-13.038-13.024 0-7.188 5.883-13.029 13.038-13.029zm105.528-70.25c.282 0 .565.259.565.56v40.701c0 3.031-.753 7.658-7.248 12.991-1.271 1.05-2.777 2.109-4.425 3.139-11.249 7.131-36.337 12.412-67.779 14.37-4.472-10.289-14.733-17.51-26.641-17.51s-22.169 7.22-26.641 17.519c-31.395-1.939-56.483-7.23-67.779-14.38-1.647-1.031-3.107-2.09-4.424-3.139-6.496-5.333-7.249-9.969-7.249-12.991v-40.701c0-.301.283-.56.565-.56h37.985v19.821c0 10.331 8.378 18.728 18.686 18.728h97.715c10.308 0 18.734-8.397 18.734-18.728v-19.821h37.936zm16.568.56v40.701c0 8.538-3.436 16.173-10.167 22.739v71.483c0 13.617-11.108 24.697-24.711 24.697h-174.437c-13.603 0-24.664-11.08-24.664-24.697v-71.483c-3.765-3.648-6.496-7.63-8.143-11.909h-176.555c-2.259 0-4.424-.96-5.931-2.65-1.506-1.69-2.259-3.94-2.024-6.199 3.53-32.689 18.921-62.893 43.445-85.039 15.156-13.711 33.042-23.633 52.293-29.244-20.475-12.638-34.172-35.287-34.172-61.086 0-39.552 32.195-71.733 71.733-71.733s71.733 32.181 71.733 71.733c0 25.798-13.697 48.457-34.172 61.095 10.073 2.942 19.863 7.051 28.994 12.313 18.263 10.459 33.89 25.168 45.469 42.72h6.684v-9.87c0-14.262 11.579-25.86 25.888-25.86h53.329c14.262 0 25.841 11.598 25.841 25.86v9.87h53c9.131 0 16.567 7.428 16.567 16.559zm-4.33-189.061-70.321-121.828c-.706-1.182-1.695-1.76-3.059-1.77-1.365 0-2.354.57-3.06 1.732-1.836 3.139-3.718 6.359-5.648 9.687l67.591 117.06c3.813.113 7.531.254 11.297.414 1.412.047 2.447-.504 3.154-1.704.752-1.2.752-2.382.046-3.591zm-100.963 14.144c22.31-7.263 45.28-9.343 67.873-9.494l-58.271-100.878c-11.438 19.411-24.476 39.618-41.091 55.838zm20.052 66.786-26.594-46.127-10.543 6.081 20.193 35.01c3.435 5.94 10.919 8.109 16.944 5.036zm-62.225-44.038 27.63-15.952-29.983-51.908-27.629 15.947c-6.872 3.982-11.815 10.454-13.933 18.211-2.071 7.762-1.035 15.829 2.965 22.729 4.001 6.891 10.449 11.843 18.216 13.923 7.766 2.082 15.815 1.032 22.734-2.95zm116.118-115.709c5.084-.122 10.12 2.481 12.85 7.211 1.93 3.337 2.447 7.23 1.459 10.958-.376 1.351-.941 2.622-1.647 3.789zm40.856 70.82-19.722-34.172c4.142-3.841 7.107-8.769 8.614-14.342 2.118-7.856 1.035-16.055-3.059-23.097-4.048-7.042-10.591-12.078-18.451-14.182-5.601-1.487-11.344-1.37-16.757.282l-20.946-36.318c-3.483-6.081-9.79-9.734-16.803-9.771-.047 0-.094 0-.094 0-6.966 0-13.274 3.577-16.803 9.578-2.495 4.17-4.942 8.411-7.531 12.911-13.556 23.497-28.947 50.119-49.564 68.702l-33.843 19.529c-10.59 6.119-18.168 16.041-21.369 27.931s-1.553 24.269 4.566 34.869 16.004 18.187 27.912 21.369c4.001 1.073 8.002 1.6 12.05 1.6 7.954 0 15.768-2.08 22.828-6.152l3.201-1.859 20.24 35.01c3.812 6.66 10.073 11.433 17.509 13.434 2.495.668 5.037.998 7.578.998 4.989 0 9.884-1.309 14.309-3.869l6.354-3.653c1.836-1.059 3.154-2.81 3.718-4.857.565-2.052.283-4.232-.8-6.072l-29.747-51.54c28.712-8.637 58.459-8.308 88.913-7.06 7.249.301 13.791-3.219 17.51-9.4 3.764-6.191 3.812-13.619.187-19.869zm26.688-45.102c4.048 1.092 6.448 5.272 5.366 9.334-1.083 4.057-5.272 6.477-9.32 5.385l-15.297-4.1c-4.048-1.087-6.496-5.267-5.366-9.329 1.083-4.057 5.272-6.467 9.32-5.38zm-17.509-31.178c-3.671 2.109-8.331.861-10.402-2.791-2.118-3.639-.847-8.299 2.777-10.398l13.697-7.921c3.671-2.099 8.331-.852 10.402 2.791 2.118 3.639.894 8.298-2.777 10.407zm-43.539-34.101 4.095-15.288c1.083-4.071 5.272-6.481 9.32-5.389 4.095 1.087 6.495 5.267 5.413 9.329l-4.095 15.288c-1.083 4.072-5.272 6.481-9.319 5.389-4.096-1.088-6.497-5.272-5.414-9.329z"/></g></svg>