<svg height="512" viewBox="0 0 512 512" width="512" xmlns="http://www.w3.org/2000/svg"><g id="Layer_1" data-name="Layer 1"><path d="m491.858 197.986c-29.32 143.614-113.996 243.823-235.858 304.157-121.862-60.334-206.538-160.543-235.858-304.157 20.894-45.795 37.258-93.64 49.682-141.425 70.036 33.579 156.427-24.068 186.176-46.704 29.749 22.636 116.14 80.283 186.176 46.7 14.471 51.57 30.155 98.997 49.682 141.429z" fill="#6cf"/><path d="m44.821 200.071c34.929 131.98 78.75 213.108 211.179 302.072-121.862-60.334-206.538-160.543-235.858-304.157 20.894-45.795 37.258-93.64 49.682-141.425 70.036 33.579 156.427-24.068 186.176-46.704-38.893 52.322-96.214 85.214-167.786 74.5-14.357 47.572-22.607 70.607-43.393 115.714z" fill="#4da6ff"/><path d="m256 468.418c-108.911-58.067-177.633-147.839-204.466-267.118a885.693 885.693 0 0 0 38.9-106.831 146.417 146.417 0 0 0 26.427 2.351c53.8 0 105.449-27.313 139.135-50.064 33.689 22.754 85.343 50.068 139.138 50.064a146.454 146.454 0 0 0 26.797-2.42c12.584 41.774 25.088 76.448 38.529 106.923-26.836 119.269-95.56 209.032-204.46 267.095z" fill="#ffdf40"/><path d="m256 468.418c-108.911-58.067-177.633-147.839-204.466-267.118a885.693 885.693 0 0 0 38.9-106.831 146.417 146.417 0 0 0 26.427 2.351c53.8 0 105.449-27.313 139.135-50.064-26.786 43.17-83.893 61.705-146.571 66.205-5.786 41.465-15 56.893-27.429 87.75 12.277 99.025 82.075 185.789 174.004 267.707z" fill="#ffbe40"/><path d="m299.973 312.118a15.7 15.7 0 0 1 -15.419 18.647h-57.108a15.7 15.7 0 0 1 -15.419-18.647l14.877-77.8a47.539 47.539 0 1 1 58.192 0z" fill="#393939"/><path d="m237.732 330.765h-10.286a15.7 15.7 0 0 1 -15.419-18.647l14.877-77.8a47.53 47.53 0 0 1 29.096-85.118 48 48 0 0 1 5.143.282 47.54 47.54 0 0 0 -42.4 47.257c0 13.806 5.913 25.229 16.051 31.655a5.789 5.789 0 0 1 2.621 5.989l-15.107 77.74a15.7 15.7 0 0 0 15.424 18.642z" fill="#343434"/><path d="m498.217 195.059c-17.315-37.625-32.981-82.235-49.3-140.39a7 7 0 0 0 -9.767-4.421c-28.324 13.582-62.866 12.741-102.666-2.5-33.484-12.815-62.142-32.731-76.245-43.462a7 7 0 0 0 -8.478 0c-14.103 10.731-42.761 30.647-76.244 43.466-39.8 15.237-74.341 16.077-102.666 2.5a7 7 0 0 0 -9.8 4.55c-12.961 49.821-29.54 97.019-49.278 140.278a7 7 0 0 0 -.489 4.306c14.511 71.081 42.974 133.747 84.6 186.257 39.849 50.27 92 91.577 155.012 122.773a7 7 0 0 0 6.212 0c63.01-31.2 115.164-72.5 155.012-122.773 41.624-52.51 70.087-115.176 84.6-186.257a7 7 0 0 0 -.503-4.327zm-242.217 299.26c-123.721-62.262-200.6-161.66-228.541-295.514a871.815 871.815 0 0 0 47.052-132.593c30.317 11.76 65.93 9.96 106.011-5.385 32.017-12.258 59.7-30.606 75.478-42.227 15.778 11.621 43.461 29.969 75.478 42.227 40.14 15.368 75.8 17.152 106.141 5.334 15.448 54.1 30.445 96.489 46.92 132.654-27.948 133.842-104.826 233.246-228.539 295.504zm164.651-406.8a139.939 139.939 0 0 1 -25.513 2.3h-.01c-51.95 0-102.2-26.574-135.21-48.865a7 7 0 0 0 -7.836 0c-33 22.291-83.254 48.863-135.218 48.865a139.975 139.975 0 0 1 -25.164-2.233 7 7 0 0 0 -7.975 4.906 880.571 880.571 0 0 1 -38.595 105.985 7 7 0 0 0 -.425 4.362c27.285 121.284 97.267 212.716 208 271.756a7 7 0 0 0 6.586 0c110.728-59.036 180.708-150.459 208-271.731a7.005 7.005 0 0 0 -.424-4.362c-13.3-30.145-25.8-64.857-38.232-106.117a7.007 7.007 0 0 0 -7.984-4.864zm-164.651 372.95c-104.4-56.721-170.7-143.648-197.127-258.469a893.016 893.016 0 0 0 36.518-99.646 156.1 156.1 0 0 0 21.474 1.466c53.451 0 104.509-25.853 139.135-48.65 34.629 22.8 85.686 48.65 139.128 48.65h.011a156.146 156.146 0 0 0 21.874-1.523c11.723 38.307 23.564 71.007 36.109 99.726-26.429 114.808-92.733 201.73-197.122 258.446zm54.539-263.735a54.539 54.539 0 1 0 -91.281 40.295l-14.107 73.771a22.7 22.7 0 0 0 22.295 26.962h57.108a22.7 22.7 0 0 0 22.3-26.961l-14.107-73.775a54.139 54.139 0 0 0 17.792-40.292zm-32.318 38.9 14.877 77.8a8.7 8.7 0 0 1 -8.544 10.332h-57.108a8.7 8.7 0 0 1 -8.544-10.333l14.877-77.8a7 7 0 0 0 -2.586-6.846 40.539 40.539 0 1 1 49.614 0 7 7 0 0 0 -2.586 6.843z"/></g></svg>