<svg viewBox="0 0 64 64" xmlns="http://www.w3.org/2000/svg"><g id="Radio"><path d="m22.94 10.11a22 22 0 0 0 24.87 36.14 21.89 21.89 0 0 0 5.81-4.77 22 22 0 0 0 -30.68-31.37z" fill="#62bcdb"/><path d="m25.42 13.12a18.12 18.12 0 0 0 20.47 29.75 18.09 18.09 0 0 0 4.77-3.94 18.12 18.12 0 0 0 -25.24-25.81z" fill="#f7f7f7"/><g opacity=".3"><path d="m58.8 25.29a22.1 22.1 0 0 0 -19.91-20.11 21.73 21.73 0 0 0 -2.54-.07 22.15 22.15 0 0 0 -4.85.66 24.24 24.24 0 0 1 3.21-.32 19.66 19.66 0 0 1 2.54.08 22 22 0 0 1 14.67 36.28 21.91 21.91 0 0 1 -11.26 7 21.84 21.84 0 0 0 12.89-7.33 21.93 21.93 0 0 0 5.25-16.19z"/></g><g opacity=".3"><path d="m37.88 45.17a18.12 18.12 0 0 1 .26-36.17 18.12 18.12 0 0 0 -2.71 36.13 18.58 18.58 0 0 0 2.79 0z" fill="#62bcdb"/></g><g opacity=".3"><path d="m54.92 25.61a18.17 18.17 0 0 0 -16.39-16.54 17.72 17.72 0 0 0 -2.91 0h.46a18.12 18.12 0 0 1 12.07 29.86 18 18 0 0 1 -12.45 6.25 18 18 0 0 0 14.89-6.25 18.08 18.08 0 0 0 4.33-13.32z" fill="#ffbc00"/></g><path d="m38.79 54.27-1.55 2.36a3.56 3.56 0 0 1 -1.82 1.37h-.11c-.49.1-1 .19-1.47.26s-.89.12-1.34.16l-.87.06h-.41a25.12 25.12 0 0 1 -23.93-35.14 4.33 4.33 0 0 1 .9-1.26 4.24 4.24 0 0 1 1.64-1l2.29-.78.24-.08a3.64 3.64 0 0 1 4.64 2.25l1.18 3.45a3.64 3.64 0 0 1 -2.28 4.62l-1.3.46c-.98 11 5.54 16.59 14.4 18.32l.69-1a3.63 3.63 0 0 1 1.65-1.37l.24-.09a1.68 1.68 0 0 1 .32-.09 1 1 0 0 1 .3 0 3.29 3.29 0 0 1 .54 0 2.81 2.81 0 0 1 .5 0 3.22 3.22 0 0 1 .5.11 3.8 3.8 0 0 1 1 .45l3.05 2a3.64 3.64 0 0 1 1 4.94z" fill="#ffbc00"/><g opacity=".3"><path d="m37.74 49.23-3.05-2a3.63 3.63 0 0 0 -3.39-.32 3.55 3.55 0 0 1 .61.32l3.05 2a3.64 3.64 0 0 1 1 5l-1.55 2.36a3.65 3.65 0 0 1 -1.76 1.41h-.12a23.18 23.18 0 0 1 -3.61.48 24.06 24.06 0 0 0 6.39-.48h.11a3.56 3.56 0 0 0 1.81-1.35l1.55-2.36a3.64 3.64 0 0 0 -1.04-5.06z"/><path d="m29 49.32c-7.29-.52-18.16-7.32-17.18-18.32l1.3-.5a3.64 3.64 0 0 0 2.27-4.62l-1.18-3.45a3.57 3.57 0 0 0 -2.09-2.19l.24-.08a3.64 3.64 0 0 1 4.64 2.31l1.18 3.45a3.64 3.64 0 0 1 -2.28 4.62l-1.3.46c-.98 11 5.54 16.59 14.4 18.32z"/></g><path d="m24.82 49.05a1 1 0 0 1 -.32-.05c-6.61-2.21-10.22-6.87-10.72-13.83a1 1 0 0 1 .92-1.07 1 1 0 0 1 1.07.93c.44 6.16 3.51 10.11 9.37 12.08a1 1 0 0 1 .63 1.26 1 1 0 0 1 -.95.68z"/><path d="m30.23 59.57a26.14 26.14 0 0 1 -23.85-36.64 5.39 5.39 0 0 1 3.13-2.82l2.49-.86a4.65 4.65 0 0 1 5.9 2.9l1.17 3.44a4.65 4.65 0 0 1 -2.89 5.9l-3.45 1.17a1 1 0 0 1 -.65-1.89l3.45-1.17a2.66 2.66 0 0 0 1.65-3.36l-1.18-3.45a2.63 2.63 0 0 0 -1.33-1.52 2.68 2.68 0 0 0 -2-.13l-2.52.86a3.38 3.38 0 0 0 -1.26.78 3.19 3.19 0 0 0 -.68 1 24.09 24.09 0 0 0 26.79 33.28h.05a2.58 2.58 0 0 0 1.31-.95l1.64-2.39a2.64 2.64 0 0 0 -.76-3.66l-3-2a2.57 2.57 0 0 0 -2-.38 2.62 2.62 0 0 0 -1.68 1.14l-2 3a1 1 0 1 1 -1.67-1.09l2-3.05a4.65 4.65 0 0 1 6.43-1.34l3 2a4.64 4.64 0 0 1 1.33 6.43l-1.54 2.36a4.54 4.54 0 0 1 -2.32 1.75h-.12-.12a25 25 0 0 1 -5.32.69z"/><path d="m43 49.15a1 1 0 0 1 -1-.72 1 1 0 0 1 .69-1.24 21 21 0 0 0 -11.1-40.53 20.79 20.79 0 0 0 -8.47 4.5 1 1 0 0 1 -1.32-1.5 23 23 0 1 1 21.47 39.46 1.24 1.24 0 0 1 -.27.03z"/><path d="m17.88 17a1 1 0 0 1 -.88-1.5q.35-.6.72-1.17a1 1 0 0 1 1.41-.33 1 1 0 0 1 .28 1.38q-.35.53-.66 1.08a1 1 0 0 1 -.87.54z"/><path d="m41 45.61a1 1 0 0 1 -1-.78 1 1 0 0 1 .75-1.2l.58-.14a17.13 17.13 0 0 0 7.67-4.32 1 1 0 0 1 1.4 1.43 19 19 0 0 1 -8.48 4.82l-.65.16a.83.83 0 0 1 -.27.03z"/><path d="m53.25 35.86a1 1 0 0 1 -.43-.1 1 1 0 0 1 -.47-1.34 17.08 17.08 0 0 0 -30.71-15 1 1 0 1 1 -1.8-.88 19.09 19.09 0 0 1 34.31 16.76 1 1 0 0 1 -.9.56z"/><path d="m37.05 30a3 3 0 1 1 3-3 3 3 0 0 1 -3 3zm0-3.93a1 1 0 1 0 1 1 1 1 0 0 0 -1-1.02z"/><path d="m26.21 35a1 1 0 0 1 -.84-.46 1 1 0 0 1 .3-1.38l9.18-5.92a1 1 0 0 1 1.09 1.68l-9.19 5.92a1 1 0 0 1 -.54.16z"/><path d="m44.74 33a1 1 0 0 1 -.54-.16l-6-3.92a1 1 0 1 1 1.09-1.68l6 3.92a1 1 0 0 1 .29 1.38 1 1 0 0 1 -.84.46z"/><path d="m37.05 14.65a1 1 0 0 1 -1-1v-1.58a1 1 0 0 1 2 0v1.58a1 1 0 0 1 -1 1z"/><path d="m52 28h-1.58a1 1 0 0 1 0-2h1.58a1 1 0 0 1 0 2z"/><path d="m23.68 28h-1.57a1 1 0 0 1 0-2h1.57a1 1 0 0 1 0 2z"/><path d="m37.05 43a1 1 0 0 1 -1-1v-1.62a1 1 0 0 1 2 0v1.62a1 1 0 0 1 -1 1z"/><circle cx="20.29" cy="12.5" r=".79"/><path d="m49.41 21.11a1 1 0 0 1 -.87-.51 13.31 13.31 0 0 0 -7.7-6.19 1 1 0 0 1 .57-1.91 15.08 15.08 0 0 1 8.87 7.12 1 1 0 0 1 -.38 1.38 1 1 0 0 1 -.49.11z"/><path d="m50.68 24.18a1 1 0 0 1 -1-1 1 1 0 0 1 1.2-1l.19.05a1 1 0 0 1 .17.1.44.44 0 0 1 .15.12 1 1 0 0 1 .3.71 1 1 0 0 1 -.3.7.64.64 0 0 1 -.15.13.91.91 0 0 1 -.17.09.6.6 0 0 1 -.19.06z"/></g></svg>