<svg id="Layer_2" height="60" viewBox="0 0 512 512" width="60" xmlns="http://www.w3.org/2000/svg" xmlns:xlink="http://www.w3.org/1999/xlink" data-name="Layer 2"><linearGradient id="linear-gradient" gradientUnits="userSpaceOnUse" x1="43.95" x2="468.05" y1="43.95" y2="468.05"><stop offset="0" stop-color="
#4084E9"/><stop offset="1" stop-color="#4084E9"/></linearGradient><g id="Icon"><path id="_80" d="m362 0h-212c-82.8 0-150 67.2-150 150v212c0 82.8 67.2 150 150 150h212c82.8 0 150-67.2 150-150v-212c0-82.8-67.2-150-150-150zm140 362c0 77.2-62.8 140-140 140h-212c-77.2 0-140-62.8-140-140v-212c0-77.2 62.8-140 140-140h212c77.2 0 140 62.8 140 140zm-318.93-71.93 64-64c1.91-1.91 2.93-4.47 2.93-7.07 0-1.29-.25-2.59-.76-3.83-1.55-3.74-5.19-6.17-9.24-6.17h-22v-44h76v38c0 5.52 4.48 10 10 10h64c5.52 0 10-4.48 10-10v-112c0-5.52-4.48-10-10-10h-224c-5.52 0-10 4.48-10 10v118h-22c-4.04 0-7.69 2.44-9.24 6.17-.51 1.24-.76 2.54-.76 3.83 0 2.6 1.02 5.16 2.93 7.07l64 64c3.91 3.91 10.24 3.91 14.14 0zm-39.07-71.07v-128h224v112h-64v-48h-96v64h32l-64 64-64-64zm263.07 66.93-64-64c-3.91-3.91-10.24-3.91-14.14 0l-64 64c-1.91 1.91-2.93 4.47-2.93 7.07 0 1.29.25 2.59.76 3.83 1.55 3.74 5.19 6.17 9.24 6.17h22v44h-76v-38c0-5.52-4.48-10-10-10h-64c-5.52 0-10 4.48-10 10v112c0 5.52 4.48 10 10 10h224c5.52 0 10-4.48 10-10v-118h22c4.04 0 7.69-2.44 9.24-6.17.51-1.24.76-2.54.76-3.83 0-2.6-1.02-5.16-2.93-7.07zm-39.07 7.07v128h-224v-112h64v48h96v-64h-32l64-64 64 64z" fill="url(#linear-gradient)" data-name="80"/></g></svg>