<svg xmlns="http://www.w3.org/2000/svg" width="60" height="60" xmlns:xlink="http://www.w3.org/1999/xlink" id="Layer_1" enable-background="new 0 0 512 512" viewBox="0 0 512 512"><linearGradient id="SVGID_1_" gradientUnits="userSpaceOnUse" x1="116.761" x2="395.239" y1="503.394" y2="21.055"><stop offset="0" stop-color="#4084E9"/><stop offset="1" stop-color="#4084E9"/></linearGradient><path d="m476.935 73.436h-51.176c-4.418 0-8 3.582-8 8s3.582 8 8 8h51.176c9.791 0 17.757 7.966 17.757 17.757v284.692h-477.383v-284.692c0-9.792 7.966-17.757 17.758-17.757h51.177c4.418 0 8-3.582 8-8s-3.582-8-8-8h-51.178c-18.614 0-33.758 15.144-33.758 33.757v310.062c0 18.614 15.144 33.757 33.758 33.757h114.046l-24.442 41.941c-2.192 3.762-2.22 8.238-.074 11.973 2.153 3.747 6.155 6.074 10.445 6.074h241.917c4.289 0 8.291-2.327 10.443-6.072 2.146-3.734 2.12-8.21-.072-11.974l-24.44-41.941h114.045c18.613 0 33.757-15.143 33.757-33.757v-310.063c0-18.614-15.143-33.757-33.756-33.757zm-106.931 421.564h-228.007l25.634-43.987h176.74zm106.931-59.988h-441.869c-9.792 0-17.758-7.966-17.758-17.757v-9.371h477.383v9.371c0 9.792-7.965 17.757-17.756 17.757zm-380.453-377.64c-.354-4.404 2.931-8.261 7.335-8.614l35.198-2.825c2.345-.19 4.639.66 6.297 2.317 1.657 1.658 2.505 3.959 2.317 6.296l-2.824 35.198c-.336 4.187-3.838 7.361-7.966 7.361-.215 0-.431-.009-.648-.026-4.404-.353-7.688-4.21-7.335-8.614l1.006-12.533c-24.796 29.562-38.332 66.612-38.332 105.538 0 33.71 10.135 66.117 29.309 93.716 2.521 3.629 1.623 8.614-2.006 11.135-1.392.966-2.982 1.43-4.558 1.43-2.532 0-5.022-1.199-6.577-3.436-21.044-30.293-32.168-65.856-32.168-102.845 0-43.643 15.511-85.135 43.862-117.911l-14.295 1.147c-4.372.354-8.261-2.93-8.615-7.334zm159.519 304.568c-43.644 0-85.134-15.51-117.911-43.861l1.147 14.295c.354 4.404-2.931 8.261-7.335 8.614-.217.018-.434.026-.648.026-4.128 0-7.63-3.174-7.966-7.361l-2.824-35.198c-.188-2.337.66-4.639 2.317-6.296 1.658-1.659 3.963-2.51 6.297-2.317l35.197 2.824c4.404.353 7.688 4.21 7.335 8.614-.354 4.405-4.206 7.686-8.614 7.334l-12.533-1.005c29.562 24.797 66.612 38.332 105.538 38.332 33.711 0 66.117-10.135 93.715-29.308 3.629-2.521 8.613-1.623 11.135 2.005 2.521 3.628 1.623 8.614-2.006 11.134-30.291 21.045-65.854 32.168-102.844 32.168zm137.168-285.32c3.628-2.52 8.612-1.624 11.135 2.006 21.044 30.292 32.167 65.855 32.167 102.844 0 43.643-15.511 85.135-43.862 117.911l14.296-1.147c4.387-.353 8.261 2.93 8.614 7.334s-2.931 8.261-7.335 8.614l-35.198 2.825c-.214.018-.428.026-.64.026-2.113 0-4.15-.837-5.657-2.343-1.657-1.658-2.505-3.959-2.317-6.296l2.824-35.198c.354-4.404 4.22-7.688 8.614-7.334 4.404.353 7.688 4.21 7.335 8.614l-1.006 12.532c24.796-29.562 38.331-66.612 38.331-105.537 0-33.71-10.134-66.117-29.308-93.715-2.519-3.63-1.622-8.615 2.007-11.136zm-242.019-32.318c-2.521-3.629-1.622-8.614 2.006-11.135 30.293-21.044 65.856-32.167 102.845-32.167 43.643 0 85.135 15.51 117.912 43.861l-1.148-14.295c-.354-4.404 2.931-8.261 7.335-8.614 4.386-.359 8.261 2.929 8.614 7.334l2.825 35.198c.188 2.337-.66 4.639-2.317 6.297-1.507 1.506-3.544 2.343-5.657 2.343-.213 0-.426-.008-.64-.026l-35.198-2.824c-4.404-.353-7.688-4.21-7.335-8.614.354-4.405 4.217-7.686 8.614-7.334l12.532 1.006c-29.562-24.796-66.612-38.332-105.537-38.332-33.71 0-66.116 10.134-93.716 29.308-3.628 2.52-8.613 1.623-11.135-2.006zm104.85 5.546c-72.576 0-131.621 59.045-131.621 131.621s59.045 131.622 131.621 131.622 131.622-59.045 131.622-131.621-59.046-131.622-131.622-131.622zm0 247.243c-63.754 0-115.621-51.867-115.621-115.621s51.867-115.622 115.621-115.622 115.622 51.867 115.622 115.621-51.868 115.622-115.622 115.622zm0-218.455c-56.702 0-102.833 46.131-102.833 102.833s46.131 102.833 102.833 102.833c56.703 0 102.834-46.131 102.834-102.833s-46.131-102.833-102.834-102.833zm0 189.666c-47.88 0-86.833-38.953-86.833-86.833s38.953-86.833 86.833-86.833c47.881 0 86.834 38.953 86.834 86.833s-38.953 86.833-86.834 86.833zm15.544-93.96c2.21 3.826.898 8.719-2.928 10.928l-4.615 2.665v5.33c0 4.418-3.582 8-8 8-3.181 0-5.919-1.861-7.209-4.549l-31.377 18.116c-1.26.727-2.636 1.073-3.992 1.073-2.766 0-5.454-1.435-6.936-4.001-2.21-3.826-.898-8.719 2.928-10.928l38.586-22.278v-65.167c0-4.418 3.582-8 8-8s8 3.582 8 8v56.843c2.973-.227 5.953 1.213 7.543 3.968z" fill="url(#SVGID_1_)"/></svg>