<svg id="Layer_1" enable-background="new 0 0 492 492" viewBox="0 0 492 492" xmlns="http://www.w3.org/2000/svg"><g clip-rule="evenodd" fill-rule="evenodd"><path d="m152.37 255.18h62.16c2.6 0 4.72 2.11 4.72 4.72v198.13c0 2.6-2.11 4.72-4.72 4.72h-62.16c-2.6 0-4.72-2.11-4.72-4.72v-198.13c.01-2.61 2.12-4.72 4.72-4.72z" fill="#ffc107"/><path d="m255.3 181.4h62.16c2.6 0 4.72 2.11 4.72 4.72v271.91c0 2.6-2.11 4.72-4.72 4.72h-62.16c-2.6 0-4.72-2.11-4.72-4.72v-271.92c.01-2.6 2.12-4.71 4.72-4.71z" fill="#5c9cee"/><path d="m358.23 224.21h62.16c2.6 0 4.72 2.11 4.72 4.72v229.1c0 2.6-2.11 4.72-4.72 4.72h-62.16c-2.6 0-4.72-2.11-4.72-4.72v-229.1c0-2.61 2.12-4.72 4.72-4.72z" fill="#98db7c"/><path d="m49.45 310.29h62.16c2.6 0 4.72 2.11 4.72 4.72v143.02c0 2.6-2.11 4.72-4.72 4.72h-62.16c-2.6 0-4.72-2.11-4.72-4.72v-143.02c0-2.61 2.11-4.72 4.72-4.72z" fill="#ef5350"/><path d="m57.44 258.7 9.88-102.74 2.06-21.47c.24-2.58 2.54-4.48 5.12-4.24.48.05.93.16 1.35.33l20.02 7.48 67.32 25.15 16.17-68.37 3.89-16.43c.59-2.53 3.12-4.11 5.66-3.52.05.01.1.02.15.04l16.2 4.09 66.79 16.88 4.79-36.52 3.22-24.55c.34-2.57 2.69-4.39 5.27-4.05.71.09 1.37.34 1.94.71l21.21 12.24.01.01v-.01l85.71 49.48 6.78-11.68c1.3-2.25 4.18-3.02 6.43-1.71.76.44 1.35 1.06 1.74 1.77l38 65.82c1.3 2.25.54 5.13-1.71 6.43-.74.43-1.56.63-2.36.63v.01h-76.06c-2.6 0-4.72-2.11-4.72-4.72 0-1.02.32-1.96.87-2.73l9.83-17.03-58.18-33.59-3.77 28.72-2.42 18.49c-.34 2.57-2.69 4.39-5.27 4.05-.18-.02-.36-.06-.53-.1v.01l-18-4.55-69-17.44-16.74 70.77-4.33 18.3c-.59 2.53-3.12 4.11-5.66 3.52-.31-.07-.61-.18-.89-.3l-17.26-6.45-63.99-23.91-7.23 75.16c-.24 2.58-2.54 4.48-5.12 4.24l-32.93-3.11c-2.58-.23-4.48-2.53-4.24-5.11z" fill="#b08cd2"/></g></svg>