<svg id="Layer_1" viewBox="0 0 512 512" xmlns="http://www.w3.org/2000/svg" data-name="Layer 1"><path d="m423.54 215.151h20.013c7.88 0 14.287 6.406 14.287 14.287v53.121c0 7.88-6.406 14.315-14.287 14.315h-20.013c-4.224 17.405-11.112 33.789-20.183 48.699l14.145 14.145c5.584 5.584 5.584 14.655 0 20.239l-37.559 37.559c-5.556 5.556-14.655 5.556-20.211 0l-14.173-14.145c-14.882 9.071-31.266 15.959-48.699 20.183v20.013c0 7.852-6.435 14.287-14.315 14.287h-53.122c-7.852 0-14.287-6.435-14.287-14.287v-20.013c-17.433-4.224-33.817-11.112-48.699-20.183l-14.173 14.145c-5.556 5.556-14.655 5.556-20.211 0l-37.559-37.559c-5.584-5.584-5.584-14.655 0-20.239l14.145-14.145c-9.071-14.91-15.959-31.295-20.211-48.699h-19.984c-7.88 0-14.315-6.435-14.315-14.315v-53.121c0-7.88 6.435-14.287 14.315-14.287h19.984c4.252-17.433 11.112-33.817 20.211-48.728l-14.145-14.145c-5.584-5.584-5.584-14.655 0-20.239l37.559-37.559c5.556-5.556 14.655-5.556 20.211 0l14.173 14.173c14.882-9.071 31.266-15.959 48.699-20.211v-19.984c0-7.88 6.435-14.315 14.287-14.315h53.122c7.88 0 14.315 6.435 14.315 14.315v19.984c17.433 4.224 33.817 11.112 48.699 20.211l14.173-14.173c5.556-5.556 14.655-5.556 20.211 0l37.559 37.559c5.584 5.584 5.584 14.655 0 20.239l-14.145 14.145c9.071 14.91 15.959 31.294 20.183 48.728z" fill="#ffcb5b" fill-rule="evenodd"/><path d="m255.984 380.496c68.57 0 124.498-55.927 124.498-124.498s-55.928-124.498-124.498-124.498-124.498 55.927-124.498 124.498 55.928 124.498 124.498 124.498z" fill="#cad1d8" fill-rule="evenodd"/><path d="m276.932 133.258c58.791 9.978 103.55 61.115 103.55 122.74s-44.759 112.791-103.55 122.74c-58.791-9.95-103.55-61.115-103.55-122.74s44.759-112.762 103.55-122.74z" fill="#e2e5e7" fill-rule="evenodd"/><path d="m322.967 252.88c.708-2.608 1.247-5.244 1.644-7.937.482-3.26.708-6.633.708-10.091 0-19.162-7.738-36.482-20.296-49.039-12.558-12.529-29.877-20.296-49.04-20.296s-36.481 7.767-49.011 20.296c-12.558 12.557-20.325 29.877-20.325 49.039 0 3.458.255 6.832.737 10.091.397 2.693.936 5.329 1.644 7.937h-12.359c-.454-2.041-.851-4.138-1.134-6.236-.567-3.912-.878-7.852-.878-11.792 0-22.479 9.099-42.803 23.839-57.515 14.712-14.712 35.036-23.839 57.486-23.839s42.803 9.127 57.515 23.839c14.74 14.712 23.839 35.036 23.839 57.515 0 3.94-.312 7.88-.879 11.792-.312 2.098-.68 4.195-1.134 6.236h-12.359z" fill="#676873"/><g fill-rule="evenodd"><path d="m351.086 336.332c-8.759-77.301-181.417-77.301-190.205 0 22.847 27.014 56.976 44.164 95.102 44.164s72.284-17.149 95.103-44.164z" fill="#00ade6"/><path d="m351.086 336.332c-3.855-34.101-39.6-53.15-79.115-57.146-56.523 5.754-84.161 35.064-82.035 82.346 19.134 12.019 41.783 18.964 66.047 18.964 38.154 0 72.284-17.149 95.103-44.164z" fill="#11bef7"/><path d="m255.984 184.395c-27.864 0-50.428 22.592-50.428 50.457s22.564 50.457 50.428 50.457 50.457-22.592 50.457-50.457-22.592-50.457-50.457-50.457z" fill="#e2b698"/><path d="m268.258 283.806c21.94-5.499 38.183-25.313 38.183-48.954s-16.243-43.483-38.183-48.954c-21.969 5.471-38.211 25.313-38.211 48.954s16.243 43.455 38.211 48.954z" fill="#efc9ae"/><path d="m175.565 256.48h11.934c2.806 0 5.103-2.296 5.103-5.102v-22.507c0-2.778-2.296-5.074-5.103-5.074h-11.934c-2.778 0-5.074 2.296-5.074 5.074v22.507c0 2.806 2.296 5.102 5.074 5.102z" fill="#11bef7"/></g><path d="m492.847 217.164c-.539-3.26 1.672-6.35 4.932-6.86 3.288-.539 6.35 1.673 6.888 4.932 16.951 103.578-32.06 206.589-122.712 258.945-112.082 64.715-254.551 33.903-330.009-70.413l2.296 19.502c.369 3.288-1.984 6.265-5.272 6.633-3.288.369-6.264-1.984-6.633-5.272l-5.272-44.986c-.567-4.847 4.706-8.362 8.986-5.839l38.976 23.103c2.835 1.672 3.771 5.357 2.098 8.192-1.672 2.863-5.357 3.799-8.192 2.126l-16.979-10.063c71.943 99.043 207.468 128.155 314.022 66.643 69.42-40.082 115.568-113.074 119.735-195.987.851-17.15-.142-34.101-2.863-50.655zm-65.877-102.075c-2.834-1.673-3.77-5.358-2.098-8.192 1.673-2.835 5.358-3.799 8.192-2.098l17.008 10.063c-71.943-99.043-207.496-128.183-314.05-66.671-86.343 49.861-133.002 148.053-116.873 246.642.539 3.26-1.701 6.35-4.96 6.888-3.26.51-6.321-1.701-6.86-4.961-16.951-103.549 32.06-206.588 122.683-258.916 112.082-64.715 254.58-33.931 330.038 70.413l-2.296-19.531c-.397-3.288 1.984-6.236 5.272-6.633 3.288-.368 6.236 1.984 6.633 5.272l5.272 44.986c.567 4.875-4.734 8.362-8.986 5.839l-38.977-23.102z" fill="#11bef7"/><path d="m324.469 256.48h11.962c2.778 0 5.074-2.296 5.074-5.102v-22.507c0-2.778-2.296-5.074-5.074-5.074h-11.962c-2.778 0-5.074 2.296-5.074 5.074v22.507c0 2.806 2.296 5.102 5.074 5.102z" fill="#11bef7" fill-rule="evenodd"/><path d="m499.338 321.195c-17.376 65.027-59.103 119.367-117.383 153.014-38.778 22.394-81.864 33.845-125.546 33.845-21.855 0-43.909-2.863-65.65-8.702-56.523-15.137-104.967-48.643-138.756-95.443l2.239 19.361c.425 3.288-1.927 6.265-5.216 6.661-.227.028-.481.057-.708.057-3.005 0-5.612-2.268-5.981-5.329l-5.272-44.901c-.057-.283-.057-.567-.057-.851v-.17c0-.227 0-.482.057-.737.028-.255.142-.482.17-.737 0-.057.057-.113.057-.17.085-.198.142-.397.227-.595.057-.028.057-.057.057-.085.085-.227.227-.454.369-.68 0-.029.057-.057.057-.114.142-.17.283-.34.425-.51 0-.028.057-.057.085-.113.142-.17.34-.369.539-.539.028 0 .028-.028.028-.028.198-.17.368-.283.567-.425q.057-.028.085-.057c0-.028.057-.057.113-.057.028-.057.085-.085.142-.114.142-.085.284-.142.369-.198.057-.028.085-.057.142-.057.227-.113.482-.198.709-.283.057 0 .085-.028.142-.028.198-.057.425-.113.652-.142 0-.028.057-.028.113-.028.51-.085 1.021-.085 1.502-.028h.17c.255.028.481.085.708.142h.057c.227.085.482.17.708.255.057.028.085.028.142.057.227.085.425.198.624.312 0 .028.028.028.028.028l.057.028.057.028 38.863 23.046c2.835 1.701 3.771 5.386 2.069 8.249-1.644 2.863-5.357 3.798-8.192 2.098l-16.866-10.006c32.145 44.362 78.18 76.11 131.839 90.51 20.693 5.528 41.669 8.277 62.532 8.277 41.556 0 82.573-10.913 119.565-32.23 55.502-32.06 95.188-83.792 111.77-145.701 8.901-33.25 10.658-67.209 5.103-100.914-.539-3.288 1.672-6.378 4.932-6.917 3.288-.539 6.378 1.701 6.917 4.961 5.811 35.405 4.025 71.065-5.357 105.959zm-475.086-127.275c-8.929 33.279-10.63 67.238-5.103 100.913.567 3.288-1.644 6.378-4.96 6.917-.312.057-.652.085-.964.085-2.892 0-5.442-2.098-5.896-5.046-5.839-35.376-4.054-71.036 5.272-105.987 17.434-64.999 59.131-119.339 117.44-152.986 58.28-33.647 126.142-42.605 191.168-25.172 56.494 15.137 104.995 48.642 138.784 95.499l-2.268-19.389c-.369-3.288 1.984-6.293 5.272-6.661 3.317-.397 6.265 1.956 6.662 5.272l5.301 44.901v.085c0 .255.057.51.057.737 0 .057 0 .113-.057.17 0 .255 0 .482-.028.737v.028c-.057.255-.113.482-.198.737 0 .057-.057.113-.057.17-.029.198-.114.368-.227.567 0 .057 0 .085-.028.113-.113.227-.255.454-.34.652-.057.057-.085.085-.085.142-.142.17-.255.34-.396.51-.029.028-.085.057-.085.114-.198.198-.368.368-.567.539l-.057.028c-.17.17-.312.312-.51.425-.057.028-.085.057-.085.057-.057.028-.113.028-.113.057-.085.028-.142.085-.17.113-.142.085-.284.17-.425.227-.057 0-.057.028-.114.057-.227.085-.453.198-.737.255-.057.028-.085.028-.142.057-.227.057-.482.114-.652.142h-.114c-.283.057-.51.057-.793.057h-.142c-.199 0-.369 0-.567-.028-.085 0-.142-.028-.199-.028-.227-.028-.454-.085-.708-.142q-.028 0-.028-.028c-.227-.057-.425-.113-.624-.198-.085-.029-.142-.057-.227-.085-.198-.085-.34-.17-.51-.283q-.057 0-.113-.028l-38.977-23.102c-2.863-1.701-3.798-5.386-2.098-8.249 1.701-2.835 5.415-3.77 8.249-2.098l16.895 10.006c-32.23-44.391-78.265-76.167-131.896-90.539-61.909-16.583-126.567-8.05-182.069 23.981-55.532 32.029-95.189 83.79-111.771 145.699zm152.249 35.886h10.091v20.636h-10.091zm148.904 0h10.091v20.636h-10.091zm28.544 92.778c-4.138-11.339-12.019-21.345-23.159-29.339-10.148-7.285-22.762-12.841-37.105-16.413 4.563-4.11 8.476-8.958 11.537-14.372h31.209c6.066 0 11.083-4.961 11.083-11.083v-22.479c0-6.151-5.017-11.112-11.083-11.112h-.907c-3.657-17.121-12.813-32.684-26.136-44.277-14.797-12.897-33.76-19.984-53.405-19.984s-38.579 7.087-53.376 19.984c-13.352 11.594-22.479 27.156-26.107 44.277h-.907c-6.123 0-11.112 4.96-11.112 11.112v22.479c0 6.123 4.989 11.083 11.112 11.083h11.934c6.123 0 11.055-4.961 11.055-11.083v-22.479c0-5.698-4.28-10.403-9.779-11.055 7.625-30.274 35.376-52.299 67.181-52.299s59.528 22.025 67.209 52.299c-5.527.652-9.808 5.357-9.808 11.055v21.543h-3.146c1.446-4.961 2.239-10.176 2.239-15.619 0-31.124-25.342-56.438-56.495-56.438s-56.438 25.313-56.438 56.438c0 16.668 7.257 31.663 18.737 42.01-14.315 3.572-26.958 9.127-37.077 16.413-11.168 7.994-18.992 18-23.188 29.339-12.897-18.992-20.494-41.896-20.494-66.558 0-65.367 53.149-118.517 118.459-118.517s118.517 53.15 118.517 118.517c0 24.661-7.568 47.565-20.551 66.558zm-56.353-72.142h-12.728c-3.288 0-5.981 2.693-5.981 6.038 0 3.316 2.693 5.981 5.981 5.981h5.896c-8.135 10.233-20.693 16.809-34.781 16.809-24.491 0-44.418-19.927-44.418-44.447s19.927-44.419 44.418-44.419 44.447 19.956 44.447 44.419c0 5.499-.992 10.772-2.834 15.619zm-41.613 124.073c-35.291 0-67.011-15.534-88.724-40.11 4.252-24.52 28.375-42.35 65.367-48.189 7.115 3.26 15.024 5.103 23.357 5.103s16.271-1.843 23.415-5.103c36.963 5.839 61.143 23.669 65.367 48.189-21.713 24.576-53.49 40.11-88.781 40.11zm0-248.995c-71.943 0-130.479 58.535-130.479 130.507 0 31.748 11.395 60.888 30.302 83.537.34.454.652.879 1.077 1.219 23.953 27.978 59.471 45.723 99.099 45.723s75.175-17.745 99.156-45.694c.368-.369.765-.794 1.049-1.247 18.935-22.649 30.331-51.789 30.331-83.537 0-71.972-58.564-130.507-130.536-130.507zm161.745 169.909c-4.054 16.583-10.602 32.4-19.531 47.027-1.446 2.381-1.077 5.442.907 7.398l14.145 14.116c3.232 3.26 3.232 8.504.029 11.764l-37.559 37.531c-3.232 3.232-8.504 3.232-11.764.028l-14.145-14.173c-1.928-1.984-4.989-2.324-7.342-.907-14.655 8.929-30.444 15.506-47.027 19.502-2.693.68-4.592 3.09-4.592 5.839v20.013c0 4.564-3.713 8.277-8.277 8.277h-53.122c-4.62 0-8.333-3.713-8.333-8.277v-20.013c0-2.75-1.871-5.159-4.564-5.811-16.639-4.082-32.485-10.63-46.999-19.531-.992-.567-2.069-.879-3.146-.879-1.559 0-3.062.624-4.252 1.786l-14.116 14.145c-3.26 3.232-8.533 3.232-11.736.028l-37.559-37.559c-3.203-3.26-3.203-8.504 0-11.764l14.145-14.145c1.928-1.956 2.296-4.989.879-7.37-8.958-14.655-15.506-30.472-19.502-46.999-.624-2.721-3.062-4.592-5.839-4.592h-19.984c-4.563 0-8.306-3.742-8.306-8.277v-53.121c0-4.592 3.742-8.334 8.306-8.334h19.984c2.778 0 5.216-1.899 5.839-4.592 3.997-16.526 10.602-32.315 19.502-46.97 1.417-2.381 1.049-5.414-.879-7.37l-14.145-14.145c-3.203-3.231-3.203-8.532 0-11.764l37.559-37.531c3.203-3.231 8.476-3.231 11.736-.028l14.116 14.173c1.984 1.956 5.046 2.324 7.398.879 14.627-8.901 30.416-15.477 46.999-19.474 2.693-.652 4.564-3.09 4.564-5.868v-19.984c0-4.564 3.713-8.306 8.333-8.306h53.122c4.563 0 8.277 3.742 8.277 8.306v19.984c0 2.778 1.899 5.216 4.592 5.868 16.526 3.997 32.372 10.545 47.027 19.474 2.353 1.417 5.414 1.049 7.342-.907l14.145-14.116c3.26-3.231 8.532-3.231 11.764-.028l37.53 37.559c3.232 3.231 3.232 8.532.029 11.735l-14.173 14.173c-1.984 1.956-2.353 4.989-.907 7.37 8.929 14.627 15.477 30.444 19.531 46.998.652 2.693 3.062 4.564 5.839 4.564h19.984c4.563 0 8.277 3.742 8.277 8.334v53.121c0 4.535-3.713 8.277-8.277 8.277h-19.984c-2.778 0-5.188 1.871-5.839 4.564zm25.824 7.427c11.197 0 20.296-9.099 20.296-20.268v-53.121c0-11.225-9.099-20.353-20.296-20.353h-15.335c-3.997-14.57-9.78-28.545-17.32-41.726l10.885-10.857c7.852-7.909 7.852-20.806 0-28.715l-37.559-37.587c-7.937-7.88-20.835-7.88-28.744.028l-10.856 10.828c-13.181-7.54-27.184-13.351-41.754-17.292v-15.335c0-11.197-9.127-20.324-20.296-20.324h-53.122c-11.197 0-20.353 9.127-20.353 20.324v15.335c-14.57 3.969-28.545 9.78-41.698 17.32l-10.885-10.885c-7.909-7.88-20.778-7.88-28.744.028l-37.559 37.559c-7.88 7.909-7.88 20.806 0 28.743l10.885 10.828c-7.54 13.181-13.379 27.184-17.292 41.726h-15.364c-11.225 0-20.324 9.127-20.324 20.353v53.121c0 11.168 9.099 20.268 20.324 20.268h15.364c3.912 14.598 9.694 28.602 17.292 41.783l-10.885 10.857c-7.88 7.909-7.88 20.806 0 28.715l37.616 37.587c7.909 7.88 20.778 7.88 28.687-.029l10.885-10.857c13.096 7.512 27.099 13.323 41.698 17.32v15.335c0 11.197 9.156 20.296 20.353 20.296h53.122c11.168 0 20.296-9.099 20.296-20.296v-15.335c14.57-3.969 28.602-9.78 41.754-17.32l10.856 10.885c7.909 7.88 20.807 7.88 28.744-.029l37.559-37.559c7.852-7.909 7.852-20.806 0-28.743l-10.885-10.828c7.54-13.181 13.323-27.184 17.32-41.783h15.335z"/></svg>