<svg id="Layer_1" height="36" width="36" enable-background="new 0 0 512 512" viewBox="0 0 512 512" xmlns="http://www.w3.org/2000/svg"><g clip-rule="evenodd" fill-rule="evenodd"><g><g><path d="m297.619 303.665h-30.091v17.287c0 6.27 5.13 11.4 11.4 11.4h14.795c6.27 0 11.4-5.13 11.4-11.4v-17.287z" fill="#b1b1b5"/><path d="m255.583 281.451.252 16.699c.095 6.271 5.13 11.4 11.401 11.4h38.178c6.27 0 11.494-5.13 11.4-11.4l-.252-16.705c-19.912.628-40.942.006-60.979.006z" fill="#d1d1d6"/><path d="m327.835 263.947c3.375-57.433 28.266-55.104 28.266-94.068 0-38.746-31.41-70.157-70.157-70.157s-70.157 31.41-70.157 70.157c0 38.964 24.891 36.635 28.266 94.068 1.503 11.344 7.986 13.902 11.735 13.902 55.833 0 65.722 5.513 72.047-13.902z" fill="#ffe177"/><path d="m327.835 263.947c3.375-57.433 28.266-55.104 28.266-94.068 0-38.746-31.41-70.157-70.157-70.157-1.308 0-2.608.039-3.898.11 36.933 2.023 66.258 32.609 66.258 70.047 0 38.964-24.89 36.635-28.266 94.068-3.755 11.526-8.766 14.267-23.9 14.591 21.346.313 27.36-1.279 31.697-14.591z" fill="#ffd064"/><path d="m297.619 309.55h7.796c6.27 0 11.494-5.13 11.4-11.4l-.252-16.705c-2.581.081-5.18.142-7.794.185l.25 16.519c.094 6.271-5.13 11.401-11.4 11.401z" fill="#b1b1b5"/><path d="m244.054 263.947v11.402c0 6.271 5.13 11.4 11.4 11.4h60.981c6.27 0 11.399-5.13 11.399-11.4l.001-11.401z" fill="#eceff1"/><path d="m308.638 286.749h7.797c6.27 0 11.399-5.13 11.399-11.4l.001-11.401h-7.797l-.001 11.401c.001 6.27-5.129 11.4-11.399 11.4z" fill="#d1d1d6"/></g><g><path d="m88.882 386.988 73.697-42.698c13.831-8.013 27.895-13.695 43.098-8.763 16.95 5.496 44.627 17.3 72.854 22.39 10.477 3.397 17.009 13.888 14.159 24.525-2.851 10.639-11.84 16.124-24.525 14.162l9.867 1.579c11.307 1.808 21.691.26 31.587-5.502l70.856-41.27c55.078-32.078 63.168 17.272 44.855 28.547l-128.586 79.178c-11.826 7.28-24.767 8.98-38.183 5.384l-93.268-24.991-34.54 19.942c-6.641 3.834-15.185 1.545-19.019-5.096l-27.931-48.378c-3.83-6.635-1.55-15.168 5.079-19.009z" fill="#f6dccd"/><path d="m291.009 386.856c-3.938 7.697-12.054 11.418-22.844 9.749-15.278-4.04-30.538-8.182-45.803-12.272-4.089-1.096-6.515-5.298-5.42-9.387 1.096-4.089 5.298-6.515 9.387-5.42z" fill="#f1cbbc"/><path d="m88.882 386.988 73.698-42.697c13.831-8.013 27.895-13.695 43.098-8.763 9.068 2.94 21.208 7.686 34.859 12.243l-142.763 82.424-13.971-24.197c-3.83-6.636-1.55-15.169 5.079-19.01z" fill="#f1cbbc"/><path d="m97.44 365.75 58.448 103.273c2.826 4.993 1.052 11.391-3.941 14.217l-19.88 11.251c-4.993 2.826-11.391 1.053-14.217-3.941l-58.449-103.272c-2.826-4.993-1.052-11.391 3.941-14.217l19.88-11.251c4.994-2.827 11.392-1.054 14.218 3.94z" fill="#d1d1d6"/><path d="m128.181 436.705 10.345 18.279 10.23 18.076c2.82 4.983 1.06 11.365-3.91 14.2l7.102-4.019c4.993-2.826 6.767-9.224 3.941-14.217l-10.264-18.137-20.611-36.417-20.634-36.458-6.939-12.26c-2.448-4.326-7.577-6.234-12.151-4.83l12.014 21.227 20.611 36.418 10.265 18.137z" fill="#b1b1b5"/></g></g><path d="m368.885 258.625 27.308 27.275-.848-7.156c-.471-4.388 2.684-8.348 7.062-8.842 4.426-.49 8.381 2.665 8.851 7.053l3.39 29.869c.235 2.444-.612 4.878-2.354 6.601-1.507 1.479-3.531 2.293-5.603 2.293-.376 0-.706-.023-1.036-.066l-29.803-3.898c-4.379-.574-7.486-4.59-6.921-8.969s4.614-7.467 8.993-6.898l6.451.848-26.79-26.794c-3.108-3.122-3.108-8.188 0-11.314 3.107-3.124 8.192-3.124 11.3-.002zm-80.834-250.521h-3.653c-1.717.406-3.283 1.382-4.405 2.801l-18.786 23.49c-2.731 3.456-2.166 8.489 1.271 11.248 3.484 2.754 8.475 2.189 11.253-1.267l4.473-5.631v38.575c0 4.416 3.625 7.999 8.004 7.999 4.426 0 8.004-3.583 8.004-7.999v-37.897l4.002 5.174c1.554 2.048 3.955 3.121 6.309 3.121 1.742 0 3.437-.537 4.897-1.657 3.484-2.693 4.143-7.717 1.459-11.215l-18.315-23.833c-1.141-1.476-2.741-2.492-4.513-2.909zm176.835 178.932c-.047 2.458-1.177 4.774-3.155 6.271l-23.824 18.32c-1.459 1.116-3.154 1.657-4.849 1.657-2.401 0-4.802-1.078-6.356-3.126-2.684-3.503-2.025-8.527 1.46-11.22l5.179-3.974h-37.901c-4.426 0-8.004-3.583-8.004-7.999 0-4.421 3.578-8.004 8.004-8.004h38.56l-5.603-4.487c-3.437-2.754-4.049-7.787-1.271-11.243 2.731-3.456 7.769-4.021 11.253-1.267l23.494 18.748c1.93 1.531 3.013 3.866 3.013 6.324zm-107.019-71.857c-3.107-3.126-3.107-8.192 0-11.314l27.308-27.275-7.156.805c-4.426.499-8.381-2.665-8.852-7.058-.518-4.388 2.637-8.348 7.062-8.842l29.85-3.357c2.448-.273 4.897.589 6.592 2.34 1.742 1.756 2.542 4.204 2.26 6.643l-3.908 29.803c-.518 4.03-3.955 6.964-7.91 6.964-.377 0-.706-.023-1.083-.066-4.379-.575-7.439-4.591-6.874-8.969l.848-6.469-26.79 26.795c-1.601 1.563-3.626 2.34-5.65 2.34-2.071 0-4.096-.777-5.697-2.34zm-143.743 154.459-27.261 27.275 7.157-.805c4.379-.494 8.334 2.665 8.851 7.053.471 4.393-2.684 8.353-7.062 8.847l-29.85 3.362c-.33.033-.612.047-.895.047-2.166 0-4.237-.852-5.744-2.396-1.695-1.751-2.542-4.2-2.213-6.639l3.908-29.803c.565-4.379 4.567-7.467 8.946-6.897 4.379.574 7.486 4.59 6.921 8.969l-.848 6.469 26.79-26.794c3.108-3.122 8.192-3.126 11.3 0 3.155 3.124 3.155 8.185 0 11.312zm-106.971-83.172c0-2.458 1.177-4.77 3.107-6.271l23.824-18.32c3.531-2.693 8.522-2.034 11.253 1.469 2.684 3.503 2.024 8.527-1.46 11.22l-5.179 3.974h37.902c4.379 0 7.957 3.583 7.957 7.999s-3.578 7.999-7.957 7.999h-38.608l5.65 4.492c3.437 2.755 4.002 7.788 1.271 11.243-1.601 1.977-3.908 3.014-6.262 3.014-1.742 0-3.531-.575-4.991-1.747l-23.494-18.743c-1.93-1.54-3.06-3.871-3.013-6.329zm50.237-119.787c-.283-2.444.612-4.878 2.354-6.601s4.19-2.542 6.638-2.227l29.804 3.898c4.379.574 7.486 4.586 6.921 8.969-.612 4.379-4.614 7.467-8.993 6.898l-6.45-.848 26.79 26.795c3.107 3.121 3.107 8.188 0 11.314-1.601 1.559-3.625 2.34-5.65 2.34-2.072 0-4.096-.782-5.697-2.34l-27.261-27.275.8 7.157c.518 4.388-2.637 8.348-7.062 8.842-.283.038-.565.052-.895.052-4.002 0-7.486-3.018-7.91-7.105zm-67.799 319.2c.565 3.927-2.166 7.581-6.074 8.155-3.955.575-7.58-2.147-8.192-6.074-.565-3.931 2.166-7.58 6.121-8.155 3.908-.573 7.58 2.143 8.145 6.074zm334.521-12.086-130.23 80.2c-9.934 6.116-20.858 7.642-32.44 4.539l-94.447-25.311c-2.072-.551-4.238-.264-6.074.8l-12.948 7.467-33.9-59.917 52.073-30.171c11.676-6.738 24.248-12.392 37.195-8.188 4.332 1.408 9.369 3.22 15.16 5.32 16.715 6.041 37.478 13.55 59.089 17.515 6.591 2.368 10.311 8.738 8.616 15.005-1.789 6.662-6.733 9.558-14.784 8.654-10.453-2.161-20.434-5.01-31.028-8.027-5.038-1.441-10.264-2.933-15.631-4.369-4.237-1.139-8.616 1.389-9.793 5.655-1.13 4.27 1.413 8.659 5.697 9.802 5.226 1.403 10.358 2.877 15.349 4.294 10.97 3.141 21.376 6.107 32.581 8.395.047.014.094.014.141.023.047.01.094.028.188.038l8.899 1.45c13.748 2.194 25.942.052 37.289-6.559l71.801-41.805c19.445-11.352 34.935-12.825 40.303-3.847 3.627 6.085 2.027 15.869-3.106 19.037zm-277.833 102.377c1.177-.687 1.648-2.288.942-3.498l-59.183-104.604c-.471-.824-1.365-1.295-2.26-1.295-.424 0-.848.104-1.224.32l-20.151 11.399c-1.224.687-1.648 2.288-.989 3.498l59.23 104.608c.659 1.21 2.26 1.653 3.484.97zm232.587-131.394-71.801 41.805c-2.307 1.342-4.614 2.42-7.015 3.24.659-1.455 1.177-2.999 1.648-4.629 3.861-14.529-4.755-29.695-19.633-34.521-.33-.108-.659-.198-1.036-.259-20.481-3.701-40.773-11.032-57.064-16.926-5.697-2.062-11.111-4.002-15.679-5.49-18.974-6.158-36.018 1.375-50.143 9.562l-51.979 30.086-4.19-7.458c-2.448-4.308-6.45-7.411-11.206-8.734-4.802-1.333-9.793-.721-14.125 1.718l-20.104 11.4c-8.946 5.043-12.053 16.389-7.015 25.302l59.183 104.603c2.448 4.308 6.403 7.411 11.206 8.734 1.648.461 3.343.687 4.991.687 3.155 0 6.309-.814 9.134-2.406l20.104-11.399c8.899-5.043 12.053-16.39 7.015-25.302l-5.32-9.379 10.217-5.881 91.246 24.46c5.226 1.393 10.405 2.09 15.537 2.09 10.311 0 20.292-2.844 29.426-8.46l130.23-80.2c12.571-7.75 16.62-27.237 8.475-40.882-3.955-6.596-20.151-26.215-62.102-1.761zm-72.742-166.027v-8.301c0-4.577 3.72-8.301 8.287-8.301 4.614 0 8.333 3.724 8.333 8.301 0 4.576-3.719 8.301-8.333 8.301zm-20.104-70.972c-34.276 0-62.149 27.882-62.149 62.153 0 15.942 4.567 23.772 10.358 33.678 6.544 11.173 14.548 24.859 17.279 52.393h14.407v-61.25h-8.334c-13.372 0-24.295-10.904-24.295-24.304s10.923-24.304 24.295-24.304c13.418 0 24.294 10.904 24.294 24.304v8.301h8.239v-8.301c0-13.4 10.923-24.304 24.295-24.304 13.419 0 24.342 10.904 24.342 24.304s-10.923 24.304-24.342 24.304h-8.287v61.25h14.36c2.778-27.534 10.782-41.221 17.326-52.393 5.791-9.906 10.358-17.736 10.358-33.678.002-34.27-27.871-62.153-62.146-62.153zm7.391 216.627h-14.784c-1.836 0-3.39-1.554-3.39-3.399v-3.399h21.564v3.399c0 1.845-1.553 3.399-3.39 3.399zm11.677-22.802h-38.184c-1.836 0-3.39-1.554-3.39-3.4v-3.399h45.011v3.399c0 1.846-1.601 3.4-3.437 3.4zm14.831-29.601v3.399c0 1.846-1.554 3.404-3.39 3.404h-61.019c-1.836 0-3.39-1.559-3.39-3.404v-3.399zm-29.803-15.999h-8.239v-61.25h8.239zm-24.201-77.253h-8.334c-4.567 0-8.287-3.724-8.287-8.301s3.719-8.301 8.287-8.301c4.614 0 8.334 3.724 8.334 8.301zm-45.482 32.939c6.874 11.752 13.984 23.904 15.678 52.572v11.14c0 7.844 4.708 14.6 11.394 17.656v5.146c0 7.957 4.85 14.808 11.724 17.797v5.005c0 10.697 8.71 19.403 19.398 19.403h14.784c10.688 0 19.398-8.706 19.398-19.403v-5.004c6.874-2.99 11.676-9.84 11.676-17.797v-5.146c6.733-3.056 11.441-9.812 11.441-17.656v-11.14c1.695-28.668 8.804-40.82 15.678-52.572 6.168-10.561 12.571-21.479 12.571-41.758 0-43.094-35.076-78.157-78.157-78.157s-78.157 35.063-78.157 78.157c.002 20.278 6.405 31.197 12.572 41.757z" fill="#242222"/></g></svg>