<svg version="1.1" id="Capa_1" xmlns="http://www.w3.org/2000/svg" xmlns:xlink="http://www.w3.org/1999/xlink" x="0px" y="0px" viewBox="0 0 512.63 512.63" style="enable-background:new 0 0 512.63 512.63;" xml:space="preserve" width="60" height="60" xmlns:svgjs="http://svgjs.dev/svgjs"><g width="60px" height="60px" transform="matrix(1,0,0,1,0,0)"><g>
	<g>
		<g>
			<g>
				<g>
					<g>
						<g>
							<g>
								
									<rect x="256.054" y="33.747" style="stroke-linecap: round; stroke-linejoin: round; stroke-miterlimit: 10;" width="241.153" height="194.921" fill="none" fill-opacity="1" stroke="#4084e9" stroke-opacity="1" data-original-stroke-color="#000000ff" stroke-width="15" data-original-stroke-width="30"/>
								
									<line style="stroke-linecap: round; stroke-linejoin: round; stroke-miterlimit: 10;" x1="316.25" y1="50.048" x2="316.25" y2="15.265" fill="none" fill-opacity="1" stroke="#4084e9" stroke-opacity="1" data-original-stroke-color="#000000ff" stroke-width="15" data-original-stroke-width="30"/>
								
									<line style="stroke-linecap: round; stroke-linejoin: round; stroke-miterlimit: 10;" x1="436.25" y1="50.048" x2="436.25" y2="15.265" fill="none" fill-opacity="1" stroke="#4084e9" stroke-opacity="1" data-original-stroke-color="#000000ff" stroke-width="15" data-original-stroke-width="30"/>
								
									<line style="stroke-linecap: round; stroke-linejoin: round; stroke-miterlimit: 10;" x1="376.25" y1="50.048" x2="376.25" y2="15.265" fill="none" fill-opacity="1" stroke="#4084e9" stroke-opacity="1" data-original-stroke-color="#000000ff" stroke-width="15" data-original-stroke-width="30"/>
							</g>
						</g>
						<g>
							
								<line style="stroke-linecap: round; stroke-linejoin: round; stroke-miterlimit: 10;" x1="436.25" y1="169.072" x2="436.25" y2="169.072" fill="none" fill-opacity="1" stroke="#4084e9" stroke-opacity="1" data-original-stroke-color="#000000ff" stroke-width="15" data-original-stroke-width="30"/>
							
								<line style="stroke-linecap: round; stroke-linejoin: round; stroke-miterlimit: 10;" x1="376.25" y1="169.072" x2="376.25" y2="169.072" fill="none" fill-opacity="1" stroke="#4084e9" stroke-opacity="1" data-original-stroke-color="#000000ff" stroke-width="15" data-original-stroke-width="30"/>
							
								<line style="stroke-linecap: round; stroke-linejoin: round; stroke-miterlimit: 10;" x1="316.25" y1="169.072" x2="316.25" y2="169.072" fill="none" fill-opacity="1" stroke="#4084e9" stroke-opacity="1" data-original-stroke-color="#000000ff" stroke-width="15" data-original-stroke-width="30"/>
							
								<line style="stroke-linecap: round; stroke-linejoin: round; stroke-miterlimit: 10;" x1="436.25" y1="109.072" x2="436.25" y2="109.072" fill="none" fill-opacity="1" stroke="#4084e9" stroke-opacity="1" data-original-stroke-color="#000000ff" stroke-width="15" data-original-stroke-width="30"/>
							
								<line style="stroke-linecap: round; stroke-linejoin: round; stroke-miterlimit: 10;" x1="376.25" y1="109.072" x2="376.25" y2="109.072" fill="none" fill-opacity="1" stroke="#4084e9" stroke-opacity="1" data-original-stroke-color="#000000ff" stroke-width="15" data-original-stroke-width="30"/>
							
								<line style="stroke-linecap: round; stroke-linejoin: round; stroke-miterlimit: 10;" x1="316.25" y1="109.072" x2="316.25" y2="109.072" fill="none" fill-opacity="1" stroke="#4084e9" stroke-opacity="1" data-original-stroke-color="#000000ff" stroke-width="15" data-original-stroke-width="30"/>
						</g>
					</g>
				</g>
			</g>
		</g>
		<g>
			<g>
				
					<polyline style="stroke-linecap: round; stroke-linejoin: round; stroke-miterlimit: 10;" points="&#10;&#9;&#9;&#9;&#9;&#9;178.592,15.327 197.792,38.958 178.592,62.589 &#9;&#9;&#9;&#9;" fill="none" fill-opacity="1" stroke="#4084e9" stroke-opacity="1" data-original-stroke-color="#000000ff" stroke-width="15" data-original-stroke-width="30"/>
			</g>
			<path style="stroke-linecap: round; stroke-linejoin: round; stroke-miterlimit: 10;" d="&#10;&#9;&#9;&#9;&#9;M197.792,38.958h-19.308c-90.17,0-163.267,73.097-163.267,163.267v48.259" fill="none" fill-opacity="1" stroke="#4084e9" stroke-opacity="1" data-original-stroke-color="#000000ff" stroke-width="15" data-original-stroke-width="30"/>
		</g>
	</g>
	<g>
		
			<ellipse transform="matrix(0.7071 -0.7071 0.7071 0.7071 -223.3886 207.3524)" style="stroke-linecap: round; stroke-linejoin: round; stroke-miterlimit: 10;" cx="138.602" cy="373.33" rx="123.602" ry="123.602" fill="none" fill-opacity="1" stroke="#4084e9" stroke-opacity="1" data-original-stroke-color="#000000ff" stroke-width="15" data-original-stroke-width="30"/>
		<g>
			<path style="stroke-linecap: round; stroke-linejoin: round; stroke-miterlimit: 10;" d="&#10;&#9;&#9;&#9;&#9;M164.525,338.045c0,0-15.949-13.407-34.757-7.741c-17.27,5.202-19.685,25.115-7.191,33.261c0,0,12.26,5.469,25.858,10.485&#10;&#9;&#9;&#9;&#9;c32.733,12.074,18.633,43.741-7.718,43.741c-13.196,0-24.271-5.779-30.974-13.176" fill="none" fill-opacity="1" stroke="#4084e9" stroke-opacity="1" data-original-stroke-color="#000000ff" stroke-width="15" data-original-stroke-width="30"/>
			
				<line style="stroke-linecap: round; stroke-linejoin: round; stroke-miterlimit: 10;" x1="138.602" y1="417.741" x2="138.602" y2="435.682" fill="none" fill-opacity="1" stroke="#4084e9" stroke-opacity="1" data-original-stroke-color="#000000ff" stroke-width="15" data-original-stroke-width="30"/>
			
				<line style="stroke-linecap: round; stroke-linejoin: round; stroke-miterlimit: 10;" x1="138.602" y1="310.978" x2="138.602" y2="328.92" fill="none" fill-opacity="1" stroke="#4084e9" stroke-opacity="1" data-original-stroke-color="#000000ff" stroke-width="15" data-original-stroke-width="30"/>
		</g>
	</g>
	<g>
		
			<ellipse transform="matrix(0.0825 -0.9966 0.9966 0.0825 40.39 706.5834)" style="stroke-linecap: round; stroke-linejoin: round; stroke-miterlimit: 10;" cx="403.934" cy="331.356" rx="44.762" ry="44.762" fill="none" fill-opacity="1" stroke="#4084e9" stroke-opacity="1" data-original-stroke-color="#000000ff" stroke-width="15" data-original-stroke-width="30"/>
		<g>
			<path style="stroke-linecap: round; stroke-linejoin: round; stroke-miterlimit: 10;" d="&#10;&#9;&#9;&#9;&#9;M494.614,452.538c-5.518-30.69-32.224-53.024-63.407-53.024H376.66c-31.183,0-57.889,22.333-63.407,53.024l-3.016,44.827H497.63&#10;&#9;&#9;&#9;&#9;L494.614,452.538z" fill="none" fill-opacity="1" stroke="#4084e9" stroke-opacity="1" data-original-stroke-color="#000000ff" stroke-width="15" data-original-stroke-width="30"/>
		</g>
	</g>
</g><g>
</g><g>
</g><g>
</g><g>
</g><g>
</g><g>
</g><g>
</g><g>
</g><g>
</g><g>
</g><g>
</g><g>
</g><g>
</g><g>
</g><g>
</g></g></svg>