<?xml version="1.0" encoding="UTF-8" standalone="no"?>
<!-- Created with Inkscape (http://www.inkscape.org/) -->

<svg
   version="1.1"
   id="svg2199"
   xml:space="preserve"
   width="682.66669"
   height="682.66669"
   viewBox="0 0 682.66669 682.66669"
   xmlns="http://www.w3.org/2000/svg"
   xmlns:svg="http://www.w3.org/2000/svg"><defs
     id="defs2203"><clipPath
       clipPathUnits="userSpaceOnUse"
       id="clipPath2213"><path
         d="M 0,512 H 512 V 0 H 0 Z"
         id="path2211" /></clipPath></defs><g
     id="g2205"
     transform="matrix(1.3333333,0,0,-1.3333333,0,682.66667)"><g
       id="g2207"><g
         id="g2209"
         clip-path="url(#clipPath2213)"><g
           id="g2215"
           transform="translate(42.9521,351.0947)"><path
             d="m 0,0 c 6.003,-8.166 16.112,-13.646 29.506,-12.036 20.077,20.371 14.13,42.267 -1.36,56.987 H 22.115 C -7.391,44.951 -12.431,16.811 0,0"
             style="fill:#ffbc85;fill-opacity:1;fill-rule:evenodd;stroke:none"
             id="path2217" /></g><g
           id="g2219"
           transform="translate(246.6611,395.792)"><path
             d="m 0,0 c -18.349,-12.149 -19.454,-39.555 -1.359,-56.733 -0.029,-0.085 -0.029,-0.17 -0.057,-0.255 13.394,-1.61 23.503,3.9 29.506,12.036 C 40.521,-28.112 35.48,0 5.975,0 Z"
             style="fill:#ffbc85;fill-opacity:1;fill-rule:evenodd;stroke:none"
             id="path2221" /></g><g
           id="g2223"
           transform="translate(83.2749,227.8242)"><path
             d="m 0,0 -11.327,-5.17 c -24.21,-11.104 -61.05,-26.87 -64.25,-77.839 v -107.476 h 302.562 v 52.269 l -8.013,7.77 c -41.682,40.459 -48.705,84.986 -36.217,116.658 l -32.196,14.41 z"
             style="fill:#f9f7f8;fill-opacity:1;fill-rule:evenodd;stroke:none"
             id="path2225" /></g><g
           id="g2227"
           transform="translate(158.8799,276.8159)"><path
             d="M 0,0 C -15.234,0 -29.562,3.927 -42.078,10.793 V -53.568 L -0.34,-75.38 42.079,-53.568 V 10.793 C 29.562,3.927 15.206,0 0,0"
             style="fill:#fed1a3;fill-opacity:1;fill-rule:evenodd;stroke:none"
             id="path2229" /></g><g
           id="g2231"
           transform="translate(180.1738,204.4868)"><path
             d="M 0,0 -21.634,16.896 -44.995,-1.469 v -55.885 c 0,-3.956 3.228,-7.177 7.193,-7.177 h 32.989 c 3.964,0 7.22,3.221 7.22,7.177 v 55.489 z"
             style="fill:#beb9dd;fill-opacity:1;fill-rule:evenodd;stroke:none"
             id="path2233" /></g><g
           id="g2235"
           transform="translate(158.54,221.3828)"><path
             d="M 0,0 -41.738,21.812 -75.265,6.441 -57.001,-44.754 Z"
             style="fill:#dddaec;fill-opacity:1;fill-rule:evenodd;stroke:none"
             id="path2237" /></g><g
           id="g2239"
           transform="translate(200.9585,243.1943)"><path
             d="m 0,0 -42.418,-21.812 21.633,-16.896 35.425,-27.66 18.235,51.619 z"
             style="fill:#dddaec;fill-opacity:1;fill-rule:evenodd;stroke:none"
             id="path2241" /></g><g
           id="g2243"
           transform="translate(223.9229,200.3901)"><path
             d="M 0,0 9.911,28.056 -22.964,42.804 -39.303,34.385 C -36.755,32.802 -8.58,11.612 0,0"
             style="fill:#beb9dd;fill-opacity:1;fill-rule:evenodd;stroke:none"
             id="path2245" /></g><g
           id="g2247"
           transform="translate(233.834,228.4458)"><path
             d="m 0,0 -9.911,-28.056 c 44.797,-55.603 26.844,-142.708 20.218,-163.051 h 66.119 v 52.269 l -8.013,7.77 C 26.73,-90.609 19.708,-46.082 32.196,-14.409 Z"
             style="fill:#dddaec;fill-opacity:1;fill-rule:evenodd;stroke:none"
             id="path2249" /></g><g
           id="g2251"
           transform="translate(116.8018,256.4453)"><path
             d="m 0,0 c 19.935,-5.34 43.211,-11.499 61.957,-4.464 6.654,2.486 5.861,0.876 5.861,-6.809 V -21.67 l 16.339,8.419 V 21.19 C 71.641,14.325 57.284,10.425 42.078,10.425 26.844,10.425 12.516,14.325 0,21.19 Z"
             style="fill:#ffbc85;fill-opacity:1;fill-rule:evenodd;stroke:none"
             id="path2253" /></g><g
           id="g2255"
           transform="translate(197.9282,483.293)"><path
             d="m 0,0 c -1.359,-20.06 -7.051,-39.527 -16.338,-53.427 23.785,-2.289 64.674,-30.684 65.071,-62.836 v 29.016 8.872 C 48.733,-44.132 28.798,-14.409 0,0"
             style="fill:#2b4d66;fill-opacity:1;fill-rule:evenodd;stroke:none"
             id="path2257" /></g><g
           id="g2259"
           transform="translate(181.5898,429.8657)"><path
             d="m 0,0 c 9.288,13.9 14.979,33.367 16.338,53.427 -12.204,6.103 -26.05,9.437 -40.633,9.183 -47.544,-0.819 -86.196,-39.923 -86.196,-87.558 v -8.872 c 25.655,-0.621 77.247,0.622 102.024,23.734 C -5.38,-7.205 -2.548,-3.814 0,0"
             style="fill:#375e7d;fill-opacity:1;fill-rule:evenodd;stroke:none"
             id="path2261" /></g><g
           id="g2263"
           transform="translate(246.6611,367.0298)"><path
             d="M 0,0 C -0.396,32.152 -41.286,60.547 -65.071,62.836 -67.62,59.021 -70.452,55.631 -73.538,52.75 -98.315,29.638 -149.908,28.395 -175.562,29.016 v -41.589 c 0,-7.007 0.821,-13.816 2.407,-20.343 5.833,-24.27 21.86,-44.697 43.296,-56.479 12.515,-6.865 26.843,-10.764 42.078,-10.764 15.206,0 29.562,3.899 42.078,10.764 12.743,7.007 23.588,17.094 31.516,29.215 5.38,8.25 9.401,17.432 11.78,27.264 C -0.85,-26.389 0,-19.58 0,-12.573 v 11.612 z"
             style="fill:#ffe5c1;fill-opacity:1;fill-rule:evenodd;stroke:none"
             id="path2265" /></g><g
           id="g2267"
           transform="translate(192.2935,427.4922)"><path
             d="m 0,0 c 16.678,-11.273 32.96,-29.412 32.96,-50.63 0,-23.055 -0.793,-38.736 -14.186,-59.22 -7.9,-12.121 -18.746,-22.207 -31.516,-29.214 -21.549,-11.838 -47.147,-14.042 -70.367,-6.074 2.435,-1.695 4.984,-3.278 7.617,-4.719 12.516,-6.865 26.844,-10.765 42.078,-10.765 15.206,0 29.563,3.9 42.079,10.765 12.742,7.007 23.587,17.094 31.516,29.214 5.38,8.25 9.401,17.433 11.78,27.265 0.396,1.61 0.736,3.277 1.047,4.944 0.878,5.001 1.36,10.143 1.36,15.399 v 12.573 C 54.028,-32.746 23.645,-7.854 0,0"
             style="fill:#fed1a3;fill-opacity:1;fill-rule:evenodd;stroke:none"
             id="path2269" /></g><g
           id="g2271"
           transform="translate(246.6611,404.9175)"><path
             d="m 0,0 v -50.46 c 0,-48.173 -39.501,-87.587 -87.781,-87.587 -48.28,0 -87.781,39.414 -87.781,87.587 V 0 c 0,47.636 38.652,86.739 86.195,87.558 C -40.464,88.406 0,48.794 0,0 Z"
             style="fill:none;stroke:#000000;stroke-width:15;stroke-linecap:round;stroke-linejoin:round;stroke-miterlimit:10;stroke-dasharray:none;stroke-opacity:1"
             id="path2273" /></g><g
           id="g2275"
           transform="translate(116.8018,243.1943)"><path
             d="M 0,0 41.738,-21.812 -15.263,-66.565 -33.64,-15.087"
             style="fill:none;stroke:#000000;stroke-width:15;stroke-linecap:round;stroke-linejoin:round;stroke-miterlimit:10;stroke-dasharray:none;stroke-opacity:1"
             id="path2277" /></g><g
           id="g2279"
           transform="translate(200.9585,243.1943)"><path
             d="M 0,0 -42.418,-21.812 14.64,-66.368 32.875,-14.749"
             style="fill:none;stroke:#000000;stroke-width:15;stroke-linecap:round;stroke-linejoin:round;stroke-miterlimit:10;stroke-dasharray:none;stroke-opacity:1"
             id="path2281" /></g><g
           id="g2283"
           transform="translate(481.3481,311.6528)"><path
             d="m 0,0 h -94.86 l -20.105,-27.18 -22.03,46.872 -25.683,-35.288 L -176.638,0 h -68.243"
             style="fill:none;stroke:#000000;stroke-width:15;stroke-linecap:round;stroke-linejoin:round;stroke-miterlimit:10;stroke-dasharray:none;stroke-opacity:1"
             id="path2285" /></g><g
           id="g2287"
           transform="translate(266.0298,214.0366)"><path
             d="m 0,0 c -12.488,-31.672 -5.465,-76.2 36.217,-116.659 l 8.013,-7.77 72.208,-70.097 80.248,77.867 c 26.929,26.163 39.389,54.021 41.484,78.997 v 14.975 C 233.356,33.48 174.486,68.063 116.438,19.212 66.742,61.028 16.423,41.702 0,0"
             style="fill:#eb5468;fill-opacity:1;fill-rule:evenodd;stroke:none"
             id="path2289" /></g><g
           id="g2291"
           transform="translate(434.4844,256.417)"><path
             d="m 0,0 c 20.417,-10.454 34.575,-32.04 36.812,-58.428 v -14.947 c -2.067,-24.976 -14.527,-52.862 -41.484,-78.997 l -67.195,-65.237 19.85,-19.297 80.248,77.867 c 26.93,26.163 39.389,54.02 41.484,78.997 v 14.974 C 66.374,-26.106 37.038,2.458 0,0"
             style="fill:#e5384f;fill-opacity:1;fill-rule:evenodd;stroke:none"
             id="path2293" /></g><g
           id="g2295"
           transform="translate(328.8921,164.4233)"><path
             d="m 0,0 v -33.509 c 0,-1.61 1.303,-2.91 2.917,-2.91 h 30.95 v -30.909 c 0,-1.582 1.331,-2.91 2.916,-2.91 h 33.584 c 1.614,0 2.916,1.328 2.916,2.91 v 30.909 h 30.979 c 1.613,0 2.916,1.3 2.916,2.91 V 0 c 0,1.61 -1.303,2.91 -2.916,2.91 H 73.283 v 30.91 c 0,1.61 -1.302,2.909 -2.916,2.909 H 36.783 c -1.585,0 -2.916,-1.299 -2.916,-2.909 V 2.91 H 2.917 C 1.303,2.91 0,1.61 0,0"
             style="fill:#f9f7f8;fill-opacity:1;fill-rule:evenodd;stroke:none"
             id="path2297" /></g><g
           id="g2299"
           transform="translate(399.2588,201.1528)"><path
             d="m 0,0 h -22.37 c 3.851,-16.952 6.059,-37.012 6.059,-58.541 0,-17.376 -1.443,-33.82 -4.02,-48.427 H 0 c 1.614,0 2.917,1.328 2.917,2.91 v 30.91 h 30.978 c 1.614,0 2.917,1.299 2.917,2.91 v 33.509 c 0,1.61 -1.303,2.91 -2.917,2.91 H 2.917 V -2.91 C 2.917,-1.299 1.614,0 0,0"
             style="fill:#dddaec;fill-opacity:1;fill-rule:evenodd;stroke:none"
             id="path2301" /></g><g
           id="g2303"
           transform="translate(382.4673,233.249)"><path
             d="M 0,0 C -87.441,73.601 -176.78,-42.154 -80.221,-135.871 L 0,-213.738 80.249,-135.871 C 176.78,-42.154 87.441,73.601 0,0 Z"
             style="fill:none;stroke:#000000;stroke-width:15;stroke-linecap:round;stroke-linejoin:round;stroke-miterlimit:10;stroke-dasharray:none;stroke-opacity:1"
             id="path2305" /></g><g
           id="g2307"
           transform="translate(365.6753,201.1528)"><path
             d="M 0,0 H 33.583 C 35.198,0 36.5,-1.299 36.5,-2.91 v -30.909 h 30.979 c 1.613,0 2.916,-1.3 2.916,-2.91 v -33.509 c 0,-1.611 -1.303,-2.91 -2.916,-2.91 H 36.5 v -30.91 c 0,-1.582 -1.302,-2.91 -2.917,-2.91 H 0 c -1.585,0 -2.917,1.328 -2.917,2.91 v 30.91 h -30.949 c -1.614,0 -2.917,1.299 -2.917,2.91 v 33.509 c 0,1.61 1.303,2.91 2.917,2.91 H -2.917 V -2.91 C -2.917,-1.299 -1.585,0 0,0 Z"
             style="fill:none;stroke:#000000;stroke-width:15;stroke-linecap:round;stroke-linejoin:round;stroke-miterlimit:10;stroke-dasharray:none;stroke-opacity:1"
             id="path2309" /></g><g
           id="g2311"
           transform="translate(135.1792,203.0176)"><path
             d="m 0,0 v -55.885 c 0,-3.956 3.228,-7.177 7.192,-7.177 h 32.989 c 3.965,0 7.221,3.221 7.221,7.177 v 55.489 l -2.407,1.865"
             style="fill:none;stroke:#000000;stroke-width:15;stroke-linecap:round;stroke-linejoin:round;stroke-miterlimit:10;stroke-dasharray:none;stroke-opacity:1"
             id="path2313" /></g><g
           id="g2315"
           transform="translate(197.9282,483.293)"><path
             d="m 0,0 c -1.755,-25.598 -10.534,-50.207 -24.805,-63.514 -24.777,-23.111 -76.37,-24.355 -102.025,-23.733"
             style="fill:none;stroke:#000000;stroke-width:15;stroke-linecap:round;stroke-linejoin:round;stroke-miterlimit:10;stroke-dasharray:none;stroke-opacity:1"
             id="path2317" /></g><g
           id="g2319"
           transform="translate(181.5898,429.8657)"><path
             d="M 0,0 C 24.041,-2.317 65.468,-31.22 65.071,-63.797"
             style="fill:none;stroke:#000000;stroke-width:15;stroke-linecap:round;stroke-linejoin:round;stroke-miterlimit:10;stroke-dasharray:none;stroke-opacity:1"
             id="path2321" /></g><g
           id="g2323"
           transform="translate(245.2451,338.8042)"><path
             d="M 0,0 C 13.394,-1.61 23.503,3.899 29.506,12.036 41.937,28.875 36.896,56.988 7.391,56.988 H 1.359"
             style="fill:none;stroke:#000000;stroke-width:15;stroke-linecap:round;stroke-linejoin:round;stroke-miterlimit:10;stroke-dasharray:none;stroke-opacity:1"
             id="path2325" /></g><g
           id="g2327"
           transform="translate(72.458,339.0586)"><path
             d="m 0,0 c -13.394,-1.61 -23.502,3.871 -29.506,12.036 -12.431,16.811 -7.39,44.951 22.115,44.951 h 6.032"
             style="fill:none;stroke:#000000;stroke-width:15;stroke-linecap:round;stroke-linejoin:round;stroke-miterlimit:10;stroke-dasharray:none;stroke-opacity:1"
             id="path2329" /></g><g
           id="g2331"
           transform="translate(63.5386,88.167)"><path
             d="M 0,0 V -50.828"
             style="fill:none;stroke:#000000;stroke-width:15;stroke-linecap:round;stroke-linejoin:round;stroke-miterlimit:10;stroke-dasharray:none;stroke-opacity:1"
             id="path2333" /></g><g
           id="g2335"
           transform="translate(254.2217,88.167)"><path
             d="M 0,0 V -50.828"
             style="fill:none;stroke:#000000;stroke-width:15;stroke-linecap:round;stroke-linejoin:round;stroke-miterlimit:10;stroke-dasharray:none;stroke-opacity:1"
             id="path2337" /></g><g
           id="g2339"
           transform="translate(158.8799,172.2212)"><path
             d="M 0,0 H -0.198"
             style="fill:none;stroke:#000000;stroke-width:15;stroke-linecap:round;stroke-linejoin:round;stroke-miterlimit:10;stroke-dasharray:none;stroke-opacity:1"
             id="path2341" /></g><g
           id="g2343"
           transform="translate(266.0298,214.0366)"><path
             d="M 0,0 -65.071,29.158 V 63.627 M -89.849,-176.698 H 44.23 v 52.269 m -302.76,-15.793 v -36.476 h 134.079 M -149.228,63.627 V 29.158 L -194.082,8.617 c -25.343,-11.612 -64.448,-28.338 -64.448,-85.071 v -29.242"
             style="fill:none;stroke:#000000;stroke-width:15;stroke-linecap:round;stroke-linejoin:round;stroke-miterlimit:10;stroke-dasharray:none;stroke-opacity:1"
             id="path2345" /></g></g></g></g></svg>
