<svg height="36" viewBox="-41 0 512 512.00055" width="36" xmlns="http://www.w3.org/2000/svg"><path d="m27.722656 24.59375v263.546875c0 2.210937 1.792969 4.007813 4.007813 4.007813h179.886719c2.214843 0 4.007812-1.792969 4.007812-4.007813v-263.546875c0-2.210938-1.792969-4.007812-4.007812-4.007812h-179.886719c-2.214844.003906-4.007813 1.796874-4.007813 4.007812zm0 0" fill="#8cbafa"/><path d="m64.445312 20.589844h35.96875v271.558594h-35.96875zm0 0" fill="#575b7a"/><path d="m263.988281 9.210938-128.648437 183.730468c-1.269532 1.8125-.832032 4.3125.984375 5.582032l151.355469 105.984374c1.8125 1.269532 4.3125.828126 5.582031-.984374l128.648437-183.730469c1.273438-1.8125.832032-4.3125-.980468-5.582031l-151.359376-105.984376c-1.816406-1.265624-4.3125-.828124-5.582031.984376zm0 0" fill="#aed559"/><path d="m420.929688 114.210938-18.601563-13.023438c1.59375 1.117188 1.859375 3.492188.585937 5.304688l-128.648437 183.730468c-1.269531 1.8125-3.589844 2.375-5.1875 1.257813l18.601563 13.027343c1.8125 1.269532 4.3125.828126 5.582031-.984374l128.648437-183.730469c1.269532-1.8125.832032-4.3125-.980468-5.582031zm0 0" fill="#7fab38"/><path d="m300.671875 124.894531c-20.066406-14.050781-52.148437-2.847656-71.660156 25.019531-19.511719 27.867188-19.066407 61.847657 1 75.894532 20.0625 14.050781 52.144531 2.847656 71.65625-25.019532 19.515625-27.867187 19.066406-61.847656-.996094-75.894531zm0 0" fill="#ffeb96"/><path d="m7.5 203.253906v225.796875c0 16.289063 13.203125 29.488281 29.488281 29.488281h325.855469c16.289062 0 29.488281-13.203124 29.488281-29.488281v-225.796875c0-16.289062-13.203125-29.488281-29.488281-29.488281h-325.855469c-16.285156 0-29.488281 13.203125-29.488281 29.488281zm0 0" fill="#f28f88"/><path d="m362.84375 173.765625h-24.894531c16.285156 0 29.488281 13.203125 29.488281 29.488281v225.796875c0 16.285157-13.203125 29.488281-29.488281 29.488281h24.894531c16.289062 0 29.492188-13.203124 29.492188-29.488281v-225.796875c-.003907-16.285156-13.203126-29.488281-29.492188-29.488281zm0 0" fill="#ce675d"/><path d="m390.9375 362.519531h-59.792969c-25.609375 0-46.367187-20.757812-46.367187-46.367187s20.757812-46.367188 46.367187-46.367188h59.792969c17.136719 0 31.027344 13.890625 31.027344 31.027344v30.679688c0 17.136718-13.890625 31.027343-31.027344 31.027343zm0 0" fill="#ffd2c0"/><path d="m390.9375 340.210938h-59.792969c-21.761719 0-40.015625-14.996094-45.007812-35.214844-.882813 3.574218-1.359375 7.308594-1.359375 11.15625 0 25.609375 20.757812 46.367187 46.367187 46.367187h59.792969c17.136719 0 31.027344-13.890625 31.027344-31.027343v-22.3125c0 17.140624-13.890625 31.03125-31.027344 31.03125zm0 0" fill="#edaa9d"/><path d="m353.371094 316.152344c0 11.21875-9.09375 20.308594-20.3125 20.308594-11.214844 0-20.308594-9.089844-20.308594-20.308594 0-11.214844 9.09375-20.308594 20.308594-20.308594 11.21875 0 20.3125 9.09375 20.3125 20.308594zm0 0" fill="#ce675d"/><path d="m283.027344 421.390625c0 45.898437-37.210938 83.109375-83.109375 83.109375-45.902344 0-83.113281-37.210938-83.113281-83.109375 0-45.902344 37.210937-83.109375 83.113281-83.109375 45.898437 0 83.109375 37.207031 83.109375 83.109375zm0 0" fill="#ffcd34"/><path d="m236.550781 346.78125c15.851563 15.136719 25.746094 36.460938 25.746094 60.109375 0 45.898437-37.210937 83.109375-83.109375 83.109375-13.152344 0-25.582031-3.066406-36.632812-8.503906 14.917968 14.242187 35.109374 23.003906 57.363281 23.003906 45.898437 0 83.109375-37.210938 83.109375-83.109375 0-32.75-18.949219-61.066406-46.476563-74.609375zm0 0" fill="#e69012"/><path d="m289.921875 40.371094c-1.726563-1.210938-3.882813-1.640625-5.9375-1.179688-2.058594.460938-3.824219 1.765625-4.871094 3.59375-.050781.089844-.113281.171875-.167969.253906-2.40625 3.4375-7.160156 4.273438-10.597656 1.871094-3.394531-2.375-8.070312-1.554687-10.445312 1.839844l-10.929688 15.613281c-2.375 3.394531-1.550781 8.070313 1.839844 10.445313 1.3125.917968 2.8125 1.359375 4.296875 1.359375 2.363281 0 4.691406-1.117188 6.148437-3.199219l7.363282-10.519531c6.914062 1.925781 14.425781.441406 20.089844-4.019531l11.0625 7.746093c3.394531 2.375 8.066406 1.550781 10.445312-1.839843 2.375-3.394532 1.550781-8.070313-1.84375-10.445313zm0 0"/><path d="m372.863281 134.84375-7.363281 10.515625c-2.375 3.394531-1.550781 8.070313 1.839844 10.445313 1.3125.917968 2.8125 1.355468 4.296875 1.355468 2.363281 0 4.691406-1.113281 6.148437-3.199218l10.933594-15.609376c2.375-3.394531 1.550781-8.070312-1.839844-10.445312-3.4375-2.40625-4.277344-7.160156-1.867187-10.601562.058593-.082032.113281-.164063.179687-.238282 1.359375-1.613281 1.980469-3.71875 1.707032-5.808594-.269532-2.089843-1.40625-3.972656-3.132813-5.179687l-16.453125-11.519531c-3.394531-2.375-8.070312-1.550782-10.445312 1.84375-2.378907 3.390625-1.550782 8.070312 1.839843 10.445312l11.0625 7.742188c-2.257812 6.851562-1.082031 14.414062 3.09375 20.253906zm0 0"/><path d="m333.0625 303.339844c3.5625 0 6.871094 1.425781 9.316406 4.019531 2.84375 3.007813 7.589844 3.144531 10.601563.300781 3.015625-2.84375 3.148437-7.589844.304687-10.601562-5.230468-5.539063-12.601562-8.71875-20.222656-8.71875-15.335938 0-27.808594 12.476562-27.808594 27.8125 0 15.332031 12.472656 27.808594 27.808594 27.808594 7.429688 0 14.414062-2.890626 19.664062-8.144532 2.929688-2.929687 2.929688-7.679687 0-10.605468-2.925781-2.929688-7.675781-2.929688-10.605468 0-2.417969 2.417968-5.636719 3.75-9.058594 3.75-7.0625 0-12.808594-5.746094-12.808594-12.808594 0-7.066406 5.746094-12.8125 12.808594-12.8125zm0 0"/><path d="m399.839844 263.320312v-60.070312c0-20.394531-16.59375-36.988281-36.988282-36.988281h-39.800781c2.328125-20.109375-4.238281-37.796875-18.089843-47.496094-11.734376-8.214844-26.9375-9.6875-42.8125-4.148437-15.003907 5.238281-28.960938 16.246093-39.289063 30.996093-4.574219 6.527344-8.214844 13.449219-10.855469 20.648438h-48.828125l104.953125-149.886719 145.636719 101.972656-22.1875 31.691406c-2.375 3.394532-1.550781 8.070313 1.839844 10.445313 3.394531 2.375 8.070312 1.550781 10.445312-1.84375l24.1875-34.542969c3.644531-5.191406 2.382813-12.382812-2.816406-16.03125l-151.355469-105.976562c-2.515625-1.765625-5.570312-2.445313-8.597656-1.914063-3.027344.535157-5.664062 2.210938-7.433594 4.730469l-34.714844 49.582031v-29.898437c0-6.347656-5.164062-11.511719-11.511718-11.511719h-179.890625c-6.347657 0-11.511719 5.164063-11.511719 11.511719v41.058594c0 4.144531 3.359375 7.5 7.5 7.5 4.144531 0 7.5-3.355469 7.5-7.5v-37.566407h21.730469v138.175781h-19.960938c-.589843 0-1.179687.015626-1.769531.042969v-70.652343c0-4.140626-3.355469-7.5-7.5-7.5-4.140625 0-7.5 3.359374-7.5 7.5v74.636718c-11.988281 6.125-20.21875 18.601563-20.21875 32.964844v225.800781c0 20.394531 16.59375 36.988281 36.988281 36.988281h56c4.144531 0 7.5-3.355468 7.5-7.5 0-4.140624-3.355469-7.5-7.5-7.5h-56c-12.125 0-21.988281-9.863281-21.988281-21.988281v-225.800781c0-9.609375 6.195312-17.796875 14.796875-20.78125.191406-.054688.382813-.117188.566406-.1875 2.09375-.664062 4.320313-1.023438 6.628907-1.023438h325.859374c12.125 0 21.992188 9.867188 21.992188 21.992188v59.03125h-53.695312c-29.703126 0-53.871094 24.164062-53.871094 53.871094 0 29.703125 24.167968 53.867187 53.871094 53.867187h53.695312v59.03125c0 12.125-9.867188 21.988281-21.992188 21.988281h-57.308593c-4.144531 0-7.5 3.359376-7.5 7.5 0 4.144532 3.355469 7.5 7.5 7.5h57.308593c20.394532 0 36.992188-16.59375 36.992188-36.988281v-60.070312c16.96875-4.027344 29.628906-19.308594 29.628906-37.488281v-30.679688c-.003906-18.183594-12.664062-33.464844-29.632812-37.492188zm-164.695313-109.097656c17.105469-24.429687 44.566407-34.820312 61.214844-23.167968 9.589844 6.714843 13.8125 19.890624 11.566406 35.203124h-79.710937c1.902344-4.140624 4.214844-8.167968 6.929687-12.035156zm-27.011719-78.3125-63.265624 90.351563h-36.957032v-138.183594h100.222656zm-136.183593-47.832031h20.960937v138.179687h-20.960937zm342.519531 303.410156c0 12.976563-10.554688 23.53125-23.53125 23.53125h-59.789062c-21.433594 0-38.871094-17.4375-38.871094-38.871093 0-21.429688 17.4375-38.867188 38.871094-38.867188h59.789062c12.976562 0 23.53125 10.554688 23.53125 23.53125zm0 0"/><path d="m199.917969 330.777344c-49.960938 0-90.609375 40.648437-90.609375 90.613281 0 49.960937 40.648437 90.609375 90.609375 90.609375 49.964843 0 90.613281-40.648438 90.613281-90.609375 0-49.964844-40.648438-90.613281-90.613281-90.613281zm0 166.222656c-41.691407 0-75.609375-33.917969-75.609375-75.609375 0-41.695313 33.917968-75.613281 75.609375-75.613281 41.695312 0 75.613281 33.917968 75.613281 75.613281 0 41.691406-33.917969 75.609375-75.613281 75.609375zm0 0"/><path d="m206.316406 413.890625h-12.792968c-3.769532 0-6.835938-3.066406-6.835938-6.835937 0-3.769532 3.066406-6.835938 6.835938-6.835938h24.480468c4.140625 0 7.5-3.359375 7.5-7.5s-3.359375-7.5-7.5-7.5h-9.207031v-6.339844c0-4.140625-3.359375-7.5-7.5-7.5s-7.5 3.359375-7.5 7.5v6.339844h-.273437c-12.039063 0-21.835938 9.796875-21.835938 21.835938 0 12.039062 9.796875 21.835937 21.835938 21.835937h12.792968c3.769532 0 6.832032 3.0625 6.832032 6.832031 0 3.769532-3.0625 6.835938-6.832032 6.835938h-24.480468c-4.144532 0-7.5 3.359375-7.5 7.5s3.355468 7.5 7.5 7.5h11.960937v6.339844c0 4.140624 3.359375 7.5 7.5 7.5 4.144531 0 7.5-3.359376 7.5-7.5v-6.480469c10.875-1.238281 19.355469-10.492188 19.355469-21.695313-.003906-12.039062-9.796875-21.832031-21.835938-21.832031zm0 0"/></svg>