<svg height="512pt" viewBox="0 0 512 512.00101" width="512pt" xmlns="http://www.w3.org/2000/svg"><path d="m502 151.464844v-42.925782h-21.828125c-2.582031-11.835937-7.242187-22.894531-13.589844-32.765624l15.445313-15.449219-30.351563-30.355469-15.445312 15.449219c-9.875-6.347657-20.933594-11.007813-32.765625-13.589844v-21.828125h-42.929688v21.804688c-11.851562 2.566406-22.925781 7.21875-32.8125 13.5625l-15.398437-15.398438-30.355469 30.355469 15.371094 15.371093c-6.371094 9.894532-11.046875 20.976563-13.636719 32.839844h-21.707031v42.929688h21.679687c2.578125 11.882812 7.246094 22.980468 13.613281 32.890625l-15.320312 15.320312 30.355469 30.355469 15.320312-15.320312c9.910157 6.367187 21.007813 11.035156 32.890625 13.613281v21.679687h42.925782v-21.707031c11.867187-2.589844 22.949218-7.265625 32.84375-13.636719l15.371093 15.371094 30.351563-30.355469-15.394532-15.394531c6.34375-9.890625 10.996094-20.964844 13.566407-32.816406zm0 0" fill="#4dbaf6"/><path d="m437.9375 130.0625c0 30.929688-25.070312 56-56 56s-56-25.070312-56-56c0-30.925781 25.070312-56 56-56s56 25.074219 56 56zm0 0" fill="#fff"/><path d="m160.925781 183.566406 26.703125-26.707031c24.523438-24.519531 24.523438-64.277344 0-88.792969l-39.671875-39.675781c-24.519531-24.519531-64.273437-24.519531-88.792969 0-57.863281 57.859375-65.570312 149.007813-18.25 215.761719 62.304688 87.902344 139.035157 164.628906 226.933594 226.933594 66.753906 47.320312 157.902344 39.609374 215.761719-18.25 24.519531-24.519532 24.519531-64.273438 0-88.792969l-39.671875-39.671875c-24.523438-24.523438-64.277344-24.523438-88.796875 0l-26.703125 26.703125c-13.941406 13.941406-36.214844 14.945312-51.351562 2.3125-42.964844-35.855469-82.617188-75.507813-118.472657-118.472657-12.632812-15.136718-11.628906-37.410156 2.3125-51.347656zm0 0" fill="#72d8ff"/><path d="m483.609375 364.042969-39.671875-39.671875c-24.519531-24.519532-64.273438-24.519532-88.792969 0l-8.722656 8.722656 128.144531 128.144531c3.09375-2.671875 6.113282-5.46875 9.042969-8.398437 24.519531-24.523438 24.519531-64.277344 0-88.796875zm0 0" fill="#fff"/><path d="m178.90625 165.582031 8.722656-8.722656c24.523438-24.519531 24.523438-64.277344 0-88.792969l-39.671875-39.675781c-24.519531-24.519531-64.273437-24.519531-88.792969 0-2.933593 2.929687-5.726562 5.953125-8.402343 9.046875zm0 0" fill="#fff"/><path d="m502 98.535156h-14.078125c-2.183594-7.351562-5.117187-14.433594-8.785156-21.175781l9.964843-9.964844c3.90625-3.902343 3.90625-10.234375 0-14.140625l-30.355468-30.355468c-3.902344-3.898438-10.234375-3.902344-14.140625 0l-9.964844 9.964843c-6.742187-3.664062-13.824219-6.601562-21.179687-8.78125v-14.082031c0-5.523438-4.476563-10-10-10h-42.925782c-5.523437 0-10 4.476562-10 10v14.042969c-7.371094 2.175781-14.46875 5.109375-21.222656 8.773437l-9.917969-9.917968c-3.90625-3.902344-10.238281-3.902344-14.144531 0l-30.355469 30.355468c-3.902343 3.90625-3.902343 10.238282 0 14.144532l9.882813 9.882812c-3.683594 6.765625-6.636719 13.871094-8.824219 21.257812h-13.957031c-5.523438 0-10 4.476563-10 10v42.925782c0 5.523437 4.476562 10 10 10h13.921875c2.183593 7.398437 5.132812 14.523437 8.816406 21.304687l-9.839844 9.839844c-3.902343 3.902344-3.902343 10.234375 0 14.140625l30.355469 30.355469c3.90625 3.902343 10.234375 3.902343 14.144531 0l9.835938-9.839844c6.78125 3.6875 13.90625 6.632813 21.304687 8.820313v13.917968c0 5.519532 4.476563 10 10 10h42.925782c5.523437 0 10-4.480468 10-10v-13.957031c7.386718-2.191406 14.492187-5.140625 21.261718-8.828125l9.882813 9.882812c3.90625 3.90625 10.234375 3.90625 14.140625 0l30.355468-30.351562c3.90625-3.90625 3.90625-10.238281 0-14.144531l-9.917968-9.917969c3.664062-6.753906 6.597656-13.855469 8.773437-21.222656h14.042969c5.523438 0 10-4.476563 10-10v-42.929688c0-5.519531-4.476562-10-10-10zm-10 42.929688h-11.800781c-4.707031 0-8.777344 3.28125-9.773438 7.882812-2.285156 10.527344-6.390625 20.464844-12.210937 29.535156-2.535156 3.957032-1.976563 9.144532 1.347656 12.46875l8.324219 8.328126-16.210938 16.210937-8.300781-8.300781c-3.328125-3.328125-8.527344-3.886719-12.484375-1.335938-9.074219 5.84375-19.019531 9.972656-29.558594 12.269532-4.59375 1.003906-7.867187 5.070312-7.867187 9.773437v11.707031h-22.929688v-11.679687c0-4.707031-3.28125-8.777344-7.882812-9.773438-10.550782-2.289062-20.507813-6.410156-29.601563-12.253906-3.953125-2.542969-9.152343-1.984375-12.476562 1.339844l-8.253907 8.253906-16.210937-16.210937 8.253906-8.253907c3.324219-3.324219 3.882813-8.519531 1.339844-12.476562-5.84375-9.09375-9.964844-19.050781-12.253906-29.605469-.996094-4.597656-5.066407-7.878906-9.773438-7.878906h-11.679687v-22.929688h11.707031c4.703125 0 8.769531-3.273437 9.769531-7.867187 2.300782-10.535157 6.429688-20.480469 12.273438-29.558594 2.550781-3.957031 1.992187-9.15625-1.335938-12.484375l-8.300781-8.300781 16.210937-16.210938 8.328126 8.324219c3.324218 3.324219 8.515624 3.882812 12.46875 1.347656 9.070312-5.820312 19.007812-9.925781 29.535156-12.210937 4.601562-.996094 7.882812-5.066407 7.882812-9.773438v-11.800781h22.925782v11.828125c0 4.703125 3.277343 8.769531 7.871093 9.773437 10.511719 2.292969 20.433594 6.40625 29.488281 12.226563 3.957032 2.546875 9.152344 1.988281 12.480469-1.339844l8.375-8.375 16.210938 16.210938-8.375 8.375c-3.324219 3.328125-3.882813 8.523437-1.339844 12.480469 5.820313 9.058593 9.933594 18.980468 12.226563 29.492187 1.003906 4.589844 5.070312 7.867187 9.773437 7.867187h11.828125zm0 0"/><path d="m381.9375 64.0625c-36.390625 0-66 29.605469-66 66s29.609375 66 66 66c36.394531 0 66-29.605469 66-66s-29.605469-66-66-66zm0 112c-25.363281 0-46-20.636719-46-46s20.636719-46 46-46 46 20.636719 46 46-20.636719 46-46 46zm0 0"/><path d="m451.007812 317.300781c-28.378906-28.382812-74.558593-28.382812-102.9375 0l-26.707031 26.703125c-10.351562 10.351563-26.628906 11.082032-37.867187 1.707032-42.394532-35.378907-81.828125-74.8125-117.207032-117.207032-9.378906-11.238281-8.644531-27.519531 1.707032-37.867187l26.707031-26.707031c28.378906-28.378907 28.378906-74.558594 0-102.9375l-39.675781-39.675782c-13.746094-13.746094-32.027344-21.316406-51.46875-21.316406s-37.71875 7.570312-51.46875 21.316406c-29.648438 29.652344-47.925782 68.992188-51.460938 110.777344-3.53125 41.78125 7.875 83.632812 32.125 117.84375 63.117188 89.042969 140.265625 166.191406 229.308594 229.308594 30.132812 21.359375 66.1875 32.757812 102.90625 32.753906 4.96875 0 9.957031-.207031 14.9375-.628906 41.785156-3.535156 81.125-21.808594 110.773438-51.460938 13.75-13.746094 21.320312-32.027344 21.320312-51.46875s-7.570312-37.71875-21.320312-51.46875zm-177.378906 145.628907c-87.195312-61.808594-162.75-137.359376-224.558594-224.558594-44.644531-62.984375-37.425781-148.320313 17.164063-202.910156 9.96875-9.96875 23.226563-15.460938 37.324219-15.460938 14.101562 0 27.355468 5.492188 37.328125 15.460938l39.671875 39.675781c9.972656 9.96875 15.460937 23.226562 15.460937 37.324219 0 14.097656-5.488281 27.355468-15.460937 37.324218l-1.648438 1.652344-65.175781-65.175781c-3.902344-3.902344-10.234375-3.90625-14.140625 0s-3.90625 10.238281 0 14.144531l65.171875 65.171875-10.914063 10.914063c-17.714843 17.71875-18.972656 45.589843-2.917968 64.828124 36.144531 43.3125 76.433594 83.601563 119.746094 119.746094 19.238281 16.054688 47.109374 14.800782 64.828124-2.917968l10.914063-10.914063 113.214844 113.214844c-54.214844 40.816406-129.199219 42.746093-186.007813 2.480469zm202.910156-17.164063c-.5625.5625-1.132812 1.113281-1.699218 1.664063-.191406-.226563-.386719-.449219-.601563-.664063l-113.675781-113.671875 1.652344-1.652344c9.96875-9.96875 23.226562-15.460937 37.324218-15.460937 14.097657 0 27.355469 5.492187 37.324219 15.460937l39.675781 39.675782c9.972657 9.96875 15.460938 23.226562 15.460938 37.324218 0 14.101563-5.488281 27.355469-15.460938 37.324219zm0 0"/><path d="m79.304688 55.980469c-2.628907 0-5.207032 1.070312-7.066407 2.929687s-2.933593 4.441406-2.933593 7.070313c0 2.628906 1.070312 5.210937 2.933593 7.070312 1.859375 1.859375 4.4375 2.929688 7.066407 2.929688 2.632812 0 5.210937-1.070313 7.070312-2.929688 1.863281-1.859375 2.929688-4.441406 2.929688-7.070312 0-2.628907-1.066407-5.210938-2.929688-7.070313-1.859375-1.859375-4.4375-2.929687-7.070312-2.929687zm0 0"/><path d="m218.308594 367.914062c-20.484375-18.226562-40.367188-37.617187-59.089844-57.632812-3.773438-4.035156-10.101562-4.246094-14.132812-.472656-4.035157 3.769531-4.246094 10.101562-.472657 14.132812 19.140625 20.464844 39.460938 40.285156 60.398438 58.914063 1.90625 1.695312 4.28125 2.53125 6.644531 2.53125 2.757812 0 5.5-1.132813 7.476562-3.355469 3.671876-4.125 3.300782-10.445312-.824218-14.117188zm0 0"/><path d="m133.210938 281.246094c-3.609376-4.179688-9.894532-4.613282-14.078126-1-4.179687 3.609375-4.613281 9.953125-1.003906 14.136718l.121094.140626c1.972656 2.273437 4.730469 3.433593 7.515625 3.433593 2.320313 0 4.660156-.808593 6.5625-2.453125 4.175781-3.617187 4.597656-9.96875.984375-14.140625zm0 0"/></svg>