<svg xmlns="http://www.w3.org/2000/svg" xmlns:xlink="http://www.w3.org/1999/xlink" clip-rule="evenodd" fill-rule="evenodd" height="60" image-rendering="optimizeQuality" shape-rendering="geometricPrecision" text-rendering="geometricPrecision" viewBox="0 0 1707 1707" width="60"><linearGradient id="id0" gradientUnits="userSpaceOnUse" x1="853.331" x2="853.331" y1="84.075" y2="1622.59"><stop offset="0" stop-color="#4084E9"/><stop offset="1" stop-color="#4084E9"/></linearGradient><g id="Layer_x0020_1"><path d="m978 257h-250c-30 0-30-46 0-46h250c30 0 30 46 0 46zm117 356h-483c-13 0-23-10-23-23v-219h-274v287h99c12 0 23 10 23 23v147c0 13-11 23-23 23h-99v287h371v-122c0-12 10-23 23-23h289c12 0 22 11 22 23v122h371v-287h-98c-13 0-23-10-23-23v-147c0-13 10-23 23-23h98v-287h-273v219c0 13-10 23-23 23zm-506-287v-219c0-13 10-23 23-23h483c13 0 23 10 23 23v219h296c13 0 23 10 23 23v309c136 0 121-14 121 74h126c12 0 23 10 23 23v750c0 13-11 23-23 23h-264v72c0 12-10 23-22 23h-179c-12 0-22-11-22-23v-67h-687v67c0 12-10 23-23 23h-178c-13 0-23-11-23-23v-72h-263c-13 0-23-10-23-23v-750c0-13 10-23 23-23h125c0-88-14-74 122-74v-309c0-13 10-23 22-23zm45 242h438v-438h-438zm780 615h-394v122c0 12-10 23-22 23h-122v160h321v-66c0-13 10-23 22-23h179c12 0 22 10 22 23v61h241v-706h-103c0 88 15 74-121 74v309c0 13-10 23-23 23zm-439-22v-122h-243v243h243zm439-458h-99v103h198v-103zm-728 480h-394c-12 0-22-10-22-23v-309c-136 0-122 14-122-74h-103v706h241v-61c0-13 10-23 23-23h178c13 0 23 10 23 23v66h321v-160h-122c-13 0-23-11-23-23zm-394-480h-98v103h197v-103zm950 874h133v-133h-133zm-910 0h133v-133h-133zm646-1091h-250c-30 0-30-46 0-46h250c30 0 30 46 0 46zm0-115h-250c-30 0-30-45 0-45h250c30 0 30 45 0 45z" fill="url(#id0)"/></g></svg>