<svg id="Layer_1" enable-background="new 0 0 512 512" viewBox="0 0 512 512" xmlns="http://www.w3.org/2000/svg"><g><g clip-rule="evenodd" fill-rule="evenodd"><path d="m281.3 190.1h70.1v210.9h-70.1z" fill="#6167af"/><path d="m172.6 278.6h70.1v122.3h-70.1z" fill="#6167af"/><path d="m390 59.2h70.1v341.8h-70.1z" fill="#6167af"/><path d="m134.5 401h326.4c11.1 0 20.1 9 20.1 20.1v15c0 11.1-9 20.1-20.1 20.1h-326.4c-11.1 0-20.1-9-20.1-20.1v-15c0-11.1 9.1-20.1 20.1-20.1z" fill="#b3b4b4"/><path d="m481 426.3v9.8c0 11.1-9 20.1-20.1 20.1h-326.4c-11.1 0-20.1-9-20.1-20.1v-9.8z" fill="#686868"/><path d="m425.1 59.2h35v341.8h-35z" fill="#9695c9"/><path d="m316.4 190.1h35.1v210.9h-35.1z" fill="#9695c9"/><path d="m207.7 278.6h35.1v122.3h-35.1z" fill="#9695c9"/><path d="m201.6 91.9c66 0 119.4 53.5 119.4 119.4s-53.5 119.4-119.4 119.4-119.4-53.5-119.4-119.4 53.5-119.4 119.4-119.4z" fill="#f26722"/><path d="m201.6 129.3c45.3 0 82.1 36.7 82.1 82.1 0 45.3-36.7 82-82.1 82-45.3 0-82-36.7-82-82 0-45.4 36.7-82.1 82-82.1z" fill="#ffcd05"/><path d="m252.8 183.9c7.8 0 14.1 6.3 14.1 14.1s-6.3 14.1-14.1 14.1-14.1-6.3-14.1-14.1 6.3-14.1 14.1-14.1z" fill="#feeb90"/></g><path d="m178.1 229c-.5-5.2 7.5-6 7.9-.7.9 10.1 17.4 15.2 27 7.4 2.6-2.2 4.3-5.1 4.3-8.2 0-19.7-39.3-3.6-39.3-32.1 0-10.6 9.2-18.2 19.5-19.7v-7c0-2.3 1.8-4 4.2-4 2.3 0 4 1.8 4 4.1l-.2 6.9c10.4 1.5 19.7 9.1 19.7 19.8 0 5.3-8 5.3-8 0 0-10.7-17.1-16.3-27-8.2-2.6 2.2-4.3 5.1-4.3 8.2 0 19.7 39.3 3.7 39.3 32.1 0 10.6-9.2 18.3-19.6 19.8l-.1 7c0 5.3-8 5.3-8 0v-7c-9.7-1.7-18.5-8.6-19.4-18.4zm23.5-103.7c47.5 0 86.1 38.5 86.1 86.1 0 47.5-38.5 86-86.1 86-47.5 0-86-38.5-86-86 0-47.6 38.5-86.1 86-86.1zm55.2 30.8c-30.5-30.5-79.9-30.5-110.4 0s-30.5 79.9 0 110.4 79.9 30.5 110.4 0 30.5-79.9 0-110.4zm-55.2-68.2c59 0 109.1 41.6 120.8 98.2h29c2.2 0 4 1.8 4 4v206.9h30.6v-337.8c0-2.2 1.8-4 4-4h70.1c2.2 0 4 1.8 4 4v338c11.8 1.6 20.9 11.8 20.9 23.9v15c0 13.3-10.8 24.1-24.1 24.1h-326.4c-13.3 0-24.1-10.8-24.1-24.1v-15c0-13.3 10.8-24.1 24.1-24.1h34.1v-66.7c-52.7-14.6-90.4-62.8-90.4-118.9 0-68.3 55.3-123.5 123.4-123.5zm122.2 106.2c5.8 41.1-9.4 81-38.5 108v94.9h62.1v-202.9zm-46.5 114.7c-9.2 7.2-19.5 13.1-30.6 17.4v70.8h30.6zm-38.6 20.2c-20 6.3-41.5 7.4-62.1 3.1v64.9h62.1zm44.5-199.3c-45.1-45.1-118.2-45.1-163.2 0-45.1 45.1-45.1 118.1 0 163.2s118.2 45.1 163.2 0c45.1-45 45.1-118.1 0-163.2zm110.8 267.3h62.1v-333.8h-62.1zm66.9 8h-326.4c-8.8 0-16.1 7.3-16.1 16.1v15c0 8.8 7.3 16.1 16.1 16.1h326.4c8.8 0 16.1-7.3 16.1-16.1v-15c0-8.9-7.3-16.1-16.1-16.1zm-414.3-166.4c-.5 0-1.1 0-1.6-.2l.9 1.3zm-4.4-4.2c-3.9-29.7.6-59.8 12.7-87 11.8-26.5 31-50.2 56.8-67.7 36.9-25 80.4-32.7 121-24.9 59 11.3 107.4 54.7 124.5 113 1.5 5-6.2 7.3-7.7 2.2-16.3-55.4-62.2-96.6-118.3-107.4-38.6-7.4-80-.1-115.1 23.7-24.5 16.6-42.7 39.1-54 64.3-11.4 25.5-15.7 53.8-12.2 81.7l5.7-10.5c2.5-4.6 9.5-.9 7 3.8l-12.6 23.6c-1.4 2.6-5.1 3-6.8.5l-15.4-22c-1.3-1.8-.8-4.3 1-5.6 1.8-1.2 4.3-.8 5.6 1z"/></g></svg>