<svg height="512" viewBox="0 0 64 64" width="512" xmlns="http://www.w3.org/2000/svg"><g id="Icon"><circle cx="46" cy="17" fill="#f5f5f5" r="12"/><path d="m49 18h-3a1 1 0 0 1 -1-1v-5a1 1 0 0 1 2 0v4h2a1 1 0 0 1 0 2z" fill="#424242"/><g fill="#616161"><path d="m46 10a1 1 0 0 1 -1-1v-5a1 1 0 0 1 2 0v5a1 1 0 0 1 -1 1z"/><path d="m46 31a1 1 0 0 1 -1-1v-5a1 1 0 0 1 2 0v5a1 1 0 0 1 -1 1z"/><path d="m59 18h-5a1 1 0 0 1 0-2h5a1 1 0 0 1 0 2z"/><path d="m38 18h-5a1 1 0 0 1 0-2h5a1 1 0 0 1 0 2z"/><path d="m55.89941 7.10059a.99962.99962 0 0 0 -1.41406 0l-3.53564 3.53564a.99989.99989 0 1 0 1.41406 1.41406l3.53564-3.53564a.99962.99962 0 0 0 0-1.41406z"/><path d="m39.63623 21.94971-3.53564 3.53564a.99989.99989 0 0 0 1.41406 1.41406l3.53564-3.53564a.99989.99989 0 1 0 -1.41406-1.41406z"/><path d="m55.89941 25.48535-3.53564-3.53564a.99989.99989 0 1 0 -1.41406 1.41406l3.53564 3.53564a.99989.99989 0 1 0 1.41406-1.41406z"/><path d="m37.51465 7.10059a.99989.99989 0 0 0 -1.41406 1.41406l3.53564 3.53564a.99989.99989 0 1 0 1.41406-1.41406z"/></g><circle cx="18" cy="46" fill="#f5f5f5" r="12"/><path d="m18 40a1 1 0 0 0 -1 1v4.58594l-1.707 1.707a.99989.99989 0 0 0 1.414 1.41406l2-2a1.00012 1.00012 0 0 0 .293-.707v-5a1 1 0 0 0 -1-1z" fill="#424242"/><path d="m18 39a1 1 0 0 1 -1-1v-5a1 1 0 0 1 2 0v5a1 1 0 0 1 -1 1z" fill="#616161"/><path d="m18 60a1 1 0 0 1 -1-1v-5a1 1 0 0 1 2 0v5a1 1 0 0 1 -1 1z" fill="#616161"/><path d="m31 47h-5a1 1 0 0 1 0-2h5a1 1 0 0 1 0 2z" fill="#616161"/><path d="m10 47h-5a1 1 0 0 1 0-2h5a1 1 0 0 1 0 2z" fill="#616161"/><path d="m27.89941 36.10059a.99962.99962 0 0 0 -1.41406 0l-3.53564 3.53564a.99989.99989 0 1 0 1.41406 1.41406l3.53564-3.53564a.99962.99962 0 0 0 0-1.41406z" fill="#616161"/><path d="m11.63623 50.94971-3.53564 3.53564a.99989.99989 0 0 0 1.41406 1.41406l3.53564-3.53564a.99989.99989 0 1 0 -1.41406-1.41406z" fill="#616161"/><path d="m24.36377 50.94971a.99989.99989 0 1 0 -1.41406 1.41406l3.53564 3.53564a.99989.99989 0 1 0 1.41406-1.41406z" fill="#616161"/><path d="m9.51465 36.10059a.99989.99989 0 0 0 -1.41406 1.41406l3.53564 3.53564a.99989.99989 0 1 0 1.41406-1.41406z" fill="#616161"/><path d="m27.666 13.252-7.25194-7.252a1.99994 1.99994 0 0 0 -3.41406 1.41406l-.0127 2.13477c-6.63037 1.10986-11.15136 3.7251-13.4375 7.773-2.77392 4.91108-1.5308 10.55659.00098 14.42817a.99978.99978 0 0 0 1.92578-.28174c.23975-2.77148 2.6709-6.668 5.78076-9.26514 2.07468-1.73291 4.12745-2.60498 5.74268-2.44433v2.15921a1.99994 1.99994 0 0 0 3.41406 1.414l7.252-7.252a2.00194 2.00194 0 0 0 -.00006-2.828z" fill="#689f38"/><path d="m60.44922 32.56494a.99978.99978 0 0 0 -1.92578.28174c-.23975 2.77148-2.6709 6.668-5.78076 9.26514-2.0752 1.73193-4.13233 2.60009-5.74268 2.44433v-2.15915a1.99994 1.99994 0 0 0 -3.41406-1.41406l-7.252 7.252a2.00194 2.00194 0 0 0 0 2.82813l7.252 7.252a1.99993 1.99993 0 0 0 3.41406-1.41419l.0127-2.13477c6.63037-1.10986 11.15136-3.72509 13.4375-7.77295 2.77392-4.91116 1.5308-10.55664-.00098-14.42822z" fill="#ffb300"/><path d="m18 30a16 16 0 1 0 16 16 16.01833 16.01833 0 0 0 -16-16zm0 28a12 12 0 1 1 12-12 12.01375 12.01375 0 0 1 -12 12z" fill="#f44336"/><path d="m46 1a16 16 0 1 0 16 16 16.01833 16.01833 0 0 0 -16-16zm0 28a12 12 0 1 1 12-12 12.01375 12.01375 0 0 1 -12 12z" fill="#f44336"/></g></svg>