<svg xmlns="http://www.w3.org/2000/svg" xmlns:xlink="http://www.w3.org/1999/xlink" height="60" viewBox="0 0 64 64" width="60"><linearGradient id="New_Gradient_Swatch_3" gradientUnits="userSpaceOnUse" x1="14.518" x2="15.363" y1="68.039" y2="1.309"><stop offset="0" stop-color="#4084E9"/><stop offset="1" stop-color="#4084E9"/></linearGradient><linearGradient id="New_Gradient_Swatch_3-2" x1="18.518" x2="19.363" xlink:href="#New_Gradient_Swatch_3" y1="68.09" y2="1.36"/><linearGradient id="New_Gradient_Swatch_3-3" x1="22.517" x2="23.362" xlink:href="#New_Gradient_Swatch_3" y1="68.14" y2="1.411"/><linearGradient id="New_Gradient_Swatch_3-4" x1="54.512" x2="55.357" xlink:href="#New_Gradient_Swatch_3" y1="68.545" y2="1.816"/><linearGradient id="New_Gradient_Swatch_3-5" x1="50.513" x2="51.357" xlink:href="#New_Gradient_Swatch_3" y1="68.495" y2="1.765"/><linearGradient id="New_Gradient_Swatch_3-6" x1="46.513" x2="47.358" xlink:href="#New_Gradient_Swatch_3" y1="68.444" y2="1.714"/><linearGradient id="New_Gradient_Swatch_3-7" x1="31.516" x2="32.36" xlink:href="#New_Gradient_Swatch_3" y1="68.254" y2="1.525"/><linearGradient id="New_Gradient_Swatch_3-8" x1="50.336" x2="51.18" xlink:href="#New_Gradient_Swatch_3" y1="68.492" y2="1.763"/><linearGradient id="New_Gradient_Swatch_3-9" x1="45.336" x2="46.181" xlink:href="#New_Gradient_Swatch_3" y1="68.429" y2="1.7"/><linearGradient id="New_Gradient_Swatch_3-10" x1="47.817" x2="48.662" xlink:href="#New_Gradient_Swatch_3" y1="68.461" y2="1.731"/><linearGradient id="New_Gradient_Swatch_3-11" x1="34.49" x2="35.335" xlink:href="#New_Gradient_Swatch_3" y1="68.292" y2="1.562"/><linearGradient id="New_Gradient_Swatch_3-12" x1="20.328" x2="21.172" xlink:href="#New_Gradient_Swatch_3" y1="68.113" y2="1.383"/><linearGradient id="New_Gradient_Swatch_3-13" x1="47.69" x2="48.535" xlink:href="#New_Gradient_Swatch_3" y1="68.459" y2="1.729"/><linearGradient id="New_Gradient_Swatch_3-14" x1="22.327" x2="23.172" xlink:href="#New_Gradient_Swatch_3" y1="68.138" y2="1.408"/><linearGradient id="New_Gradient_Swatch_3-15" x1="14.329" x2="15.173" xlink:href="#New_Gradient_Swatch_3" y1="68.037" y2="1.307"/><linearGradient id="New_Gradient_Swatch_3-16" x1="49.69" x2="50.535" xlink:href="#New_Gradient_Swatch_3" y1="68.484" y2="1.755"/><linearGradient id="New_Gradient_Swatch_3-17" x1="42.691" x2="43.536" xlink:href="#New_Gradient_Swatch_3" y1="68.396" y2="1.666"/><g id="Responsive-4" data-name="Responsive"><path d="m14 29h2v2h-2z" fill="url(#New_Gradient_Swatch_3)"/><path d="m18 29h2v2h-2z" fill="url(#New_Gradient_Swatch_3-2)"/><path d="m22 29h2v2h-2z" fill="url(#New_Gradient_Swatch_3-3)"/><path d="m54 29h2v2h-2z" fill="url(#New_Gradient_Swatch_3-4)"/><path d="m50 29h2v2h-2z" fill="url(#New_Gradient_Swatch_3-5)"/><path d="m46 29h2v2h-2z" fill="url(#New_Gradient_Swatch_3-6)"/><path d="m57 2h-50a5.006 5.006 0 0 0 -5 5v36a5.006 5.006 0 0 0 5 5h17v6h-10a4 4 0 0 0 0 8h36a4 4 0 0 0 4-4h3a5.006 5.006 0 0 0 5-5v-46a5.006 5.006 0 0 0 -5-5zm-53 41v-36a3 3 0 0 1 3-3h50a3 3 0 0 1 3 3v6.026a4.954 4.954 0 0 0 -2-.925v-5.101a1 1 0 0 0 -1-1h-50a1 1 0 0 0 -1 1v34a1 1 0 0 0 1 1h27v4h-27a3 3 0 0 1 -3-3zm52-31h-17a5.006 5.006 0 0 0 -5 5v4.059a9 9 0 0 0 0 17.882v1.059h-26v-32h48zm-21 25a6.957 6.957 0 0 1 -3.975-1.245 2.994 2.994 0 0 1 2.975-2.755h2a2.994 2.994 0 0 1 2.975 2.755 6.957 6.957 0 0 1 -3.975 1.245zm5.632-2.861a5 5 0 0 0 -4.632-3.139h-2a5 5 0 0 0 -4.632 3.139 7 7 0 1 1 11.264 0zm-4.632 4.802a9 9 0 0 0 0-17.882v-1.059h24v30h-24zm24-20.941h-24v-1a3 3 0 0 1 3-3h18a3 3 0 0 1 3 3zm-34 30h8v5a5 5 0 0 0 .1 1h-8.1zm25.413 11.413a1.983 1.983 0 0 1 -1.413.587h-36a2 2 0 0 1 0-4h21.026a4.977 4.977 0 0 0 3.974 2h13a1.983 1.983 0 0 1 -.587 1.413zm5.587-3.413h-18a3 3 0 0 1 -3-3v-1h24v1a3 3 0 0 1 -3 3z" fill="url(#New_Gradient_Swatch_3-7)"/><path d="m49 15h4v2h-4z" fill="url(#New_Gradient_Swatch_3-8)"/><path d="m45 15h2v2h-2z" fill="url(#New_Gradient_Swatch_3-9)"/><path d="m46 53h4v2h-4z" fill="url(#New_Gradient_Swatch_3-10)"/><path d="m38 28a3 3 0 1 0 -3 3 3 3 0 0 0 3-3zm-3 1a1 1 0 1 1 1-1 1 1 0 0 1 -1 1z" fill="url(#New_Gradient_Swatch_3-11)"/><path d="m11 20h20a1 1 0 0 0 1-1v-8a1 1 0 0 0 -1-1h-20a1 1 0 0 0 -1 1v8a1 1 0 0 0 1 1zm1-8h18v6h-18z" fill="url(#New_Gradient_Swatch_3-12)"/><path d="m57 40h-18a1 1 0 0 0 -1 1v6a1 1 0 0 0 1 1h18a1 1 0 0 0 1-1v-6a1 1 0 0 0 -1-1zm-1 6h-16v-4h16z" fill="url(#New_Gradient_Swatch_3-13)"/><path d="m18 14h10v2h-10z" fill="url(#New_Gradient_Swatch_3-14)"/><path d="m14 14h2v2h-2z" fill="url(#New_Gradient_Swatch_3-15)"/><path d="m46 43h8v2h-8z" fill="url(#New_Gradient_Swatch_3-16)"/><path d="m42 43h2v2h-2z" fill="url(#New_Gradient_Swatch_3-17)"/></g></svg>