<svg version="1.2" xmlns="http://www.w3.org/2000/svg" viewBox="0 0 346 320" width="346" height="320">
	<title>Schedule a Demo</title>
	<style>
		.s0 { fill: #ebf0f3 } 
		.s1 { fill: #44c4a1 } 
		.s2 { fill: #d5d6db } 
		.s3 { fill: #2f4859 } 
		.s4 { fill: #3a556a } 
		.s5 { fill: #d15241 } 
		.s6 { fill: #e56353 } 
		.s7 { fill: #64798a } 
	</style>
	<path class="s0" d="m264.9 0.1h-244.2c-11 0-19.9 8.9-19.9 19.9v215c0 11 8.9 19.9 19.9 19.9h244.2c11 0 19.9-8.9 19.9-19.9v-215c0-11-8.9-19.9-19.9-19.9z"/>
	<path class="s1" d="m264.9 0.1h-244.2c-11 0-19.9 8.9-19.9 19.9v32.3h284v-32.3c0-11-8.9-19.9-19.9-19.9z"/>
	<path fill-rule="evenodd" class="s0" d="m248.1 35.8c-4.8 0-8.6-3.9-8.6-8.6 0-4.8 3.8-8.7 8.6-8.7 4.8 0 8.6 3.9 8.6 8.7 0 4.7-3.8 8.6-8.6 8.6z"/>
	<path class="s0" d="m248.1 28c-0.4 0-0.8-0.4-0.8-0.8 0-0.5 0.4-0.8 0.8-0.8 0.4 0 0.8 0.3 0.8 0.8 0 0.4-0.4 0.8-0.8 0.8z"/>
	<path fill-rule="evenodd" class="s0" d="m215.9 35.8c-4.7 0-8.6-3.9-8.6-8.6 0-4.8 3.9-8.7 8.6-8.7 4.8 0 8.7 3.9 8.7 8.7 0 4.7-3.9 8.6-8.7 8.6z"/>
	<path fill-rule="evenodd" class="s0" d="m215.9 28c-0.4 0-0.8-0.4-0.8-0.8 0-0.5 0.4-0.8 0.8-0.8 0.5 0 0.8 0.3 0.8 0.8 0 0.4-0.3 0.8-0.8 0.8z"/>
	<path fill-rule="evenodd" class="s0" d="m183.8 35.8c-4.8 0-8.7-3.9-8.7-8.6 0-4.8 3.9-8.7 8.7-8.7 4.7 0 8.6 3.9 8.6 8.7 0 4.7-3.9 8.6-8.6 8.6z"/>
	<path fill-rule="evenodd" class="s0" d="m183.8 28c-0.5 0-0.8-0.4-0.8-0.8 0-0.5 0.3-0.8 0.8-0.8 0.4 0 0.7 0.3 0.7 0.8 0 0.4-0.3 0.8-0.7 0.8z"/>
	<g>
		<path class="s2" d="m41.2 80.5h203.3v19h-203.3z"/>
		<path class="s2" d="m41.2 112.6h57.5v52.7h-57.5z"/>
		<path class="s2" d="m114.1 112.6h57.5v52.7h-57.5z"/>
		<path class="s2" d="m187 112.6h57.5v52.7h-57.5z"/>
		<path class="s2" d="m41.2 173.3h57.5v7.5h-57.5z"/>
		<path class="s2" d="m41.2 188.8h29.8v7.5h-29.8z"/>
		<path class="s2" d="m114.1 173.3h57.5v7.5h-57.5z"/>
		<path class="s2" d="m114.1 188.8h29.7v7.5h-29.7z"/>
		<path class="s2" d="m187 173.3h57.5v7.5h-57.5z"/>
		<path class="s2" d="m187 188.8h29.7v7.5h-29.7z"/>
	</g>
	<path class="s3" d="m320.8 145l5.3 5.3-15.7 15.8-5.3-5.4z"/>
	<path class="s4" d="m337.2 142.4l-8.4-8.3c-0.9-0.9-2.2-0.9-3 0l-9.8 9.8c-0.8 0.8-0.8 2.1 0 2.9l8.4 8.4c0.8 0.9 2.1 0.9 2.9 0l9.9-9.8c0.8-0.8 0.8-2.1 0-3z"/>
	<path class="s3" d="m327.5 136.6c-0.3-0.3-0.9-0.3-1.2 0l-7.8 7.8c-0.3 0.3-0.3 0.8 0 1.2 0.4 0.3 0.9 0.3 1.2 0l7.8-7.8c0.3-0.3 0.3-0.9 0-1.2z"/>
	<path class="s3" d="m329.9 139c-0.4-0.3-0.9-0.3-1.2 0l-7.8 7.8c-0.3 0.3-0.3 0.8 0 1.1 0.3 0.4 0.9 0.4 1.2 0l7.8-7.7c0.3-0.4 0.3-0.9 0-1.2z"/>
	<path class="s3" d="m332.2 141.3c-0.3-0.3-0.8-0.3-1.1 0l-7.8 7.8c-0.4 0.4-0.4 0.9 0 1.2 0.3 0.3 0.8 0.3 1.1 0l7.8-7.8c0.4-0.3 0.4-0.8 0-1.2z"/>
	<path class="s3" d="m334.6 143.7c-0.3-0.3-0.8-0.3-1.2 0l-7.8 7.8c-0.3 0.3-0.3 0.9 0 1.2 0.4 0.3 0.9 0.3 1.2 0l7.8-7.8c0.3-0.3 0.3-0.9 0-1.2z"/>
	<path class="s3" d="m192.8 160.8l-5.3 5.3-15.8-15.7 5.4-5.3z"/>
	<path class="s4" d="m160.7 142.4l8.4-8.3c0.8-0.9 2.1-0.9 2.9 0l9.8 9.8c0.9 0.8 0.9 2.1 0 2.9l-8.3 8.4c-0.9 0.9-2.2 0.9-3 0l-9.8-9.8c-0.9-0.8-0.9-2.1 0-3z"/>
	<path class="s3" d="m170.3 136.6c0.4-0.3 0.9-0.3 1.2 0l7.8 7.8c0.3 0.3 0.3 0.8 0 1.2-0.3 0.3-0.9 0.3-1.2 0l-7.8-7.8c-0.3-0.3-0.3-0.9 0-1.2z"/>
	<path class="s3" d="m168 139c0.3-0.3 0.8-0.3 1.1 0l7.8 7.8c0.3 0.3 0.3 0.8 0 1.1-0.3 0.4-0.8 0.4-1.2 0l-7.7-7.7c-0.4-0.4-0.4-0.9 0-1.2z"/>
	<path class="s3" d="m165.6 141.3c0.3-0.3 0.8-0.3 1.2 0l7.7 7.8c0.4 0.4 0.4 0.9 0 1.2-0.3 0.3-0.8 0.3-1.1 0l-7.8-7.8c-0.3-0.3-0.3-0.8 0-1.2z"/>
	<path class="s3" d="m163.2 143.7c0.3-0.3 0.9-0.3 1.2 0l7.8 7.8c0.3 0.3 0.3 0.9 0 1.2-0.3 0.3-0.9 0.3-1.2 0l-7.8-7.8c-0.3-0.3-0.3-0.9 0-1.2z"/>
	<path class="s3" d="m241.3 111.6h15.2v22.3h-15.2z"/>
	<path class="s5" d="m345.2 223.6c0 53.2-43.1 96.3-96.3 96.3-24 0-45.8-8.7-62.7-23.2-20.6-17.6-33.6-43.8-33.6-73.1 0-53.2 43.1-96.3 96.3-96.3 27.7 0 52.6 11.7 70.1 30.3 16.2 17.3 26.2 40.5 26.2 66z"/>
	<path class="s6" d="m248.9 127.3c-53.2 0-96.3 43.1-96.3 96.3 0 29.3 13 55.5 33.6 73.1 26.9-6.5 57.8-25.1 84.5-53.3 26.3-27.7 43-58.9 48.3-85.8-17.5-18.6-42.4-30.3-70.1-30.3z"/>
	<path fill-rule="evenodd" class="s0" d="m266.9 299.8c-42.2 9.9-84.3-16.1-94.3-58.3-10-42.2 16.1-84.4 58.3-94.3 42.2-10 84.3 16 94.3 58.2 10 42.2-16.1 84.4-58.3 94.4z"/>
	<g>
		<path class="s4" d="m299.3 170.7l2.5 2.5-7.4 7.3-2.4-2.5z"/>
		<path class="s4" d="m203.4 266.6l2.5 2.5-7.4 7.3-2.4-2.5z"/>
		<path class="s4" d="m301.9 274l-2.5 2.5-7.3-7.3 2.4-2.5z"/>
		<path class="s4" d="m205.9 178.1l-2.5 2.5-7.3-7.3 2.5-2.5z"/>
		<path class="s4" d="m219.5 156.8l3.2-1.4 4 9.6-3.3 1.3z"/>
		<path class="s4" d="m271.4 282.1l3.3-1.3 3.9 9.5-3.2 1.4z"/>
		<path class="s4" d="m315.8 194.2l1.3 3.3-9.5 3.9-1.4-3.2z"/>
		<path class="s4" d="m190.4 246.1l1.3 3.3-9.5 3.9-1.4-3.2z"/>
		<path class="s4" d="m275.2 155.7l3.2 1.3-3.9 9.6-3.3-1.4z"/>
		<path class="s4" d="m223.2 281l3.3 1.3-4 9.6-3.2-1.4z"/>
		<path class="s4" d="m316.9 249.9l-1.4 3.2-9.5-3.9 1.3-3.3z"/>
		<path class="s4" d="m191.6 198l-1.4 3.2-9.5-3.9 1.3-3.3z"/>
		<path class="s4" d="m244.9 150.3l4 9.2 4.1-9.2z"/>
		<path class="s4" d="m253 297l-4.1-9.3-4 9.3z"/>
		<path class="s4" d="m322.3 219.6l-9.3 4 9.3 4.1z"/>
		<path class="s4" d="m175.6 227.7l9.2-4.1-9.2-4z"/>
		<path class="s4" d="m249.4 185.7c-0.1-0.5-0.9-0.5-1 0l-8.1 52.6c-0.1 1 0.7 2 1.7 2h13.8c1 0 1.8-1 1.7-2z"/>
	</g>
	<path fill-rule="evenodd" class="s7" d="m248.9 233.8c-5.9 0-10.7-4.8-10.7-10.7 0-5.9 4.8-10.7 10.7-10.7 5.9 0 10.7 4.8 10.7 10.7 0 5.9-4.8 10.7-10.7 10.7z"/>
	<path class="s4" d="m264.5 100.4h-31.2c-1.9 0-3.5 1.6-3.5 3.6v10.2c0 2 1.6 3.6 3.5 3.6h31.2c2 0 3.5-1.6 3.5-3.6v-10.2c0-2-1.5-3.6-3.5-3.6z"/>
	<path class="s3" d="m234 103.7c-0.7 0-1.2 0.6-1.2 1.2v8.4c0 0.6 0.5 1.2 1.2 1.2 0.7 0 1.3-0.6 1.3-1.2v-8.4c0-0.6-0.6-1.2-1.3-1.2z"/>
	<path class="s3" d="m239 103.7c-0.7 0-1.3 0.6-1.3 1.2v8.4c0 0.6 0.6 1.2 1.3 1.2 0.7 0 1.2-0.6 1.2-1.2v-8.4c0-0.6-0.5-1.2-1.2-1.2z"/>
	<path class="s3" d="m243.9 103.7c-0.6 0-1.2 0.6-1.2 1.2v8.4c0 0.6 0.6 1.2 1.2 1.2 0.7 0 1.3-0.6 1.3-1.2v-8.4c0-0.6-0.6-1.2-1.3-1.2z"/>
	<path class="s3" d="m248.9 103.7c-0.7 0-1.2 0.6-1.2 1.2v8.4c0 0.6 0.5 1.2 1.2 1.2 0.7 0 1.3-0.6 1.3-1.2v-8.4c0-0.6-0.6-1.2-1.3-1.2z"/>
	<path class="s3" d="m253.9 103.7c-0.7 0-1.3 0.6-1.3 1.2v8.4c0 0.6 0.6 1.2 1.3 1.2 0.7 0 1.2-0.6 1.2-1.2v-8.4c0-0.6-0.5-1.2-1.2-1.2z"/>
	<path class="s3" d="m258.8 103.7c-0.6 0-1.2 0.6-1.2 1.2v8.4c0 0.6 0.6 1.2 1.2 1.2 0.7 0 1.3-0.6 1.3-1.2v-8.4c0-0.6-0.6-1.2-1.3-1.2z"/>
	<path class="s3" d="m263.8 103.7c-0.7 0-1.2 0.6-1.2 1.2v8.4c0 0.6 0.5 1.2 1.2 1.2 0.7 0 1.3-0.6 1.3-1.2v-8.4c0-0.6-0.6-1.2-1.3-1.2z"/>
</svg>