<svg version="1.2" xmlns="http://www.w3.org/2000/svg" viewBox="0 0 300 300" width="60" height="60">
	<style>
		.s0 { fill: none } 
		.s1 { fill: #ffffff } 
		.s2 { fill: #4084e9 } 
	</style>
	<g>
		<g>
			<g>
				<g>
					<path fill-rule="evenodd" class="s0" d="m274.22 9.38c9.06-0.01 16.4 7.34 16.4 16.4 0 9.06-7.34 16.41-16.4 16.41-9.06 0-16.41-7.35-16.41-16.41 0-9.06 7.35-16.41 16.41-16.41zm-248.44 196.01c9.06 0 16.41 7.35 16.41 16.41 0 9.06-7.35 16.4-16.41 16.4-9.06 0-16.41-7.34-16.41-16.4 0-9.06 7.35-16.41 16.41-16.41zm0-196c9.06 0 16.41 7.34 16.41 16.4 0 9.06-7.35 16.41-16.41 16.41-9.06 0-16.41-7.35-16.41-16.41 0-9.06 7.35-16.4 16.41-16.4zm124.22 0c9.06 0 16.41 7.34 16.41 16.4 0 9.06-7.35 16.41-16.41 16.41-9.06 0-16.41-7.35-16.41-16.41 0-9.06 7.35-16.4 16.41-16.4z"/>
				</g>
				<g>
					<path fill-rule="evenodd" class="s1" d="m150 199.86c0 0-24.69 0-23.21 42.95 1.49 42.96-16.98 47.81-16.98 47.81-21.95-6.35-20.46-76.28-18.87-105.34 0.47-8.63-0.7-16.09-3.79-24.16-54.45-142.22 62.85-83.75 62.85-83.75 0 0 117.3-58.47 62.85 83.75-3.09 8.07-4.26 15.54-3.79 24.16 1.59 29.06 3.08 98.99-18.87 105.34 0 0-18.47-4.85-16.98-47.8 1.48-42.96-23.21-42.96-23.21-42.96z"/>
					<g>
						<path fill-rule="evenodd" class="s1" d="m205.22 130.45h41.22c3.23 0 5.86 2.64 5.86 5.86v41.22c0 3.23-2.63 5.86-5.86 5.86h-41.22c-3.23 0-5.86-2.63-5.86-5.86v-41.22c0-3.22 2.63-5.86 5.86-5.86z"/>
						<path fill-rule="evenodd" class="s1" d="m164.7 163h15.37c3.23 0 5.86 2.63 5.86 5.86v15.38c0 3.23-2.63 5.86-5.86 5.86h-15.37c-3.23 0-5.86-2.63-5.86-5.86v-15.38c0-3.23 2.63-5.86 5.86-5.86z"/>
						<path fill-rule="evenodd" class="s1" d="m202.72 195.94h20.3c3.23 0 5.86 2.63 5.86 5.86v20.3c0 3.23-2.63 5.86-5.86 5.86h-20.3c-3.22 0-5.86-2.63-5.86-5.86v-20.3c0-3.23 2.64-5.86 5.86-5.86z"/>
					</g>
				</g>
			</g>
			<path fill-rule="evenodd" class="s2" d="m278.32 45.87v65.7c0 2.27-1.83 4.11-4.1 4.11h-44.13q-0.79 5.1-2.05 10.67h24.26c2.27 0 4.1 1.84 4.1 4.1v52.94c0 2.27-1.83 4.1-4.1 4.1h-39.03q0.11 2.17 0.2 4.35h15.41c2.27 0 4.1 1.84 4.1 4.1v32.02c0 2.27-1.83 4.1-4.1 4.1h-15.3c-1.73 38.21-9.02 58.68-22.25 62.5q-0.57 0.17-1.15 0.17-0.52 0-1.04-0.14c-0.62-0.16-6.26-1.83-11.4-9.47-6.38-9.47-9.28-23.75-8.63-42.45 0.52-15.29-2.41-26.78-8.5-33.22-4.81-5.1-10.03-5.46-10.61-5.49-0.58 0.03-5.8 0.39-10.62 5.49-6.08 6.44-9.02 17.93-8.49 33.22 0.65 18.7-2.26 32.98-8.63 42.45-5.15 7.64-10.78 9.31-11.4 9.47-0.72 0.19-1.48 0.18-2.19-0.03-10.65-3.08-17.38-16.82-20.57-42.01-2.52-19.9-2.29-43.13-1.65-59.12 0.49-12.47-1-23.43-4.8-35.06h-51.77v43.33c9.35 1.9 16.41 10.19 16.41 20.09 0 11.31-9.2 20.51-20.51 20.51-11.31 0-20.51-9.2-20.51-20.51 0-9.9 7.06-18.19 16.41-20.09v-47.43c0-2.26 1.83-4.1 4.1-4.1h53.04c-4.37-12.86-7.34-24.38-8.9-34.49h-44.14c-2.27 0-4.1-1.84-4.1-4.11v-65.7c-9.35-1.9-16.41-10.19-16.41-20.09 0-11.31 9.2-20.51 20.51-20.51 11.31 0 20.51 9.2 20.51 20.51 0 9.9-7.06 18.19-16.41 20.09v61.6h39.05q-0.36-4.37-0.3-8.31c0.21-13.25 3.98-23.22 11.19-29.62 18.17-16.14 52.3-4.33 66.08 1.47v-25.14c-9.35-1.9-16.41-10.19-16.41-20.09 0-11.31 9.2-20.51 20.51-20.51 11.31 0 20.51 9.2 20.51 20.51 0 9.9-7.06 18.19-16.41 20.09v25.14c13.53-5.69 46.68-17.18 65.08-2.32 9.35 7.56 13.31 20.56 11.87 38.78h39.07v-61.6c-9.35-1.9-16.41-10.19-16.41-20.09 0-11.31 9.2-20.51 20.51-20.51 11.31 0 20.51 9.2 20.51 20.51 0 9.9-7.06 18.19-16.41 20.09zm-78.96 80.48h20.26c6.21-26 4.34-43.24-5.6-51.27-18.89-15.29-61.76 5.74-62.19 5.96-1.16 0.57-2.51 0.57-3.66 0-0.44-0.22-44.42-21.8-62.91-5.37-12.15 10.81-11.1 37.35 3.03 76.75 4.98 13.87 6.94 26.62 6.35 41.34-2.06 51.9 3.69 86.87 15.05 92.43 3.4-1.94 14.13-10.69 13-43.23-0.62-17.97 3.07-31.22 10.96-39.39 7.47-7.72 15.99-7.81 16.35-7.81 0.36 0 8.88 0.09 16.35 7.81 7.88 8.17 11.57 21.42 10.96 39.39-1.12 32.49 9.56 41.26 12.98 43.23 4.71-2.4 13.14-12.58 15.08-54.13h-8.51c-2.26 0-4.1-1.83-4.1-4.1v-32.02c0-2.27 1.84-4.1 4.1-4.1h8.41q-0.1-2.18-0.21-4.35h-5.7c-2.26 0-4.1-1.83-4.1-4.1v-52.94c0-2.26 1.84-4.1 4.1-4.1zm87.16-100.57c0-6.78-5.52-12.3-12.3-12.3-6.79 0-12.31 5.52-12.31 12.3 0 6.79 5.52 12.31 12.31 12.31 6.78 0 12.3-5.52 12.3-12.31zm-96.49 137.22v27.1c0 2.26-1.83 4.1-4.1 4.1h-27.09c-2.27 0-4.11-1.84-4.11-4.1v-27.1c0-2.26 1.84-4.1 4.11-4.1h27.09c2.27 0 4.1 1.84 4.1 4.1zm58.17-28.45h-44.74v44.74h44.74zm-23.42 65.49h-23.82v23.81h23.82zm-74.78-161.96c6.78 0 12.3-5.52 12.3-12.3 0-6.79-5.52-12.3-12.3-12.3-6.79 0-12.3 5.51-12.3 12.3 0 6.78 5.51 12.3 12.3 12.3zm-124.22 171.41c-6.79 0-12.3 5.52-12.3 12.3 0 6.78 5.51 12.3 12.3 12.3 6.78 0 12.3-5.52 12.3-12.3 0-6.78-5.52-12.3-12.3-12.3zm0-171.41c6.78 0 12.3-5.52 12.3-12.3 0-6.79-5.52-12.3-12.3-12.3-6.79 0-12.3 5.52-12.3 12.3 0 6.78 5.51 12.3 12.3 12.3zm156.05 129.02h-18.89v18.9h18.89z"/>
		</g>
	</g>
</svg>