<svg id="Layer_1" enable-background="new 0 0 55 55" viewBox="0 0 55 55" xmlns="http://www.w3.org/2000/svg"><g><circle cx="24.108" cy="24.108" fill="#ff8066" r="19.858"/><path d="m26.2626858 43.8437424c-.710083.0800171-1.4200439.1199951-2.1500244.1199951-10.9699707 0-19.8599854-8.8899536-19.8599854-19.8599834 0-10.960022 8.8900146-19.8499756 19.8599854-19.8499756.7299805 0 1.4399414.039978 2.1500244.1199951-9.960083 1.0700073-17.710083 9.5-17.710083 19.7299805 0 10.2399883 7.75 18.6699809 17.710083 19.7399883z" fill="#ff6b4d"/><path d="m39.6679764 24.1057739c0 .25-.0100098.5-.0200195.75-.3800049 7.9899903-6.8000489 14.4100342-14.7900391 14.7900391-.25.0100098-.5.0199585-.75.0199585s-.5-.0099487-.75-.0199585c-2.2900391-.1100464-4.4499512-.710022-6.3699951-1.710022-.4500732-.2199707-.8800049-.4699707-1.2999268-.75-1.8701172-1.2000122-3.460083-2.789978-4.6601563-4.6599731-.2799072-.4200439-.5299072-.8500366-.75-1.3000488-1-1.9199829-1.5998535-4.0799561-1.7099609-6.3699951-.0100098-.25-.0200195-.5-.0200195-.75s.0100098-.5.0200195-.75c.1101074-2.289978.7099609-4.4499512 1.7099609-6.3699951.2200928-.4400024.4700928-.8699951.7401123-1.289978 1.1999512-1.8699951 2.7999268-3.460022 4.6700439-4.6699829.4199219-.2700195.8498535-.5200195 1.2999268-.7400513 1.9200439-1 4.0799561-1.5999756 6.3699951-1.7099609.25-.0100098.5-.0200195.75-.0200195s.5.0100098.75.0200195c2.2900391.1099854 4.4499512.7099609 6.3699951 1.7099609.4500732.2200317.8800049.4700317 1.2999268.7400513 1.8701172 1.2099609 3.4700928 2.7999878 4.670166 4.6699829.2698975.4199829.5198975.8499756.7399902 1.289978 1 1.9200439 1.5998535 4.0800171 1.7099609 6.3699951.0100099.2499999.0200197.4999999.0200197.7499999z" fill="#f2f2ff"/><g><path d="m26.2626858 39.5137863c-.7000732.0999756-1.4200439.1499634-2.1500244.1499634-8.5999756 0-15.5600586-6.9599609-15.5600586-15.5599957 0-8.5899658 6.960083-15.5499878 15.5600586-15.5499878.7299805 0 1.4499512.0499878 2.1500244.1500244-7.5699463 1.039978-13.4100342 7.539978-13.4100342 15.3999634 0 7.8699952 5.8400879 14.3699933 13.4100342 15.4100323z" fill="#dadaf2"/></g><g><path d="m24.8579178 8.5758057v2.0700073c0 .4199829-.3399658.75-.75.75-.4099121 0-.75-.3300171-.75-.75v-2.0700073c.25-.0100098.5-.0200195.75-.0200195s.5.0100097.75.0200195z" fill="#606066"/></g><g><path d="m17.7579422 13.1057739c-.1199951.0599976-.25.1000366-.3800049.1000366-.2600098 0-.5100098-.1400146-.6500244-.3800049l-1.039917-1.7999878c.4199219-.2700195.8498535-.5200195 1.2999268-.7400513l1.039917 1.7900391c.210083.3599854.0800781.8200074-.2698975 1.0299683z" fill="#606066"/></g><g><path d="m13.097908 17.7557983c-.1400146.2399902-.3900146.3699951-.6499023.3699951-.1201172 0-.25-.0300293-.3701172-.0999756l-1.8000488-1.0400391c.2200928-.4400024.4700928-.8699951.7401123-1.289978l1.8099365 1.0299683c.3601074.210022.4799805.670044.2700195 1.0300293z" fill="#606066"/></g><g><path d="m11.3979568 24.1057739c0 .4200439-.3400879.75-.75.75h-2.0800781c-.0100098-.25-.0200195-.5-.0200195-.75s.0100098-.5.0200195-.75h2.0800781c.4099122 0 .75.3400269.75.75z" fill="#606066"/></g><g><path d="m12.8278885 31.4857788-1.8000488 1.0400391c-.2799072-.4200439-.5299072-.8500366-.75-1.3000488l1.8000488-1.039978c.3601074-.210022.8200684-.0800171 1.0200195.2800293.209961.3499755.0900879.8099975-.2700195 1.0199584z" fill="#606066"/></g><g><path d="m18.0278397 36.1358032-1.039917 1.7999878c-.4500732-.2199707-.8800049-.4699707-1.2999268-.75l1.039917-1.7999878c.210083-.3599854.6700439-.4799805 1.0300293-.2700195.3499756.210022.4799805.6600342.2698975 1.0200195z" fill="#606066"/></g><g><path d="m24.8579178 37.5657959v2.0800171c-.25.0100098-.5.0199585-.75.0199585s-.5-.0099487-.75-.0199585v-2.0800171c0-.4099731.3400879-.75.75-.75.4100342 0 .75.3400269.75.75z" fill="#606066"/></g><g><path d="m39.6679764 24.1057739c0 .25-.0100098.5-.0200195.75h-2.0800781c-.4099121 0-.75-.3299561-.75-.75 0-.4099731.3400879-.75.75-.75h2.0800781c.0100097.25.0200195.5.0200195.75z" fill="#606066"/></g><g><path d="m37.9379959 16.9857788-1.8000488 1.0400391c-.1199951.0699463-.25.0999756-.3699951.0999756-.2600098 0-.5100098-.1300049-.6500244-.3699951-.2099609-.3599854-.0900879-.8200073.2700195-1.0300293l1.8100586-1.0299683c.2698974.4199829.5198974.8499756.7399902 1.289978z" fill="#606066"/></g><g><path d="m32.5278397 11.0258179-1.039917 1.7999878c-.1400146.2399902-.3900146.3800049-.6500244.3800049-.1300049 0-.2600098-.0400391-.3800049-.1000366-.3499756-.2099609-.4799805-.6699829-.2698975-1.0299683l1.039917-1.7900391c.4500732.2200317.8800049.4700317 1.2999268.7400513z" fill="#606066"/></g><g><path d="m24.1076736 22.6144409c-.4140625 0-.75-.3359375-.75-.75v-5.1845703c0-.4140625.3359375-.75.75-.75s.75.3359375.75.75v5.1845703c0 .4140625-.3359375.75-.75.75z" fill="#606066"/></g><g><path d="m17.9851151 30.9806519c-.1918945 0-.3837891-.0732422-.5302734-.2197266-.2929688-.2929688-.2929688-.7675781 0-1.0605469l4.5366211-4.5361328c.2929688-.2929688.7675781-.2929688 1.0605469 0s.2929688.7675781 0 1.0605469l-4.5366211 4.5361328c-.1464845.1464844-.338379.2197266-.5302735.2197266z" fill="#606066"/></g><path d="m47.1031723 43.9410782v.0105515l1.1377831 1.5912476c.2130928.2980194.1789589.7065277-.0806389.9650497l-1.6629105 1.6560173c-.2587624.2576904-.6657753.2908516-.962841.0784531l-1.5934219-1.1392899c-.8116074.4848671-1.6969376.8642921-2.6350212 1.085659l-.3184967 1.9347534c-.0594865.3613396-.3718415.6264801-.7380448.6264801h-2.3479271c-.3650703 0-.6768074-.2635422-.7375526-.6235237l-.3269653-1.9377098c-.9380836-.2213669-1.8235435-.6007919-2.6244736-1.085659l-1.5934219 1.1392899c-.2970619.2123985-.7040768.1792374-.9628391-.0784531l-1.6639843-1.6570892c-.2591248-.258049-.2936668-.6656342-.081665-.9636116l1.1398849-1.6021652c-.4849319-.8010559-.8642311-1.6863861-1.085659-2.6244698l-1.9377537-.3269157c-.3599911-.0607376-.6235447-.3724785-.6235447-.7375565v-2.3479691c0-.3662071.2651424-.6785622.6264839-.7380447l1.9348145-.3185005c.2214279-.9486351.5901775-1.8339653 1.085659-2.635025l-1.1385555-1.5923271c-.2127552-.2975426-.1791039-.7053127.079546-.9639587l1.6647587-1.6647148c.2586422-.2586365.6663952-.292284.9639339-.0795441l1.5923424 1.1385193c.80093-.4848671 1.6863899-.8642941 2.6244736-1.085659l.3269653-1.9377098c.0607452-.3599815.3724823-.6235237.7375526-.6235237h2.350502c.3650703 0 .6768074.2635422.7375488.6235237l.3269691 1.9377098c.9380836.221365 1.8234138.6007919 2.6244698 1.085659l1.5923462-1.1385193c.2975388-.2127399.7052917-.1790924.963932.0795441l1.6647568 1.6647148c.2586517.258646.2923012.6664162.0795479.9639587l-1.1385536 1.5923271c.4848022.8010597.8642273 1.6863899 1.0855293 2.6244736l1.9377708.3269691c.3599815.0607413.6235275.3724784.6235275.7375526v2.350544c0 .365078-.2635536.6768188-.6235466.7375565l-1.9377518.3269157c-.221302.9380836-.6007271 1.8234138-1.0855293 2.6244697z" fill="#99dcff"/><path d="m34.0221291 31.6607304c-.2544022.2542572-.2907677.6660213-.0727272.9566441l1.1383934 1.5984917c-.4965439.7992134-.859745 1.6832733-1.0899086 2.6277962l-1.9375305.3269844c-.3512287.0605354-.6176071.3632774-.6176071.738678v2.3371735c0 .3753967.2663784.6781425.6176071.7386742l1.9375305.3269882c.2301636.9445953.6054878 1.8285828 1.0899086 2.6277924l-1.1383934 1.5984955c-.2180405.3027458-.181675.7145081.0847015.9687653l1.0536919 1.0535431c-.3027458-.1331902-.5933685-.2906227-.8718681-.4601021l-1.598568 1.1383171c-.2906227.217968-.7024612.1816025-.9567184-.0727272l-1.6710014-1.6590309c-.254406-.2542572-.2906227-.6660194-.0848522-.9687653l1.1503677-1.5984955c-.484272-.7992096-.8718662-1.683197-1.0897598-2.6277924l-1.9376774-.3269882c-.363203-.0605316-.6297302-.3632774-.6297302-.7386742v-2.3371735c0-.3754005.2665272-.6781425.6297302-.738678l1.9376774-.3269844c.2178936-.9445229.5933666-1.8285828 1.0897598-2.6277962l-1.1382465-1.5984917c-.2178917-.2906227-.181675-.7023869.072731-.9566441l1.6710014-1.6711521c.2542572-.2543297.6660957-.2906952.9567184-.0726547l1.598568 1.138319c.2784996-.1695538.5691223-.3269863.8718681-.4601765z" fill="#80d3ff"/><path d="m40.8762856 48.1904869.2178955 1.2957497-.1089478.6418533c-.0606079.3511543-.375473.6175346-.738678.6175346h-2.3493652c-.363205 0-.6780701-.2542572-.738678-.6175346l-.3269844-1.937603c-.0242462-.0121231-.0606079-.0121231-.0847054-.0242424l1.5015984-1.0655899c.7992821.4843445 1.6832695.8718643 2.6278649 1.0898323z" fill="#80d3ff"/><circle cx="39.077" cy="39.077" fill="#f2f2ff" r="4.036"/><circle cx="24.108" cy="24.108" fill="#ff8066" r="2.243"/><path d="m25.0325832 26.1537418c-.2799072.1300049-.5898438.2000122-.9199219.2000122-1.2399902 0-2.25-1.0100098-2.25-2.25 0-1.2299805 1.0100098-2.2399902 2.25-2.2399902.3300781 0 .6400146.0700073.9199219.2000122-.789917.3499756-1.3398438 1.1300049-1.3398438 2.039978.0000001.9100342.5499268 1.7000123 1.3398438 2.0499878z" fill="#ff6b4d"/></g></svg>