<svg width="33" height="34" viewBox="0 0 33 34" fill="none" xmlns="http://www.w3.org/2000/svg">
<path d="M8.87225 15.1087H7.11754C6.06249 15.1087 5.20717 14.2533 5.20717 13.1983V2.43681C5.20717 1.38176 6.06242 0.526437 7.11754 0.526437H8.87225V15.1087Z" fill="#FFE269"/>
<path d="M8.87226 0.526437V7.81759V15.1087L20.9507 10.8317V7.81759V4.80344L8.87226 0.526437Z" fill="#C3ED7A"/>
<path d="M20.9507 4.80344V10.8317H24.3238V6.22383C24.3238 5.4393 23.6878 4.80337 22.9033 4.80337L20.9507 4.80344Z" fill="#FFE269"/>
<path d="M20.9507 6.87492V10.8317H24.3238V7.47783C23.2504 7.14163 22.1201 6.93445 20.9507 6.87492Z" fill="#F9AD48"/>
<path d="M20.2466 6.85697C15.4938 6.85697 11.3102 9.29113 8.87226 12.9802V15.1086L20.9506 10.8317V7.81751V6.87492C20.7175 6.86303 20.4827 6.85697 20.2466 6.85697Z" fill="#90B746"/>
<path d="M20.2466 31.4417C26.2996 31.4417 31.2066 26.5348 31.2066 20.4818C31.2066 14.4287 26.2996 9.52179 20.2466 9.52179C14.1936 9.52179 9.28662 14.4287 9.28662 20.4818C9.28662 26.5348 14.1936 31.4417 20.2466 31.4417Z" fill="#FF8A8A"/>
<path d="M19.8042 19.7683C18.6099 20.3971 18.1786 21.8931 18.8548 23.0613L20.6826 26.2185C20.6826 26.2185 19.2349 29.3671 21.4128 31.3794C23.5126 31.1572 25.4338 30.3407 27.0092 29.1032L19.8042 19.7683Z" fill="#D65B5B"/>
<path d="M20.2466 27.9446C24.3682 27.9446 27.7094 24.6034 27.7094 20.4818C27.7094 16.3602 24.3682 13.0189 20.2466 13.0189C16.125 13.0189 12.7838 16.3602 12.7838 20.4818C12.7838 24.6034 16.125 27.9446 20.2466 27.9446Z" fill="white"/>
<path d="M20.2466 27.9445C21.9946 27.9445 23.6009 27.3419 24.8728 26.3354L19.8041 19.7683C18.6099 20.3971 18.1785 21.8931 18.8547 23.0612L20.6825 26.2185C20.6825 26.2185 20.3444 26.9561 20.2407 27.9444C20.2427 27.9444 20.2447 27.9445 20.2466 27.9445Z" fill="#B7B7B7"/>
<path d="M20.2466 24.4105C22.4164 24.4105 24.1754 22.6516 24.1754 20.4818C24.1754 18.312 22.4164 16.553 20.2466 16.553C18.0768 16.553 16.3178 18.312 16.3178 20.4818C16.3178 22.6516 18.0768 24.4105 20.2466 24.4105Z" fill="#FF8A8A"/>
<path d="M19.8042 19.7683C18.6099 20.3971 18.1786 21.8931 18.8548 23.0612L19.6052 24.3576C19.8141 24.3919 20.0281 24.4106 20.2466 24.4106C21.1813 24.4106 22.0394 24.0836 22.7139 23.5383L19.8042 19.7683Z" fill="#D65B5B"/>
<path d="M19.8042 19.7683C20.3433 19.3638 21.1103 19.4848 21.4988 20.0357L23.7807 23.2719L26.8005 22.8302C27.8046 22.6832 28.7945 23.1745 29.2852 24.0627L31.6328 28.3139C32.0094 28.9957 31.8412 29.8495 31.2341 30.3376L28.9373 32.1841C28.3371 32.6667 27.4785 32.6541 26.8927 32.1541L25.0578 30.5876C24.7027 30.2845 24.2367 30.1439 23.7731 30.2002L23.7708 30.2004C23.171 30.2731 22.5787 30.0161 22.2222 29.5282C21.9645 29.1755 21.8551 28.7358 21.918 28.3035L22.284 25.782L19.509 21.3602C19.1784 20.8335 19.3068 20.1414 19.8042 19.7683Z" fill="#92CEFF"/>
<path d="M21.964 27.9862L23.3972 28.5738C23.7099 28.7021 23.9995 28.3478 23.8117 28.0669L22.284 25.7821L21.964 27.9862Z" fill="#5498C6"/>
<path d="M5.34348 13.9039C5.62434 14.6094 6.31203 15.1087 7.11762 15.1087H8.87233V12.9802C8.87225 12.9802 7.82311 14.4221 5.34348 13.9039Z" fill="#F9AD48"/>
<path d="M8.87225 13.2424C9.16306 13.2424 9.39869 13.0066 9.39869 12.7159V0.526437C9.39869 0.235708 9.16298 0 8.87225 0H7.11754C5.77394 0 4.68081 1.09313 4.68081 2.43689V13.1983C4.68081 14.5421 5.77394 15.6352 7.11754 15.6352H7.41923C7.70996 15.6352 7.94567 15.3994 7.94567 15.1087C7.94567 14.8181 7.70996 14.5823 7.41923 14.5823H7.11754C6.35447 14.5823 5.73368 13.9614 5.73368 13.1983V2.43689C5.73368 1.67381 6.35447 1.05287 7.11754 1.05287H8.34582V12.7159C8.34582 13.0066 8.58152 13.2424 8.87225 13.2424Z" fill="#333333"/>
<path d="M24.3237 8.60328C24.6144 8.60328 24.8502 8.3675 24.8502 8.07685V6.22383C24.8502 5.15036 23.9768 4.27693 22.9033 4.27693H21.0409L11.3893 0.859287C11.1152 0.761911 10.8143 0.905605 10.7173 1.17986C10.6202 1.45396 10.7637 1.75479 11.0378 1.85178L20.4242 5.17554V7.47534C20.4242 7.76599 20.66 8.00178 20.9506 8.00178C21.2414 8.00178 21.4771 7.76599 21.4771 7.47534V5.33003H22.9033C23.3962 5.33003 23.7972 5.73104 23.7972 6.22398V8.077C23.7973 8.3675 24.033 8.60328 24.3237 8.60328Z" fill="#333333"/>
<path d="M31.0545 22.3864C31.343 22.4221 31.6063 22.2184 31.6425 21.9298C31.7025 21.4527 31.733 20.9657 31.733 20.4818C31.733 14.148 26.5802 8.99527 20.2465 8.99527C13.9128 8.99527 8.76003 14.148 8.76003 20.4818C8.76003 26.403 13.1967 31.3159 19.0799 31.9096C19.098 31.9114 19.1158 31.9123 19.1335 31.9123C19.4005 31.9123 19.6292 31.7099 19.6566 31.4387C19.6857 31.1493 19.4749 30.8912 19.1856 30.862C13.8422 30.3228 9.81283 25.8603 9.81283 20.4818C9.81283 14.7287 14.4933 10.0482 20.2464 10.0482C25.9994 10.0482 30.6799 14.7287 30.6799 20.4818C30.6799 20.9219 30.6523 21.3647 30.5976 21.7982C30.5616 22.0868 30.7661 22.3501 31.0545 22.3864Z" fill="#333333"/>
<path d="M27.183 20.4818C27.183 20.7724 27.4186 21.0082 27.7093 21.0082C28.0002 21.0082 28.2358 20.7724 28.2358 20.4818C28.2358 16.0764 24.6518 12.4924 20.2465 12.4924C15.8412 12.4924 12.2573 16.0764 12.2573 20.4818C12.2573 24.3686 15.0316 27.6776 18.8537 28.3499C18.8846 28.3553 18.9153 28.3579 18.9456 28.3579C19.1964 28.3579 19.4185 28.178 19.4635 27.9225C19.5138 27.6361 19.3227 27.3632 19.0362 27.3128C15.7183 26.7293 13.3103 23.8563 13.3103 20.4817C13.3103 16.657 16.422 13.5453 20.2466 13.5453C24.0712 13.5453 27.183 16.657 27.183 20.4818Z" fill="#333333"/>
<path d="M20.2466 17.0793C22.1227 17.0793 23.6489 18.6057 23.6489 20.4818C23.6489 20.7724 23.8846 21.0082 24.1753 21.0082C24.4661 21.0082 24.7017 20.7724 24.7017 20.4818C24.7017 18.0251 22.7031 16.0265 20.2465 16.0265C17.7899 16.0265 15.7912 18.0251 15.7912 20.4818C15.7912 22.3071 16.8845 23.9288 18.5766 24.6132C18.6413 24.6395 18.708 24.6518 18.7738 24.6518C18.9819 24.6518 19.1792 24.5275 19.262 24.3226C19.371 24.0531 19.2409 23.7462 18.9714 23.6373C17.6791 23.1145 16.8441 21.876 16.8441 20.4818C16.8443 18.6057 18.3706 17.0793 20.2466 17.0793Z" fill="#333333"/>
<path d="M29.7461 23.8082C29.1528 22.7342 27.9381 22.1314 26.7243 22.3094L24.0245 22.7041L21.929 19.7324C21.6584 19.3486 21.2539 19.0967 20.7901 19.0236C20.3261 18.9504 19.8639 19.0652 19.4883 19.3471C18.7776 19.8804 18.5909 20.8875 19.064 21.6415L22.5498 27.1575C22.705 27.4032 23.0303 27.4764 23.2761 27.3212C23.5219 27.1658 23.5951 26.8407 23.4398 26.5948L19.9549 21.0803C19.7714 20.7879 19.844 20.3966 20.1201 20.1892C20.2661 20.0797 20.4456 20.0351 20.6258 20.0636C20.8061 20.0921 20.9633 20.1899 21.0684 20.339L23.3503 23.5752C23.4648 23.7373 23.6606 23.8221 23.8568 23.7927L26.8767 23.3511C27.6598 23.2362 28.4419 23.6251 28.8242 24.3174L31.1719 28.5685C31.4254 29.0274 31.3128 29.5988 30.9043 29.9274L28.6075 31.7739C28.2048 32.0976 27.6275 32.0892 27.2346 31.7537L25.3997 30.1873C24.9337 29.7894 24.3177 29.6038 23.7074 29.6778C23.2977 29.7277 22.8911 29.5512 22.6472 29.2175C22.4698 28.9746 22.3958 28.6769 22.439 28.3792L22.4695 28.1691C22.5112 27.8813 22.3119 27.6141 22.0241 27.5724C21.737 27.5313 21.4693 27.7299 21.4275 28.0177L21.3969 28.2278C21.3139 28.7998 21.456 29.372 21.7971 29.8387C22.2655 30.4796 23.0457 30.8186 23.8365 30.7227C24.1529 30.6839 24.4736 30.781 24.7159 30.988L26.5509 32.5544C26.9481 32.8934 27.4404 33.0637 27.9334 33.0637C28.4052 33.0635 28.8775 32.9075 29.2671 32.5944L31.564 30.7478C32.3721 30.0978 32.595 28.9672 32.0936 28.0593L29.7461 23.8082Z" fill="#333333"/>
<path d="M0.526437 8.34403H2.55416C2.84496 8.34403 3.08059 8.10832 3.08059 7.81759C3.08059 7.52686 2.84489 7.29115 2.55416 7.29115H0.526437C0.235708 7.29115 0 7.52694 0 7.81759C0 8.10824 0.235708 8.34403 0.526437 8.34403Z" fill="#333333"/>
<path d="M2.32941 13.6736L0.410641 14.3296C0.135532 14.4235 -0.0111922 14.723 0.0827644 14.9979C0.157603 15.2166 0.361992 15.3542 0.580913 15.3542C0.637411 15.3542 0.69492 15.3452 0.751263 15.3258L2.67003 14.6698C2.94514 14.5758 3.09186 14.2764 2.99783 14.0015C2.90372 13.7263 2.60428 13.5789 2.32941 13.6736Z" fill="#333333"/>
<path d="M0.410641 1.30552L2.32941 1.96151C2.38591 1.98094 2.44326 1.99003 2.49976 1.99003C2.7186 1.99003 2.92307 1.8524 2.99783 1.63371C3.09186 1.35876 2.94514 1.05932 2.67003 0.965367L0.751263 0.309381C0.476309 0.214958 0.176954 0.362149 0.0827644 0.637257C-0.0111922 0.912133 0.135532 1.21149 0.410641 1.30552Z" fill="#333333"/>
</svg>
