<svg id="Outline_color_ok" viewBox="0 0 64 64" xmlns="http://www.w3.org/2000/svg"><path d="m52 42c5.523 0 10-4.477 10-10s-4.477-10-10-10c-.017 0-.034.003-.051.003.027-.331.051-.664.051-1.003 0-6.446-5.086-11.689-11.461-11.973-2.164-4.172-6.514-7.027-11.539-7.027-6.843 0-12.439 5.29-12.95 12.003-.017 0-.033-.003-.05-.003-7.732 0-14 6.268-14 14s6.268 14 14 14z" fill="#88d4d5"/><circle cx="15" cy="13" fill="#4dafa9" r="3"/><circle cx="53" cy="21" fill="#4dafa9" r="3"/><path d="m37 62v-20h-5l9.019-10 8.981 10h-5v20z" fill="#fcd554"/><path d="m19 32v20h-5l9.019 10 8.981-10h-5v-20z" fill="#f9ae43"/><g fill="#231f20"><path d="m51.689 19.3c-.456 0-.868-.313-.974-.777-1.095-4.784-5.298-8.277-10.22-8.494-.356-.016-.679-.221-.843-.538-2.084-4.004-6.166-6.491-10.653-6.491-5.043 0-9.575 3.186-11.278 7.928-.187.52-.763.792-1.279.603-.52-.187-.79-.759-.604-1.279 1.988-5.534 7.277-9.252 13.161-9.252 5.047 0 9.652 2.694 12.154 7.068 5.57.492 10.259 4.536 11.511 10.008.123.539-.213 1.075-.752 1.198-.074.018-.149.025-.224.025z"/><path d="m53.999 42.8c-.466 0-.882-.327-.979-.8-.11-.541.238-1.069.779-1.18 4.172-.851 7.2-4.56 7.2-8.82 0-3.729-2.348-7.115-5.841-8.423-.518-.194-.779-.77-.586-1.288.194-.518.772-.779 1.287-.585 4.271 1.6 7.14 5.738 7.14 10.296 0 5.207-3.701 9.74-8.8 10.78-.067.014-.135.02-.201.02z"/><path d="m15.001 42.96c-.023 0-.047 0-.071-.002-7.811-.548-13.93-7.119-13.93-14.958 0-6.772 4.572-12.733 11.12-14.496.619-.166 1.265.326 1.265.966 0 .487-.345.893-.805.982-5.644 1.548-9.58 6.699-9.58 12.548 0 6.793 5.302 12.487 12.07 12.962.551.039.966.517.927 1.067-.036.527-.476.93-.996.93z"/><path d="m15 17c-2.206 0-4-1.794-4-4s1.794-4 4-4 4 1.794 4 4-1.794 4-4 4zm0-6c-1.103 0-2 .897-2 2s.897 2 2 2 2-.897 2-2-.897-2-2-2z"/><path d="m53 25c-2.206 0-4-1.794-4-4s1.794-4 4-4 4 1.794 4 4-1.794 4-4 4zm0-6c-1.103 0-2 .897-2 2s.897 2 2 2 2-.897 2-2-.897-2-2-2z"/><path d="m45 63h-8c-.553 0-1-.448-1-1v-19h-4c-.396 0-.753-.232-.914-.594-.16-.361-.093-.783.172-1.076l9.02-10c.189-.21.459-.33.742-.33.283 0 .554.121.743.332l8.98 10c.264.293.33.715.169 1.075-.16.36-.519.593-.913.593h-4v19c0 .552-.447 1-1 1zm-7-2h6v-19c0-.552.447-1 1-1h2.758l-6.74-7.505-6.769 7.505h2.751c.553 0 1 .448 1 1z"/><path d="m23.02 63c-.283 0-.553-.12-.742-.33l-9.02-10c-.265-.293-.332-.715-.172-1.076.161-.361.519-.594.914-.594h4v-19c0-.552.447-1 1-1h8c.553 0 1 .448 1 1v19h4c.395 0 .753.232.913.593.161.36.095.782-.169 1.075l-8.98 10c-.189.211-.46.332-.743.332zm-6.771-10 6.769 7.505 6.74-7.505h-2.758c-.553 0-1-.448-1-1v-19h-6v19c0 .552-.447 1-1 1z"/></g></svg>