<svg clip-rule="evenodd" fill-rule="evenodd" stroke-linejoin="round" stroke-miterlimit="2" viewBox="0 0 510 510" xmlns="http://www.w3.org/2000/svg"><g><g><g><path d="m377.013 333.214c-36.849 0-55.351 44.652-29.289 70.714 4.797 4.796 4.797 12.599 0 17.396l-26.46 26.46c-4.797 4.797-12.6 4.797-17.396 0-26.062-26.062-70.714-7.56-70.714 29.289 0 6.808-5.504 12.29-12.291 12.29h-37.423c-6.786 0-12.291-5.482-12.291-12.29 0-36.893-44.629-55.373-70.713-29.289-4.797 4.797-12.578 4.797-17.375 0l-26.482-26.46c-4.796-4.797-4.796-12.6 0-17.396 26.062-26.062 7.582-70.714-29.289-70.714-6.786 0-12.29-5.504-12.29-12.29v-37.424c0-6.786 5.504-12.291 12.29-12.291 36.871 0 55.351-44.652 29.289-70.713-4.796-4.797-4.796-12.578 0-17.375l26.482-26.482c4.797-4.796 12.578-4.796 17.375 0 26.061 26.062 70.713 7.582 70.713-29.289 0-6.786 5.505-12.29 12.291-12.29h37.423c6.787 0 12.291 5.504 12.291 12.29 0 36.871 44.652 55.351 70.714 29.289 4.796-4.796 12.599-4.796 17.396 0l26.46 26.482c4.797 4.797 4.797 12.578 0 17.375-26.062 26.061-7.56 70.713 29.289 70.713 6.808 0 12.29 5.505 12.29 12.291v37.424c0 6.786-5.482 12.29-12.29 12.29z" fill="#fdcd56"/><path d="m202.163 410.305c59.514 0 108.082-48.568 108.082-108.082 0-59.541-48.568-108.083-108.082-108.083-59.541 0-108.083 48.542-108.083 108.083 0 59.514 48.542 108.082 108.083 108.082z" fill="#f4f6f8"/><path d="m145.192 299.854h23.021v42.565h-23.021z" fill="#f76c82"/><path d="m190.657 278.596h23.021v63.823h-23.021z" fill="#fdcd56"/><path d="m236.112 257.337h23.021v85.082h-23.021z" fill="#c6ea94"/></g><g><g fill="#cad0d7"><path d="m476.279 75.201 12.306 12.306c2.228 2.228 2.228 5.847 0 8.075l-19.26 19.26c-2.228 2.228-5.861 2.228-8.074 0l-12.307-12.307c-2.228-2.228-2.228-5.846 0-8.074l19.26-19.26c2.228-2.228 5.847-2.228 8.075 0z"/><path d="m296.347 87.507 12.306-12.306c2.228-2.228 5.847-2.228 8.075 0l19.274 19.26c2.214 2.228 2.214 5.846 0 8.074l-12.321 12.307c-2.213 2.228-5.847 2.228-8.06 0l-19.274-19.26c-2.228-2.228-2.228-5.847 0-8.075z"/><path d="m378.051 33.706h28.83v49.196h-28.83z"/></g><path d="m364.429 20.637h56.089c3.14 0 5.697 2.557 5.697 5.712v17.061c0 3.156-2.557 5.713-5.697 5.713h-56.089c-3.156 0-5.713-2.557-5.713-5.713v-17.061c0-3.155 2.557-5.712 5.713-5.712z" fill="#a9b0bb"/><path d="m392.466 273.839c56.478 0 102.534-46.055 102.534-102.519 0-56.478-46.056-102.534-102.534-102.534-56.464 0-102.519 46.056-102.519 102.534 0 56.464 46.055 102.519 102.519 102.519z" fill="#f76c82"/><path d="m392.466 243.767c39.899 0 72.446-32.548 72.446-72.447s-32.547-72.446-72.446-72.446-72.447 32.547-72.447 72.446 32.548 72.447 72.447 72.447z" fill="#f4f6f8"/><path d="m392.466 185.719c7.937 0 14.415-6.46 14.415-14.398 0-7.937-6.478-14.415-14.415-14.415-7.938 0-14.415 6.478-14.415 14.415 0 7.938 6.477 14.398 14.415 14.398z" fill="#fdcd56"/></g></g><path d="m396.113 280.779c.126.889.19 1.797.19 2.721v37.424c0 10.651-8.604 19.29-19.29 19.29-30.622 0-45.997 37.106-24.339 58.764 7.526 7.526 7.526 19.77 0 27.296l-26.46 26.46c-7.526 7.526-19.77 7.526-27.296 0-21.658-21.658-58.764-6.283-58.764 24.339 0 10.686-8.639 19.29-19.291 19.29h-37.423c-10.652 0-19.291-8.604-19.291-19.29 0-30.659-37.088-46.015-58.764-24.339-7.529 7.529-19.744 7.529-27.272.002l-26.483-26.462c-7.527-7.526-7.527-19.77 0-27.296 21.657-21.658 6.301-58.764-24.34-58.764-10.651 0-19.29-8.639-19.29-19.29v-37.424c0-10.652 8.639-19.291 19.29-19.291 30.641 0 45.997-37.106 24.34-58.764-7.53-7.529-7.53-19.744 0-27.274l26.481-26.481c7.53-7.53 19.745-7.53 27.274 0 21.658 21.657 58.764 6.301 58.764-24.34 0-10.651 8.639-19.29 19.291-19.29h37.423c10.652 0 19.291 8.639 19.291 19.29 0 24.111 22.959 38.782 43.302 33.381 1.781-18.426 8.159-35.542 17.968-50.18l-10.027-10.019c-4.96-4.96-4.96-13.015 0-17.974l12.306-12.307c4.96-4.959 13.015-4.959 17.973-.002l10.026 10.019c11.727-7.86 25.043-13.518 39.349-16.373v-7.772h-6.622c-7.022 0-12.713-5.691-12.713-12.713v-17.061c0-7.022 5.691-12.712 12.713-12.712h56.089c6.993 0 12.697 5.685 12.697 12.712v17.061c0 7.027-5.704 12.713-12.697 12.713h-6.637v7.771c14.31 2.854 27.629 8.512 39.358 16.373l10.015-10.016c4.96-4.959 13.015-4.959 17.974 0l12.307 12.307c4.959 4.959 4.959 13.014 0 17.974l-10.016 10.015c11.667 17.408 18.481 38.32 18.481 60.773 0 59.098-47.229 107.524-105.887 109.459zm-113.101-105.643c-27.521 4.725-56.858-15.48-56.858-47.786 0-2.921-2.369-5.29-5.291-5.29h-37.423c-2.921 0-5.291 2.369-5.291 5.29 0 43.102-52.197 64.705-82.663 34.239-2.064-2.064-5.411-2.064-7.475 0l-26.482 26.482c-2.064 2.064-2.064 5.411 0 7.475 30.466 30.466 8.863 82.663-34.239 82.663-2.921 0-5.29 2.37-5.29 5.291v37.424c0 2.921 2.369 5.29 5.29 5.29 43.102 0 64.705 52.197 34.239 82.663-2.067 2.068-2.067 5.43 0 7.497l26.482 26.46c2.064 2.064 5.411 2.064 7.475 0 30.492-30.492 82.663-8.889 82.663 34.239 0 2.931 2.37 5.29 5.291 5.29h37.423c2.922 0 5.291-2.359 5.291-5.29 0-43.076 52.197-64.705 82.663-34.239 2.068 2.067 5.43 2.067 7.497 0l26.46-26.46c2.067-2.067 2.067-5.429 0-7.497-30.466-30.466-8.837-82.663 34.239-82.663 2.931 0 5.29-2.369 5.29-5.29v-37.424c0-1.219-.41-2.342-1.1-3.237-53.818-5.542-96.298-50.334-98.191-105.127zm27.007-75.788c3.255-3.724 6.757-7.227 10.48-10.483l-7.808-7.802-10.482 10.481zm75.032-37.313c2.451-.165 4.923-.249 7.415-.249 2.491 0 4.964.084 7.415.249v-5.912h-14.83zm79.391 26.828c3.723 3.255 7.226 6.758 10.481 10.481l7.8-7.799-10.482-10.482zm-98.726-61.226v14.486h53.499v-14.486zm26.75 239.202c52.622 0 95.534-42.91 95.534-95.519 0-52.622-42.912-95.534-95.534-95.534-52.608 0-95.519 42.912-95.519 95.534 0 52.608 42.911 95.519 95.519 95.519zm0-16.072c-43.754 0-79.447-35.693-79.447-79.447s35.693-79.446 79.447-79.446 79.446 35.692 79.446 79.446-35.692 79.447-79.446 79.447zm0-14c36.044 0 65.446-29.403 65.446-65.447s-29.402-65.446-65.446-65.446-65.447 29.402-65.447 65.446 29.403 65.447 65.447 65.447zm17.85-73.397c1.089 2.431 1.696 5.122 1.696 7.95 0 10.765-8.781 19.531-19.546 19.531s-19.546-8.766-19.546-19.531c0-10.763 8.783-19.546 19.546-19.546 2.828 0 5.519.607 7.95 1.696l16.031-16.03c2.732-2.732 7.167-2.732 9.899 0s2.732 7.168 0 9.899zm-17.85 13.481c3.051 0 5.546-2.479 5.546-5.531 0-3.054-2.492-5.546-5.546-5.546s-5.546 2.492-5.546 5.546c0 3.052 2.494 5.531 5.546 5.531zm-190.303 240.454c-63.398 0-115.083-51.713-115.083-115.082 0-63.398 51.685-115.083 115.083-115.083 63.369 0 115.082 51.685 115.082 115.083 0 63.369-51.713 115.082-115.082 115.082zm0-14c55.66 0 101.082-45.422 101.082-101.082 0-55.685-45.422-101.083-101.082-101.083-55.685 0-101.083 45.398-101.083 101.083 0 55.66 45.398 101.082 101.083 101.082zm-56.971-110.451h23.021c3.866 0 7 3.134 7 7v42.565c0 3.866-3.134 7-7 7h-23.021c-3.866 0-7-3.134-7-7v-42.565c0-3.866 3.134-7 7-7zm7 14v28.565h9.021v-28.565zm38.465-35.258h23.021c3.866 0 7 3.134 7 7v63.823c0 3.866-3.134 7-7 7h-23.021c-3.866 0-7-3.134-7-7v-63.823c0-3.866 3.134-7 7-7zm7 14v49.823h9.021v-49.823zm38.455-35.259h23.021c3.866 0 7 3.134 7 7v85.082c0 3.866-3.134 7-7 7h-23.021c-3.866 0-7-3.134-7-7v-85.082c0-3.866 3.134-7 7-7zm7 14v71.082h9.021v-71.082z"/></g></svg>