<?xml version="1.0" encoding="UTF-8"?>
<svg xmlns="http://www.w3.org/2000/svg" xmlns:xlink="http://www.w3.org/1999/xlink" version="1.1" id="Capa_1" x="0px" y="0px" viewBox="0 0 512 512" style="enable-background:new 0 0 512 512;" xml:space="preserve" width="512" height="512">
<g>
	<g>
		<g>
			<g>
				<path style="fill:#ADE194;" d="M62.662,73.821H26.305c-8.274,0-14.982-6.707-14.982-14.982V22.482&#10;&#9;&#9;&#9;&#9;&#9;c0-8.274,6.707-14.982,14.982-14.982h36.358c8.274,0,14.982,6.707,14.982,14.982v36.358&#10;&#9;&#9;&#9;&#9;&#9;C77.644,67.113,70.936,73.821,62.662,73.821z"/>
			</g>
			<g>
				<path style="fill:#ADE194;" d="M249.03,73.821h-36.358c-8.274,0-14.982-6.707-14.982-14.982V22.482&#10;&#9;&#9;&#9;&#9;&#9;c0-8.274,6.707-14.982,14.982-14.982h36.358c8.274,0,14.982,6.707,14.982,14.982v36.358&#10;&#9;&#9;&#9;&#9;&#9;C264.012,67.113,257.304,73.821,249.03,73.821z"/>
			</g>
			<g>
				<path style="fill:#ADE194;" d="M435.398,73.821H399.04c-8.274,0-14.982-6.707-14.982-14.982V22.482&#10;&#9;&#9;&#9;&#9;&#9;c0-8.274,6.707-14.982,14.982-14.982h36.358c8.274,0,14.982,6.707,14.982,14.982v36.358&#10;&#9;&#9;&#9;&#9;&#9;C450.379,67.113,443.672,73.821,435.398,73.821z"/>
			</g>
		</g>
		<g>
			<g>
				<path style="fill:#ADE194;" d="M62.662,215.672H26.305c-8.274,0-14.982-6.707-14.982-14.982v-36.358&#10;&#9;&#9;&#9;&#9;&#9;c0-8.274,6.707-14.982,14.982-14.982h36.358c8.274,0,14.982,6.707,14.982,14.982v36.358&#10;&#9;&#9;&#9;&#9;&#9;C77.644,208.964,70.936,215.672,62.662,215.672z"/>
			</g>
			<g>
				<path style="fill:#ADE194;" d="M435.398,215.672H399.04c-8.274,0-14.982-6.707-14.982-14.982v-36.358&#10;&#9;&#9;&#9;&#9;&#9;c0-8.274,6.707-14.982,14.982-14.982h36.358c8.274,0,14.982,6.707,14.982,14.982v36.358&#10;&#9;&#9;&#9;&#9;&#9;C450.379,208.964,443.672,215.672,435.398,215.672z"/>
			</g>
		</g>
		<g>
			<g>
				<path style="fill:#97DA7B;" d="M77.64,22.48v36.36c0,8.27-6.7,14.98-14.98,14.98H37.58c8.27,0,14.98-6.71,14.98-14.98V22.48&#10;&#9;&#9;&#9;&#9;&#9;c0-8.27-6.71-14.98-14.98-14.98h25.08C70.94,7.5,77.64,14.21,77.64,22.48z"/>
			</g>
			<g>
				<path style="fill:#97DA7B;" d="M264.01,22.48v36.36c0,8.27-6.71,14.98-14.98,14.98h-25.08c8.27,0,14.98-6.71,14.98-14.98V22.48&#10;&#9;&#9;&#9;&#9;&#9;c0-8.27-6.71-14.98-14.98-14.98h25.08C257.3,7.5,264.01,14.21,264.01,22.48z"/>
			</g>
			<g>
				<path style="fill:#97DA7B;" d="M450.38,22.48v36.36c0,8.27-6.71,14.98-14.98,14.98h-25.09c8.28,0,14.98-6.71,14.98-14.98V22.48&#10;&#9;&#9;&#9;&#9;&#9;c0-8.27-6.7-14.98-14.98-14.98h25.09C443.67,7.5,450.38,14.21,450.38,22.48z"/>
			</g>
		</g>
		<g>
			<g>
				<path style="fill:#97DA7B;" d="M77.64,164.33v36.36c0,8.27-6.7,14.98-14.98,14.98H37.58c8.27,0,14.98-6.71,14.98-14.98v-36.36&#10;&#9;&#9;&#9;&#9;&#9;c0-8.27-6.71-14.98-14.98-14.98h25.08C70.94,149.35,77.64,156.06,77.64,164.33z"/>
			</g>
			<g>
				<path style="fill:#97DA7B;" d="M450.38,164.33v36.36c0,8.27-6.71,14.98-14.98,14.98h-25.09c8.28,0,14.98-6.71,14.98-14.98&#10;&#9;&#9;&#9;&#9;&#9;v-36.36c0-8.27-6.7-14.98-14.98-14.98h25.09C443.67,149.35,450.38,156.06,450.38,164.33z"/>
			</g>
		</g>
		<g>
			<g>
				<path style="fill:#FFB09E;" d="M313.242,173.732v114.571c0,23.669-19.188,42.857-42.857,42.857H204.24&#10;&#9;&#9;&#9;&#9;&#9;c-23.669,0-42.857-19.188-42.857-42.857l0-114.571H313.242z"/>
				<path style="fill:#FF9E88;" d="M288.158,173.732v114.571c0,23.669-19.188,42.857-42.857,42.857h25.084&#10;&#9;&#9;&#9;&#9;&#9;c23.669,0,42.857-19.188,42.857-42.857V173.732H288.158z"/>
				<path style="fill:#FF9E88;" d="M161.384,261.897h-4.588c-15.337,0-27.769-12.433-27.769-27.769v0&#10;&#9;&#9;&#9;&#9;&#9;c0-15.337,12.433-27.769,27.769-27.769h4.588V261.897z"/>
				<path style="fill:#F78B7F;" d="M313.242,261.897h4.588c15.337,0,27.769-12.433,27.769-27.769v0&#10;&#9;&#9;&#9;&#9;&#9;c0-15.337-12.433-27.769-27.769-27.769h-4.588V261.897z"/>
			</g>
			<path style="fill:#A79BA7;" d="M207.589,173.732c0,0-15.463,31.795-46.206,32.626l-21.948-45.132&#10;&#9;&#9;&#9;&#9;c-2.06-4.235-3.13-8.883-3.13-13.592v0c0-17.165,13.915-31.081,31.081-31.081h123.448c10.655,0,19.293,8.638,19.293,19.293v2.658&#10;&#9;&#9;&#9;&#9;h0c10.655,0,19.293,8.638,19.293,19.293v0c0,14.385-3.958,28.493-11.44,40.78l-4.739,7.782&#10;&#9;&#9;&#9;&#9;C313.242,206.358,261.17,206.129,207.589,173.732"/>
			<path style="fill:#A79BA7;" d="M329.42,157.8c0,7.19-0.99,14.31-2.92,21.17c-1.92,6.87-4.78,13.47-8.52,19.61l-4.74,7.78&#10;&#9;&#9;&#9;&#9;c0,0-9.1-0.04-23.59-2.45l3.25-5.33c3.74-6.14,6.6-12.74,8.52-19.61c1.93-6.86,2.92-13.98,2.92-21.17&#10;&#9;&#9;&#9;&#9;c0-5.33-2.16-10.16-5.65-13.65c-3.49-3.49-8.32-5.65-13.65-5.65v-2.65c0-10.66-8.63-19.3-19.29-19.3h25.08&#10;&#9;&#9;&#9;&#9;c10.66,0,19.3,8.64,19.3,19.3v2.65c5.33,0,10.15,2.16,13.64,5.65C327.26,147.64,329.42,152.47,329.42,157.8z"/>
			<path style="fill:#C38F86;" d="M351.504,371.532H122.515h-15.458c-20.01,0-37.051,14.544-40.196,34.305l-15.7,98.663h71.353&#10;&#9;&#9;&#9;&#9;h269.891L351.504,371.532z"/>
			<rect x="207.589" y="331.16" style="fill:#FF9E88;" width="58.84" height="40.372"/>
			<rect x="241.345" y="331.16" style="fill:#F78B7F;" width="25.084" height="40.372"/>
		</g>
		<circle style="fill:#D9B1EE;" cx="392.405" cy="396.229" r="108.271"/>
		<path style="fill:#CB97E7;" d="M392.405,287.957c-4.575,0-9.082,0.287-13.508,0.838c53.421,6.649,94.764,52.212,94.764,107.434&#10;&#9;&#9;&#9;s-41.342,100.785-94.764,107.434c4.425,0.551,8.933,0.838,13.508,0.838c59.797,0,108.271-48.475,108.271-108.271&#10;&#9;&#9;&#9;S452.202,287.957,392.405,287.957z"/>
		<circle style="fill:#F4F7F8;" cx="392.405" cy="396.229" r="81.256"/>
		<path style="fill:#E7ECF1;" d="M392.405,314.972c-4.265,0-8.453,0.335-12.542,0.971c38.871,6.049,68.714,39.745,68.714,80.285&#10;&#9;&#9;&#9;s-29.844,74.237-68.714,80.285c4.089,0.636,8.277,0.971,12.542,0.971c44.805,0,81.256-36.451,81.256-81.256&#10;&#9;&#9;&#9;S437.21,314.972,392.405,314.972z"/>
	</g>
	<g>
		<g>
			<g>
				<path style="fill:none;stroke:#000000;stroke-width:15;stroke-linecap:round;stroke-linejoin:round;stroke-miterlimit:10;" d="&#10;&#9;&#9;&#9;&#9;&#9;M62.662,73.821H26.305c-8.274,0-14.982-6.707-14.982-14.982V22.482c0-8.274,6.707-14.982,14.982-14.982h36.358&#10;&#9;&#9;&#9;&#9;&#9;c8.274,0,14.982,6.707,14.982,14.982v36.358C77.644,67.113,70.936,73.821,62.662,73.821z"/>
				
					<polyline style="fill:none;stroke:#000000;stroke-width:15;stroke-linecap:round;stroke-linejoin:round;stroke-miterlimit:10;" points="&#10;&#9;&#9;&#9;&#9;&#9;37.588,34.57 54.195,48.516 89.96,7.5 &#9;&#9;&#9;&#9;"/>
			</g>
			<g>
				<path style="fill:none;stroke:#000000;stroke-width:15;stroke-linecap:round;stroke-linejoin:round;stroke-miterlimit:10;" d="&#10;&#9;&#9;&#9;&#9;&#9;M249.03,73.821h-36.358c-8.274,0-14.982-6.707-14.982-14.982V22.482c0-8.274,6.707-14.982,14.982-14.982h36.358&#10;&#9;&#9;&#9;&#9;&#9;c8.274,0,14.982,6.707,14.982,14.982v36.358C264.012,67.113,257.304,73.821,249.03,73.821z"/>
				
					<polyline style="fill:none;stroke:#000000;stroke-width:15;stroke-linecap:round;stroke-linejoin:round;stroke-miterlimit:10;" points="&#10;&#9;&#9;&#9;&#9;&#9;223.956,34.57 240.563,48.516 276.328,7.5 &#9;&#9;&#9;&#9;"/>
			</g>
			<g>
				<path style="fill:none;stroke:#000000;stroke-width:15;stroke-linecap:round;stroke-linejoin:round;stroke-miterlimit:10;" d="&#10;&#9;&#9;&#9;&#9;&#9;M435.398,73.821H399.04c-8.274,0-14.982-6.707-14.982-14.982V22.482c0-8.274,6.707-14.982,14.982-14.982h36.358&#10;&#9;&#9;&#9;&#9;&#9;c8.274,0,14.982,6.707,14.982,14.982v36.358C450.379,67.113,443.672,73.821,435.398,73.821z"/>
				
					<polyline style="fill:none;stroke:#000000;stroke-width:15;stroke-linecap:round;stroke-linejoin:round;stroke-miterlimit:10;" points="&#10;&#9;&#9;&#9;&#9;&#9;410.324,34.57 426.93,48.516 462.695,7.5 &#9;&#9;&#9;&#9;"/>
			</g>
		</g>
		<g>
			<g>
				<path style="fill:none;stroke:#000000;stroke-width:15;stroke-linecap:round;stroke-linejoin:round;stroke-miterlimit:10;" d="&#10;&#9;&#9;&#9;&#9;&#9;M62.662,215.672H26.305c-8.274,0-14.982-6.707-14.982-14.982v-36.358c0-8.274,6.707-14.982,14.982-14.982h36.358&#10;&#9;&#9;&#9;&#9;&#9;c8.274,0,14.982,6.707,14.982,14.982v36.358C77.644,208.964,70.936,215.672,62.662,215.672z"/>
				
					<polyline style="fill:none;stroke:#000000;stroke-width:15;stroke-linecap:round;stroke-linejoin:round;stroke-miterlimit:10;" points="&#10;&#9;&#9;&#9;&#9;&#9;37.588,176.421 54.195,190.367 89.96,149.351 &#9;&#9;&#9;&#9;"/>
			</g>
			<g>
				<path style="fill:none;stroke:#000000;stroke-width:15;stroke-linecap:round;stroke-linejoin:round;stroke-miterlimit:10;" d="&#10;&#9;&#9;&#9;&#9;&#9;M435.398,215.672H399.04c-8.274,0-14.982-6.707-14.982-14.982v-36.358c0-8.274,6.707-14.982,14.982-14.982h36.358&#10;&#9;&#9;&#9;&#9;&#9;c8.274,0,14.982,6.707,14.982,14.982v36.358C450.379,208.964,443.672,215.672,435.398,215.672z"/>
				
					<polyline style="fill:none;stroke:#000000;stroke-width:15;stroke-linecap:round;stroke-linejoin:round;stroke-miterlimit:10;" points="&#10;&#9;&#9;&#9;&#9;&#9;410.324,176.421 426.93,190.367 462.695,149.351 &#9;&#9;&#9;&#9;"/>
			</g>
		</g>
		<g>
			<path style="fill:none;stroke:#000000;stroke-width:15;stroke-linecap:round;stroke-linejoin:round;stroke-miterlimit:10;" d="&#10;&#9;&#9;&#9;&#9;M313.24,206.36c0,0-52.07-0.23-105.65-32.63c0,0-15.46,31.8-46.21,32.63l-21.94-45.13c-2.06-4.24-3.13-8.89-3.13-13.6&#10;&#9;&#9;&#9;&#9;c0-8.58,3.48-16.35,9.1-21.97c5.63-5.63,13.39-9.11,21.98-9.11h123.44c10.66,0,19.3,8.64,19.3,19.3v2.65&#10;&#9;&#9;&#9;&#9;c5.33,0,10.15,2.16,13.64,5.65c3.49,3.49,5.65,8.32,5.65,13.65c0,7.19-0.99,14.31-2.92,21.17c-1.92,6.87-4.78,13.47-8.52,19.61&#10;&#9;&#9;&#9;&#9;L313.24,206.36"/>
			<g>
				<path style="fill:none;stroke:#000000;stroke-width:15;stroke-linecap:round;stroke-linejoin:round;stroke-miterlimit:10;" d="&#10;&#9;&#9;&#9;&#9;&#9;M207.59,173.73c53.58,32.4,105.65,32.63,105.65,32.63v81.94c0,23.67-19.19,42.86-42.85,42.86h-66.15&#10;&#9;&#9;&#9;&#9;&#9;c-23.67,0-42.86-19.19-42.86-42.86v-81.94"/>
				<path style="fill:none;stroke:#000000;stroke-width:15;stroke-linecap:round;stroke-linejoin:round;stroke-miterlimit:10;" d="&#10;&#9;&#9;&#9;&#9;&#9;M161.384,261.897h-4.588c-15.337,0-27.769-12.433-27.769-27.769v0c0-15.337,12.433-27.769,27.769-27.769h4.588V261.897z"/>
				<path style="fill:none;stroke:#000000;stroke-width:15;stroke-linecap:round;stroke-linejoin:round;stroke-miterlimit:10;" d="&#10;&#9;&#9;&#9;&#9;&#9;M313.242,261.897h4.588c15.337,0,27.769-12.433,27.769-27.769v0c0-15.337-12.433-27.769-27.769-27.769h-4.588V261.897z"/>
				
					<line style="fill:none;stroke:#000000;stroke-width:15;stroke-linecap:round;stroke-linejoin:round;stroke-miterlimit:10;" x1="237.313" y1="264.57" x2="237.313" y2="282.702"/>
			</g>
			
				<line style="fill:none;stroke:#000000;stroke-width:15;stroke-linecap:round;stroke-linejoin:round;stroke-miterlimit:10;" x1="207.589" y1="371.53" x2="286.96" y2="371.53"/>
			
				<polyline style="fill:none;stroke:#000000;stroke-width:15;stroke-linecap:round;stroke-linejoin:round;stroke-miterlimit:10;" points="&#10;&#9;&#9;&#9;&#9;122.51,504.5 122.51,371.53 172.49,371.53 &#9;&#9;&#9;"/>
			<path style="fill:none;stroke:#000000;stroke-width:15;stroke-linecap:round;stroke-linejoin:round;stroke-miterlimit:10;" d="&#10;&#9;&#9;&#9;&#9;M122.515,504.5V371.532h-15.458c-20.01,0-37.051,14.544-40.196,34.305l-15.7,98.663"/>
			
				<rect x="207.589" y="331.16" style="fill:none;stroke:#000000;stroke-width:15;stroke-linecap:round;stroke-linejoin:round;stroke-miterlimit:10;" width="58.84" height="40.372"/>
			<g>
				
					<line style="fill:none;stroke:#000000;stroke-width:15;stroke-linecap:round;stroke-linejoin:round;stroke-miterlimit:10;" x1="196.997" y1="241.104" x2="196.997" y2="252.446"/>
				
					<line style="fill:none;stroke:#000000;stroke-width:15;stroke-linecap:round;stroke-linejoin:round;stroke-miterlimit:10;" x1="277.022" y1="241.104" x2="277.022" y2="252.446"/>
			</g>
		</g>
		<path style="fill:none;stroke:#000000;stroke-width:15;stroke-linecap:round;stroke-linejoin:round;stroke-miterlimit:10;" d="&#10;&#9;&#9;&#9;M410.504,289.463c51.181,8.613,90.173,53.136,90.173,106.766c0,59.797-48.475,108.271-108.271,108.271&#10;&#9;&#9;&#9;s-108.271-48.475-108.271-108.271c0-54.034,39.581-98.822,91.331-106.954"/>
		
			<circle style="fill:none;stroke:#000000;stroke-width:15;stroke-linecap:round;stroke-linejoin:round;stroke-miterlimit:10;" cx="392.405" cy="396.229" r="81.256"/>
		
			<polyline style="fill:none;stroke:#000000;stroke-width:15;stroke-linecap:round;stroke-linejoin:round;stroke-miterlimit:10;" points="&#10;&#9;&#9;&#9;392.405,340.38 392.405,396.229 417.082,379.592 &#9;&#9;"/>
	</g>
</g>















</svg>
