<svg height="36" viewBox="0 0 64 64" width="36" xmlns="http://www.w3.org/2000/svg"><g id="smartphone-user_interface-transfer-data-mobilephone" data-name="smartphone-user interface-transfer-data-mobilephone"><path d="m13.14 5a2.1 2.1 0 0 0 -3.62-1.44l-5.33 5.75a1.015 1.015 0 0 0 0 1.38l5.33 5.75a2.106 2.106 0 0 0 1.52.65 2.074 2.074 0 0 0 1.577-.714 2.168 2.168 0 0 0 -.177-2.936l-1.44-1.44h29a8 8 0 0 1 8 8v21a2 2 0 0 0 4 0v-21a12 12 0 0 0 -12-12h-29l1.52-1.52a2.083 2.083 0 0 0 .62-1.48z" fill="#7ed63e"/><path d="m59.81 54.69a1.015 1.015 0 0 0 0-1.38l-5.33-5.75a2.106 2.106 0 0 0 -1.52-.65 2.074 2.074 0 0 0 -1.577.714 2.168 2.168 0 0 0 .177 2.936l1.44 1.44h-29a8 8 0 0 1 -8-8v-21a2 2 0 0 0 -4 0v21a12 12 0 0 0 12 12h29l-1.52 1.52a2.093 2.093 0 1 0 3 2.92z" fill="#ed1c24"/><path d="m20 22h24v20h-24z" fill="#ffcd00"/><path d="m24 42h20v-20a20 20 0 0 1 -20 20z" fill="#ebbf00"/><path d="m40 16h-16a4 4 0 0 0 -4 4v2h24v-2a4 4 0 0 0 -4-4z" fill="#004fac"/><path d="m20 44a4 4 0 0 0 4 4h16a4 4 0 0 0 4-4v-2h-24z" fill="#004fac"/><g fill="#231f20"><path d="m50 44a3 3 0 0 1 -3-3v-21a7.008 7.008 0 0 0 -7-7h-26.613a3.143 3.143 0 0 1 -.018 4.036 3.058 3.058 0 0 1 -2.329 1.054 3.116 3.116 0 0 1 -2.24-.96l-5.343-5.76a2.024 2.024 0 0 1 0-2.74l5.33-5.75a3.082 3.082 0 0 1 2.213-.97 2.983 2.983 0 0 1 2.223.9 3.074 3.074 0 0 1 .177 4.19h26.6a13.015 13.015 0 0 1 13 13v21a3 3 0 0 1 -3 3zm-39-33h29a9.011 9.011 0 0 1 9 9v21a1 1 0 0 0 2 0v-21a11.013 11.013 0 0 0 -11-11h-29a1 1 0 0 1 -.707-1.707l1.52-1.52a1.093 1.093 0 1 0 -1.569-1.523l-5.321 5.74 5.33 5.77a1.1 1.1 0 0 0 .787.33 1.074 1.074 0 0 0 .826-.373 1.174 1.174 0 0 0 -.133-1.57l-1.44-1.44a1 1 0 0 1 .707-1.707z"/><path d="m52.957 62.09a3.085 3.085 0 0 1 -2.357-5.09h-26.6a13.015 13.015 0 0 1 -13-13v-21a3 3 0 0 1 6 0v21a7.008 7.008 0 0 0 7 7h26.613a3.143 3.143 0 0 1 .018-4.036 3.058 3.058 0 0 1 2.329-1.054 3.116 3.116 0 0 1 2.244.96l5.339 5.76a2.024 2.024 0 0 1 0 2.74l-5.33 5.75a3.082 3.082 0 0 1 -2.213.97zm-38.957-40.09a1 1 0 0 0 -1 1v21a11.013 11.013 0 0 0 11 11h29a1 1 0 0 1 .707 1.707l-1.52 1.52a1.077 1.077 0 0 0 0 1.546 1.162 1.162 0 0 0 .785.317 1.093 1.093 0 0 0 .784-.34l5.321-5.74-5.33-5.77a1.1 1.1 0 0 0 -.787-.33 1.074 1.074 0 0 0 -.826.373 1.174 1.174 0 0 0 .133 1.57l1.44 1.44a1 1 0 0 1 -.707 1.707h-29a9.011 9.011 0 0 1 -9-9v-21a1 1 0 0 0 -1-1z"/><path d="m40 15h-16a5 5 0 0 0 -5 5v24a5 5 0 0 0 5 5h16a5 5 0 0 0 5-5v-24a5 5 0 0 0 -5-5zm3 29a3.009 3.009 0 0 1 -3 3h-16a3.009 3.009 0 0 1 -3-3v-1h22zm0-3h-22v-18h22zm0-20h-22v-1a3.009 3.009 0 0 1 3-3h16a3.009 3.009 0 0 1 3 3z"/><path d="m31 20h2a1 1 0 0 0 0-2h-2a1 1 0 0 0 0 2z"/><path d="m33 44h-2a1 1 0 0 0 0 2h2a1 1 0 0 0 0-2z"/><path d="m38 28a1 1 0 0 0 0-2h-3a1 1 0 0 0 -1 1v3a1 1 0 0 0 2 0v-.994a5 5 0 0 1 -2.333 7.71 1 1 0 0 0 .666 1.886 6.99 6.99 0 0 0 3.4-10.6z"/><path d="m29.667 25.4a6.99 6.99 0 0 0 -3.4 10.6h-.267a1 1 0 0 0 0 2h3a1 1 0 0 0 1-1v-3a1 1 0 0 0 -2 0v.994a5 5 0 0 1 2.333-7.71 1 1 0 0 0 -.666-1.886z"/></g></g></svg>