<svg id="Layer_1" enable-background="new 0 0 512 512" viewBox="0 0 512 512" xmlns="http://www.w3.org/2000/svg"><g clip-rule="evenodd" fill-rule="evenodd"><path d="m323.03 62.91c48.95 0 88.64 39.69 88.64 88.67 0 48.95-39.69 88.64-88.64 88.64-48.98 0-88.67-39.69-88.67-88.64 0-48.98 39.69-88.67 88.67-88.67z" fill="#ffcd05"/><path d="m323.03 85.28c36.62 0 66.3 29.68 66.3 66.3 0 36.6-29.68 66.3-66.3 66.3s-66.3-29.71-66.3-66.3c0-36.63 29.68-66.3 66.3-66.3z" fill="#fff"/><path d="m323.03 138c7.48 0 13.55 6.09 13.55 13.58s-6.07 13.55-13.55 13.55-13.55-6.07-13.55-13.55 6.07-13.58 13.55-13.58z" fill="#f04843"/><path d="m154.17 391.45c-63.44-63.41-135.58-172.32-41.24-223.46l65.48 65.48-37.45 37.45 133.74 133.73 37.45-37.45 64.26 64.23c-53.01 91.54-157.87 24.42-222.24-39.98z" fill="#f16667"/><path d="m399.28 431.22-85.52-85.19-18.79 18.77 85.52 85.1z" fill="#d86f6f"/><path d="m200.23 232.17-85.52-85.18-18.79 18.76 85.52 85.1z" fill="#d86f6f"/></g><path d="m194.59 232.17-79.88-79.54-13.12 13.12 79.85 79.48zm-77.07-88.02 85.55 85.21c1.56 1.56 1.56 4.08-.03 5.64l-18.79 18.68c-1.56 1.53-4.05 1.53-5.61 0l-7.4-7.37-24.63 24.6 128.1 128.1 24.43-24.43-7-6.94c-1.56-1.56-1.56-4.08 0-5.64l18.79-18.79c1.56-1.56 4.08-1.56 5.64 0l85.55 85.21c1.56 1.56 1.56 4.08 0 5.64l-18.82 18.68c-1.53 1.53-4.05 1.53-5.61 0l-6.38-6.35c-21.2 27.89-49.92 37.81-82.97 32.31-49.12-8.14-101.48-48.9-137-84.42-35.86-35.86-79.09-90.94-86.63-141.62-4.85-32.43 5.41-59.78 32.8-79.71l-4.42-4.37c-1.56-1.56-1.56-4.08 0-5.64l18.79-18.79c1.56-1.56 4.08-1.56 5.64 0zm48.05 96.52-62.33-61.99c-53.35 37.84-29.79 99.78 1.22 146.52 27.01 40.73 68.23 82.63 108.03 110.38 47.82 33.36 112.34 59.75 153.1 5.1l-60.77-60.46-27.27 27.27c-1.56 1.56-4.11 1.56-5.67 0l-133.75-133.74c-1.56-1.56-1.56-4.08 0-5.67zm228.07 190.55-79.88-79.54-13.12 13.12 79.85 79.48zm-66.67-296.76c14.2 3.26 18.54 21.69 6.97 30.87l15.99 10.29c4.45 2.83.11 9.55-4.31 6.72l-20.69-13.29c-.23-.06-7.94 1.3-14.31-5.05-9.78-9.78-4.9-26.42 8.39-29.51l-.03-10.32c0-5.24 7.97-5.24 7.99 0zm2.81 10.34c-6.01-6.01-16.3-1.73-16.3 6.77 0 8.48 10.29 12.76 16.3 6.75 3.74-3.74 3.74-9.78 0-13.52zm-10.75-48.3c0-5.24 7.99-5.24 7.99 0v4.25c0 5.27-7.99 5.27-7.99 0zm53.69 79.14c4.54 2.64.54 9.55-4.03 6.92l-3.66-2.13c-4.54-2.64-.57-9.55 4-6.92zm5.36-28.06c5.27 0 5.27 7.99 0 7.99h-4.25c-5.24 0-5.24-7.99 0-7.99zm-9.36-26.98c4.54-2.61 8.5 4.28 3.97 6.89l-3.69 2.13c-4.54 2.61-8.5-4.28-3.97-6.92zm-76.67-14.72c-2.64-4.54 4.28-8.53 6.89-4l2.13 3.69c2.64 4.54-4.28 8.53-6.89 4zm-18.68 21.6c-4.56-2.61-.6-9.52 3.97-6.89l3.66 2.1c4.56 2.64.57 9.52-3.97 6.92zm-5.42 28.09c-5.24 0-5.24-7.99 0-7.99h4.25c5.27 0 5.27 7.99 0 7.99zm9.39 26.99c-4.56 2.61-8.53-4.31-3.97-6.92l3.66-2.13c4.54-2.61 8.53 4.31 3.97 6.92zm21.6 18.68c-2.61 4.56-9.52.57-6.89-4l2.13-3.66c2.61-4.56 9.52-.57 6.89 4zm28.09 5.39c0 5.27-7.99 5.27-7.99 0v-4.25c0-5.24 7.99-5.24 7.99 0zm26.98-9.39c2.64 4.56-4.28 8.56-6.92 4l-2.13-3.66c-2.61-4.56 4.28-8.56 6.92-4zm-6.91-95.35c2.64-4.54 9.55-.54 6.92 4l-2.13 3.69c-2.64 4.54-9.52.54-6.92-4zm-24.07-20.61c38.81 0 70.3 31.46 70.3 70.3 0 38.81-31.49 70.3-70.3 70.3-38.83 0-70.3-31.49-70.3-70.3 0-38.84 31.46-70.3 70.3-70.3zm44.05 26.25c-24.32-24.35-63.78-24.35-88.1 0-24.35 24.32-24.35 63.78 0 88.1 24.32 24.32 63.78 24.32 88.1 0s24.32-63.78 0-88.1zm-44.05-48.62c51.17 0 92.64 41.5 92.64 92.66s-41.47 92.64-92.64 92.64-92.66-41.47-92.66-92.64c0-51.19 41.49-92.66 92.66-92.66zm59.87 32.8c-33.08-33.05-86.68-33.05-119.74 0-33.05 33.05-33.05 86.66 0 119.71 33.05 33.08 86.66 33.08 119.74 0 33.05-33.05 33.05-86.66 0-119.71zm-12.87-43.11c-3.57-1.62-1.08-7.06 2.49-5.41 59.87 27.35 86.2 98.11 58.82 157.97-19.28 42.12-60.75 68.77-106.24 69.62l2.72 1.53c3.43 1.93.48 7.14-2.95 5.22l-11.65-6.58c-1.84-1.02-2.21-3.71-.17-5.13l11.11-8.31c3.12-2.35 6.72 2.41 3.57 4.76l-3.37 2.52c43.4-.57 83.17-25.94 101.54-66.13 26.02-56.86.99-124.04-55.87-150.06zm-48.45-19.68c-3.6-1.59-1.19-7.06 2.41-5.5l14.85 6.46c2.04.91 2.38 3.69.71 5.05v.03l-11.76 9.72c-3.03 2.49-6.83-2.13-3.83-4.62l3.97-3.29c-46.32 2.89-87.93 23.9-107.94 67.69-26.02 56.86-1.02 124.07 55.84 150.07 3.6 1.64 1.11 7.06-2.47 5.44-59.87-27.38-86.2-98.14-58.82-157.97 20.78-45.44 63.64-67.72 111.6-71.09z"/></svg>