<svg id="Layer_1" enable-background="new 0 0 512 512" height="512" viewBox="0 0 512 512" width="512" xmlns="http://www.w3.org/2000/svg"><g clip-rule="evenodd" fill-rule="evenodd"><g><path d="m504 196.762-219.556-178.654c-16.561-13.475-40.304-13.475-56.865 0l-219.175 178.335-.404 275.652c0 17.549 14.888 31.905 33.085 31.905h429.83c18.197 0 33.085-14.356 33.085-31.905z" fill="#fcc368"/><path d="m504 196.762-219.556-178.654c-8.284-6.74-18.365-10.11-28.445-10.107v496h214.916c18.197-.001 33.085-14.357 33.085-31.906z" fill="#d18e23"/><path d="m208.525 340.611-190.096 154.682c5.931 5.393 13.911 8.707 22.656 8.707h429.83c8.744 0 16.724-3.315 22.656-8.707l-190.096-154.682z" fill="#fcc368"/><path d="m256 504h214.915c8.744 0 16.725-3.316 22.657-8.707l-190.097-154.682h-47.475z" fill="#e6a235"/><path d="m18.429 495.293 190.096-154.682-200.525-143.849v275.333c0 9.116 4.017 17.369 10.429 23.198z" fill="#ffdda6"/><path d="m303.475 340.611 190.096 154.682c6.411-5.828 10.429-14.083 10.429-23.199v-275.332z" fill="#fcc368"/></g><g><path d="m76.888 246.175v-177.828h358.222v177.591l-131.635 94.43-94.95.001z" fill="#eceff1"/><path d="m255.999 68.59h179.111v177.591l-131.635 94.43h-47.476z" fill="#c4cccf"/></g><g><path d="m273.292 117.046c11.793 2.316 22.748 6.957 32.379 13.422l3.895-1.73 13.372-5.939 7.432 7.432 7.432 7.432-5.939 13.372-1.728 3.889c6.467 9.632 11.108 20.592 13.424 32.385l3.961 1.525 13.654 5.255v10.511 10.511l-13.654 5.257-3.965 1.526c-2.316 11.793-6.957 22.748-13.422 32.379l1.73 3.895 5.939 13.372-7.432 7.432-7.432 7.432-13.372-5.938-3.889-1.728c-9.632 6.467-20.592 11.108-32.386 13.424l-1.525 3.961-5.255 13.654h-10.511-10.511l-5.256-13.654-1.526-3.965c-11.793-2.316-22.748-6.957-32.378-13.422l-3.895 1.729-13.372 5.938-7.432-7.432-7.432-7.432 5.939-13.372 1.728-3.89c-6.468-9.631-11.107-20.592-13.424-32.385l-3.961-1.525-13.655-5.256v-10.511-10.51l13.655-5.256 3.964-1.526c2.316-11.793 6.956-22.751 13.423-32.379l-1.729-3.895-5.939-13.372 7.432-7.432 7.432-7.432 13.372 5.939 3.894 1.73c9.63-6.465 20.587-11.106 32.38-13.422l1.526-3.965 5.255-13.655h10.511 10.511l5.256 13.655zm-17.292 38.127c-27.299 0-49.429 22.13-49.429 49.429s22.13 49.429 49.429 49.429 49.43-22.13 49.43-49.429-22.131-49.429-49.43-49.429z" fill="#c4cccf"/><path d="m273.292 117.046c11.793 2.316 22.748 6.957 32.379 13.422l3.895-1.73 13.372-5.939 7.432 7.432 7.432 7.432-5.939 13.372-1.728 3.889c6.467 9.632 11.108 20.592 13.424 32.385l3.961 1.525 13.654 5.255v10.511 10.511l-13.654 5.257-3.965 1.526c-2.316 11.793-6.957 22.748-13.422 32.379l1.73 3.895 5.939 13.372-7.432 7.432-7.432 7.432-13.372-5.938-3.889-1.728c-9.632 6.467-20.592 11.108-32.386 13.424l-1.525 3.961-5.255 13.654h-10.511v-55.745c27.299 0 49.43-22.13 49.43-49.43 0-27.298-22.13-49.43-49.43-49.43v-55.745h10.511l5.256 13.655z" fill="#90a4ae"/></g><path d="m511.951 196.082c-.236-2.134-1.22-4.151-2.898-5.531l-65.936-53.671v-68.314c0-4.415-3.579-7.994-7.994-7.994h-85.799l-59.819-48.691c-19.414-15.797-47.574-15.795-66.954 0l-59.846 48.691h-85.8c-4.415 0-7.994 3.579-7.994 7.994v68.317s-65.103 52.982-65.142 53.014c-2.179 1.774-3.766 3.937-3.77 6.858v275.327c0 21.992 18.426 39.884 41.074 39.884h429.851c22.648 0 41.075-17.892 41.075-39.884 0 0 0-275.33-.001-275.355-.007-.216-.024-.431-.047-.645zm-19.374 288.047-175.939-143.148 179.374-128.66v259.761c0 4.392-1.256 8.507-3.435 12.047zm-1.726-287.781-47.733 34.238v-73.093zm-258.203-172.071c13.537-11.031 33.206-11.029 46.767.003l44.586 36.292h-135.964zm194.481 52.283v165.494l-126.217 90.533h-89.823l-126.189-90.513v-165.514zm-407.691 407.592c-2.188-3.545-3.449-7.669-3.449-12.07v-259.761l179.375 128.661zm49.475-253.545-47.75-34.25 47.75-38.86zm-27.837 265.37c-3.139 0-6.143-.557-8.916-1.564l179.202-145.838h89.279l179.231 145.826c-2.781 1.015-5.794 1.576-8.945 1.576zm106.894-273.424c-3.09-1.186-5.129-4.153-5.131-7.466v-21.032c0-3.31 2.039-6.277 5.129-7.463l13.587-5.215c2.351-9.604 6.129-18.708 11.271-27.161l-5.938-13.316c-1.349-3.023-.693-6.566 1.648-8.907l14.882-14.882c2.34-2.339 5.88-2.996 8.902-1.651l13.338 5.935c8.468-5.141 17.562-8.915 27.132-11.262l5.229-13.596c1.188-3.088 4.153-5.125 7.461-5.125h21.033c3.308 0 6.273 2.037 7.461 5.125l5.229 13.595c9.6 2.352 18.7 6.129 27.149 11.269l13.349-5.94c3.024-1.342 6.562-.689 8.902 1.651l14.864 14.893c2.333 2.341 2.984 5.877 1.638 8.896l-5.925 13.291c5.129 8.434 8.903 17.542 11.258 27.175l13.617 5.227c3.089 1.186 5.129 4.153 5.129 7.463v21.032c0 3.31-2.039 6.277-5.129 7.463l-13.617 5.227c-2.357 9.637-6.134 18.741-11.266 27.156l5.934 13.31c1.346 3.018.695 6.554-1.638 8.896l-14.864 14.893c-2.339 2.339-5.879 2.997-8.902 1.651l-13.339-5.936c-8.466 5.139-17.57 8.914-27.159 11.264l-5.229 13.595c-1.188 3.088-4.153 5.125-7.461 5.125h-21.033c-3.308 0-6.273-2.037-7.461-5.125l-5.229-13.596c-9.569-2.347-18.664-6.122-27.131-11.263l-13.338 5.936c-3.024 1.343-6.563.689-8.902-1.651l-14.882-14.882c-2.341-2.341-2.997-5.884-1.648-8.907l5.938-13.316c-5.142-8.453-8.919-17.557-11.271-27.161zm10.858-23.002 12.505-4.818c2.551-.992 4.418-3.22 4.947-5.905 2.086-10.585 6.2-20.495 12.226-29.456 1.532-2.277 1.788-5.182.679-7.692l-5.454-12.267 7.111-7.111 12.244 5.448c2.509 1.118 5.419.867 7.703-.664 9.003-6.037 18.917-10.152 29.465-12.231 2.692-.53 4.925-2.405 5.912-4.966l4.807-12.486h10.053l4.807 12.486c.987 2.561 3.22 4.436 5.912 4.966 10.586 2.087 20.497 6.2 29.457 12.226 2.277 1.533 5.182 1.788 7.692.679l12.292-5.457 7.087 7.102-3.749 8.409-1.701 3.912c-1.087 2.501-.824 5.385.698 7.647 6 8.921 10.104 18.831 12.198 29.456.531 2.692 2.405 4.924 4.965 5.912l12.516 4.812v10.044l-12.516 4.812c-2.56.988-4.435 3.22-4.965 5.912-2.097 10.641-6.208 20.546-12.217 29.442-1.54 2.279-1.799 5.19-.688 7.706l5.458 12.277-7.087 7.101-12.242-5.449c-2.51-1.118-5.421-.867-7.705.664-8.994 6.032-18.917 10.147-29.493 12.232-2.692.53-4.925 2.405-5.912 4.966l-4.807 12.486h-10.053l-4.807-12.486c-.987-2.561-3.22-4.436-5.912-4.966-10.549-2.079-20.463-6.195-29.465-12.232-2.283-1.531-5.194-1.782-7.705-.664l-12.242 5.449-7.111-7.111 5.454-12.267c1.109-2.511.854-5.415-.679-7.692-6.026-8.961-10.14-18.871-12.226-29.456-.529-2.686-2.396-4.913-4.947-5.905l-12.505-4.818zm97.173 62.453c-31.667 0-57.43-25.764-57.43-57.432 0-31.667 25.763-57.43 57.43-57.43s57.43 25.763 57.43 57.43c0 31.668-25.763 57.432-57.43 57.432zm0-98.873c22.852 0 41.443 18.59 41.443 41.441s-18.59 41.443-41.443 41.443c-22.852 0-41.443-18.591-41.443-41.442s18.59-41.442 41.443-41.442z"/></g></svg>