<svg id="Layer_1" enable-background="new 0 0 53 53" viewBox="0 0 53 53" xmlns="http://www.w3.org/2000/svg"><g><g><path d="m42.5379219 38.1924019-27.3823986 7.203598c-2.1110992.6929016-5.2561998-1.3139992-7.7632999-5.3797989-2.507-4.0658989-2.7415996-7.7524986-1.3209-9.3522987l18.7325001-21.2318011c-1.5363007 3.0244007.2439995 10.0285006 4.5636005 17.033802 4.3195 7.0052997 9.7784004 11.7410975 13.1704979 11.7264987z" fill="#fff"/><path d="m14.2777338 46.2872887c-2.3613281 0-5.2617188-2.2089844-7.5244136-5.8779297-2.5341797-4.1103516-3.0332034-8.2265625-1.2421875-10.2431641l18.7304692-21.2304687c.2509766-.2832031.6728516-.3369141.9833984-.1240234.3125.2119141.4189453.6230469.2480469.9599609-1.2382812 2.4375-.0791016 8.8203125 4.5332031 16.3007812 4.6054668 7.46875 9.7783184 11.3701172 12.5156231 11.3701172.0048828 0 .0087891-.0009766.015625 0 .3759766 0 .6943359.2792969.7431641.6523438.0498047.3740234-.1875.7265625-.5527344.8232422l-27.3818359 7.203125c-.3398428.1113281-.6972646.1660156-1.0683584.1660156zm9.2451181-34.2695313-16.8886723 19.1425781c-1.1220703 1.2626953-1.0009766 4.5732422 1.3964839 8.4619141 2.4648438 3.9980469 5.3359375 5.5742188 6.890625 5.0605469l24.7304688-6.5068359c-3.4257812-1.6523438-7.5507812-5.8486328-10.9228497-11.3164062-3.3710947-5.4677735-5.2675791-11.0390626-5.2060557-14.841797z"/></g><g><path d="m10.2326241 25.9475021-4.1613007 4.7164001c-1.4205999 1.5997009-1.1861 5.2863998 1.3209 9.3522987 2.5071001 4.0657997 5.6522999 6.0726013 7.7632999 5.3797989l6.0827007-1.6001968c-6.4713001-5.1293029-10.0921001-11.0845031-11.0055999-17.8483009z" fill="#986de7"/><path d="m14.2777338 46.2872887c-2.3613281 0-5.2617188-2.2089844-7.5244136-5.8779297-2.5341797-4.1103516-3.0332034-8.2265625-1.2421875-10.2431641l4.1591792-4.7148438c.1943359-.2197266.4970703-.3066406.7802734-.2216797.28125.0849609.4863281.3261719.5253906.6171875.8886719 6.5820312 4.4980469 12.4228516 10.7285166 17.3613281.2226562.1767578.3261719.4638672.2685547.7421875-.0585938.2773438-.2685547.4990234-.5439453.5712891l-6.0830088 1.5996094c-.3398437.1113282-.6972655.1660157-1.0683593.1660157zm-4.5244141-18.663086-3.1191401 3.5361328c-1.1220703 1.2626953-1.0009766 4.5732422 1.3964839 8.4619141 2.4648438 3.9980469 5.3359375 5.5742188 6.890625 5.0605469l4.7080088-1.2392578c-5.3720713-4.5839844-8.6865244-9.8945313-9.8759776-15.819336z"/></g><g><path d="m7.3922234 40.016201c1.2916002 2.0945015 2.7521 3.6353989 4.1515999 4.5459023l-2.7805996.7305984c-1.2628002.414299-3.1626-.7949982-4.6712003-3.2416s-1.6506999-4.6666985-.7987998-5.6292992l1.9522998-2.2120018c.1531001 1.6669007.8389001 3.6854019 2.1467 5.8064003z" fill="#fff"/><path d="m8.2181635 46.1339684c-1.5244136 0-3.327148-1.359375-4.7646484-3.6894531-1.5947266-2.5859375-1.8847656-5.2060547-.7216797-6.5195312l1.9511721-2.2109375c.1982422-.2236328.5136719-.3105469.7949219-.2167969.2851562.0927734.4873047.3457031.5146484.6445312.1513672 1.6494141.875 3.5957031 2.0380855 5.4804688 1.1855469 1.9228516 2.5419922 3.4130859 3.921875 4.3105469.2480469.1621094.3789062.4550781.3310547.7480469-.046875.2929688-.2626953.5302734-.5498047.6064453l-2.7802732.7314452c-.2353516.0771484-.4814454.1152344-.7353516.1152344zm-3.4433589-10.256836-.9189456 1.0410156c-.5859375.6611328-.4775391 2.546875.8750002 4.7392578 1.3876953 2.2509766 2.984375 3.1914062 3.7988276 2.9228516l1.3457031-.3544922c-1.1113281-.9833984-2.1728511-2.2783203-3.1220698-3.8164062-.9453124-1.5341797-1.6162108-3.0742188-1.9785155-4.5322266z"/></g><g><path d="m40.4694252 19.6187019c5.0239983 8.1476002 6.6145973 16.2940979 3.5522995 18.1823997-3.0713997 1.8939018-9.6272011-3.1910019-14.6512012-11.3386002s-6.6233997-16.2886009-3.5520992-18.1824989c3.0623988-1.8883008 9.627098 3.1910993 14.6510009 11.3386994z" fill="#fff"/><path d="m42.52285 38.9474449c-3.7304688 0-9.2324219-4.6982422-13.7910137-12.0917969-2.4775391-4.0175781-4.2207031-8.1669922-4.9091797-11.6855469-.7363281-3.7636719-.1669922-6.4365234 1.6025391-7.5283208 1.7685547-1.0878906 4.4101562-.3945312 7.4423809 1.9511724 2.8378906 2.1962891 5.7646484 5.6171875 8.2402344 9.6318359 2.4755859 4.015625 4.21875 8.1669922 4.90625 11.6884766.7353516 3.7646484.1679688 6.4375-1.5986328 7.5263672-.5566407.3427735-1.1933594.5078125-1.8925782.5078125zm-15.2011699-30.3134765c-.4257812 0-.7988281.09375-1.109375.2851562-1.1816406.7285156-1.5166016 2.9023438-.9179688 5.9628906.6552734 3.3457031 2.3291016 7.3183594 4.7148438 11.1865234 5.1308575 8.3212891 11.2929668 12.53125 13.6191387 11.09375 1.1787109-.7265625 1.5117188-2.8994141.9140625-5.9609375-.6542969-3.3496094-2.328125-7.3232422-4.7119141-11.1894531-2.3828125-3.8652344-5.1816406-7.1445312-7.8808575-9.2324219-1.8183593-1.4072265-3.4326171-2.1455077-4.6279296-2.1455077z"/></g><g><path d="m40.4737244 19.6175022c5.0249977 8.1493988 6.6097984 16.2944012 3.5471992 18.1827984-2.0416985 1.2590027-5.6156006-.5578003-9.2644005-4.3083992-1.8408012-1.9016991-3.7014999-4.2889996-5.3890991-7.0259991-1.6769009-2.7194004-2.9724007-5.4309006-3.8341007-7.9120007-1.7376995-4.9653997-1.7637005-9.0064001.2867012-10.2707005 3.0625992-1.8884996 9.6285992 3.1850005 14.6536999 11.3343011z" fill="#fff"/><path d="m42.5462875 38.9386559c-2.2509766 0-5.2109375-1.7207031-8.3271484-4.9228516-1.9443359-2.0097656-3.841795-4.4833984-5.4902325-7.15625-1.65625-2.6865234-3.0058594-5.4736328-3.9042969-8.0595703-1.9433594-5.5537109-1.71875-9.7246094.6015625-11.1552734 1.7666016-1.0888672 4.4101562-.3964844 7.4433575 1.9482427 2.8398438 2.1953125 5.7666016 5.6152344 8.2431641 9.6308594 2.4755859 4.015625 4.2167969 8.1669922 4.9033203 11.6894531.7333984 3.7636719.1650391 6.4365234-1.6015625 7.5253906-.5439453.3349604-1.171875.4999995-1.8681641.4999995zm-15.2216777-30.3027344c-.4267578 0-.8007812.0947266-1.1113281.2861328-1.6269531 1.0029297-1.6162109 4.6865234.0283203 9.3837891.8632812 2.4863281 2.1640625 5.1708984 3.7646484 7.7666016 1.5917969 2.5820312 3.4208965 4.9677734 5.2890606 6.8984375 3.4462891 3.5410156 6.7167969 5.1884766 8.3320312 4.1904297 1.1796875-.7265625 1.5136719-2.8994141.9169922-5.9609375-.6533203-3.3496094-2.3261719-7.3242188-4.7089844-11.1894531-2.3837891-3.8652344-5.1826172-7.1435547-7.8837872-9.2314453-1.8173827-1.4052736-3.4316405-2.1435548-4.626953-2.1435548z"/></g><g><path d="m38.9764252 27.6102009-4.219902 5.8817005c-1.8408012-1.9016991-3.7014999-4.2889996-5.3890991-7.0259991-1.6769009-2.7194004-2.9724007-5.4309006-3.8341007-7.9120007l7.1266003-1.1875992c-1.0648994.656599-.5110016 3.4853001 1.230999 6.3102989 1.7419012 2.8250009 4.0207022 4.5902005 5.0855025 3.9335996z" fill="#ffd364"/><path d="m34.7562485 34.2423668c-.2021484 0-.3974609-.0820312-.5390625-.2285156-1.9423828-2.0078125-3.8398418-4.4814453-5.4882793-7.1542969-1.65625-2.6865234-3.0058594-5.4736328-3.9042969-8.0595703-.0722656-.2089844-.0488281-.4394531.0644531-.6289062.1123047-.1904297.3037109-.3203125.5214844-.3574219l7.1259747-1.1875c.3564453-.0576172.6992188.1416016.8251953.4765625.1259766.3359375-.0029297.7138672-.3085938.9023438-.1376953.0849609-.2851562.5830078-.09375 1.5595703.2128906 1.0898438.7851562 2.4453125 1.5703125 3.71875 1.7958984 2.9121094 3.6767578 3.9238281 4.0527344 3.6884766.3037109-.1875.6982422-.1347656.9423828.1269531.2431641.2617188.2685547.6582031.0605469.9492188l-4.2197266 5.8818359c-.1298828.1806641-.3330078.2939453-.5546875.3105469-.0185547.0009764-.0361328.001953-.0546875.001953zm-8.2099591-15.0966797c.8515625 2.2441406 2.0380859 4.6210938 3.4599609 6.9267578 1.4160156 2.296875 3.0195293 4.4384766 4.6718731 6.2421875l2.8710938-4.0029297c-1.4511719-.5546875-3.0859375-2.2783203-4.296875-4.2412109-.8886719-1.4414062-1.5156231-2.9394531-1.7656231-4.21875-.1181641-.6064453-.1425781-1.1044922-.1025391-1.5126953z"/></g><g><path d="m37.7389221 21.3024025c1.7429008 2.8264999 2.2947006 5.6525993 1.2322998 6.3076992-1.0654984.6569996-3.339798-1.1070004-5.0825996-3.9335003-1.742897-2.8264999-2.2977982-5.6506996-1.2322998-6.3076992 1.0624008-.6550999 3.3397026 1.1070004 5.0825996 3.9335003z" fill="#fff"/><path d="m38.4632797 28.4982262c-1.6347656 0-3.7382812-2.0371094-5.2128906-4.4277344-.8896484-1.4423828-1.5165997-2.9404297-1.7665997-4.2177734-.3818359-1.9482422.2128906-2.7734375.779295-3.1220703.5654297-.3476562 1.5683594-.5087891 3.1386719.7060547 1.0302734.796875 2.0869141 2.0302734 2.9755859 3.4716797 1.7646484 2.8623047 2.6708984 6.3027344.9873047 7.3408203-.2763672.1699218-.5800781.2490234-.9013672.2490234zm-5.2861328-10.5175782c-.0566406 0-.0996094.0097656-.1269531.0273438-.1376953.0849609-.2851562.5820312-.0947266 1.5566406.2167969 1.1044922.7744141 2.4257812 1.5722656 3.71875 1.7949219 2.9111328 3.6728516 3.9130859 4.0498047 3.6884766.3730469-.2304688.3183594-2.3642578-1.4775391-5.2763672-.7958984-1.2919922-1.7255859-2.3828125-2.6162109-3.0722656-.6279297-.4863282-1.0800781-.6425782-1.3066406-.6425782z"/></g><g><path d="m20.9522228 16.5462017c0 4.1637001-3.3817997 7.5361996-7.545599 7.5361996-4.1636 0-7.5456004-3.3724995-7.5456004-7.5361996 0-4.1638002 3.3820004-7.5455999 7.5456004-7.5455999 4.1637993 0 7.545599 3.3817997 7.545599 7.5455999z" fill="#ff6f5c"/><path d="m13.4066401 24.8322105c-4.5742188 0-8.2958984-3.7167969-8.2958984-8.2861328 0-4.5742188 3.7216792-8.2958984 8.2958984-8.2958984s8.2958994 3.7216797 8.2958994 8.2958984c-.0000001 4.569336-3.7216797 8.2861328-8.2958994 8.2861328zm0-15.0820312c-3.7470703 0-6.795898 3.0488281-6.795898 6.7958984 0 3.7421875 3.0488276 6.7861328 6.795898 6.7861328s6.7958994-3.0439453 6.7958994-6.7861328c-.0000001-3.7470703-3.0488282-6.7958984-6.7958994-6.7958984z"/></g><g><path d="m39.286 11.25.415-3.784" fill="#fff"/><path d="m39.2865219 12.0001793c-.0273438 0-.0546875-.0009766-.0830078-.0048828-.4111328-.0449219-.7089844-.4150391-.6630859-.8271484l.4150391-3.7841802c.0449219-.4121094.4013672-.7265625.8271484-.6630859.4111328.0449218.7089843.415039.6630859.8271484l-.4150391 3.7841802c-.0419922.383789-.3662109.6679687-.7441406.6679687z"/></g><g><path d="m42.795 14.074 7.431-4.716" fill="#fff"/><path d="m42.7962875 14.8234215c-.2480469 0-.4912109-.1230469-.6337891-.3476562-.2226562-.3505859-.1191406-.8134766.2304688-1.0351562l7.4306641-4.7158203c.3515625-.2236328.8134766-.1181641 1.0351562.2304688.2226562.3505859.1191406.8134766-.2304688 1.0351562l-7.4306641 4.7158203c-.1249999.0791014-.2646483.1171874-.4013671.1171874z"/></g><g><path d="m44.552 18.303 4.101.552" fill="#fff"/><path d="m48.6537094 19.6046715c-.0332031 0-.0673828-.0019531-.1005859-.0068359l-4.1005859-.5517578c-.4111328-.0546875-.6992188-.4326172-.6435547-.8427734.0546875-.4111328.4404297-.7021484.8427734-.6435547l4.1005859.5517578c.4111328.0546875.6992188.4326172.6435547.8427734-.0507812.3769531-.3720703.6503906-.7421875.6503906z"/></g><g><g><path d="m15.7835932 19.668148c-.1923828 0-.3837891-.0732422-.5302734-.2197266l-4.7539062-4.7539062c-.2929688-.2929688-.2929688-.7675781 0-1.0605469s.7675781-.2929688 1.0605469 0l4.7539072 4.7539062c.2929688.2929688.2929688.7675781 0 1.0605469-.1464845.1464845-.3378917.2197266-.5302745.2197266z"/></g><g><path d="m11.0296869 19.668148c-.1923828 0-.3837891-.0732422-.5302734-.2197266-.2929688-.2929688-.2929688-.7675781 0-1.0605469l4.7539062-4.7539062c.2929688-.2929688.7675791-.2929688 1.0605478 0s.2929688.7675781 0 1.0605469l-4.7539072 4.7539062c-.1464843.1464845-.3378906.2197266-.5302734.2197266z"/></g></g></g></svg>