<svg height="512" viewBox="0 0 512 512" width="512" xmlns="http://www.w3.org/2000/svg"><g id="Filled_outline" data-name="Filled outline"><path d="m328 352h-288a16 16 0 0 1 -16-16v-296a16 16 0 0 1 16-16h89.373a16 16 0 0 1 11.313 4.686l22.628 22.628a16 16 0 0 0 11.313 4.686h153.373a16 16 0 0 1 16 16v264a16 16 0 0 1 -16 16z" fill="#ffa912"/><path d="m56 96h320v224h-320z" fill="#4db7e5"/><path d="m439.22 173.94-71.22 178.06h-328a11.817 11.817 0 0 0 10.97-7.43l71-177.48a23.985 23.985 0 0 1 22.28-15.09h280.12a15.993 15.993 0 0 1 14.85 21.94z" fill="#ffb531"/><path d="m439.22 173.94-71.22 178.06h-237.7l255.32-200h38.75a15.993 15.993 0 0 1 14.85 21.94z" fill="#ffa912"/><rect fill="#cfcfcd" height="160" rx="16" width="352" x="136" y="248"/><g fill="#4d5e78"><path d="m168 280h32v32h-32z"/><path d="m232 280h32v32h-32z"/><path d="m296 280h32v32h-32z"/><path d="m360 280h32v32h-32z"/><path d="m424 280h32v32h-32z"/><path d="m168 344h32v32h-32z"/><path d="m232 344h160v32h-160z"/><path d="m424 344h32v32h-32z"/></g><path d="m488 384v104h-144l-11.5-15.34-9.37-12.49a15.648 15.648 0 0 1 -3.13-9.38v-3.16a15.633 15.633 0 0 1 28.64-8.67l11.36 17.04v-72a16 16 0 0 1 32 0 16 16 0 0 1 32 0 16 16 0 0 1 32 0 16 16 0 0 1 32 0z" fill="#fec9a3"/><path d="m488 403.04v84.96h-144l-11.5-15.34c55.19-13.75 108.42-36.07 155.5-69.62z" fill="#fec093"/><path d="m40 360h72v-16h-52.184l69.577-173.942a15.924 15.924 0 0 1 14.856-10.058h280.119a8 8 0 0 1 7.427 10.971l-20.023 50.058 14.856 5.942 20.023-50.057a24 24 0 0 0 -22.283-32.914h-40.368v-48a8 8 0 0 0 -8-8h-24v-16a24.027 24.027 0 0 0 -24-24h-153.373a7.949 7.949 0 0 1 -5.657-2.343l-22.627-22.627a23.843 23.843 0 0 0 -16.97-7.03h-89.373a24.027 24.027 0 0 0 -24 24v296a24.027 24.027 0 0 0 24 24zm328-216h-24v-16h-16v16h-24v-16h-16v16h-24v-16h-16v16h-24v-16h-16v16h-24v-16h-16v16h-23.751c-.084 0-.166.009-.249.009v-16.009h-16v20.408a31.893 31.893 0 0 0 -13.462 15.707l-10.538 26.344v-62.459h-16v102.459l-24 60v-186.459h304zm-336-104a8.009 8.009 0 0 1 8-8h89.373a7.949 7.949 0 0 1 5.657 2.343l22.627 22.627a23.843 23.843 0 0 0 16.97 7.03h153.373a8.009 8.009 0 0 1 8 8v16h-280a8 8 0 0 0 -8 8v224a7.958 7.958 0 0 0 2.05 5.334l-6.507 16.266a3.8 3.8 0 0 1 -3.543 2.4 8.009 8.009 0 0 1 -8-8z"/><path d="m48 48h16v16h-16z"/><path d="m80 48h16v16h-16z"/><path d="m112 48h16v16h-16z"/><path d="m472 240h-320a24.028 24.028 0 0 0 -24 24v128a24.028 24.028 0 0 0 24 24h184v-16h-184a8.009 8.009 0 0 1 -8-8v-128a8.009 8.009 0 0 1 8-8h320a8.009 8.009 0 0 1 8 8v80h16v-80a24.028 24.028 0 0 0 -24-24z"/><path d="m208 280a8 8 0 0 0 -8-8h-32a8 8 0 0 0 -8 8v32a8 8 0 0 0 8 8h32a8 8 0 0 0 8-8zm-16 24h-16v-16h16z"/><path d="m232 320h32a8 8 0 0 0 8-8v-32a8 8 0 0 0 -8-8h-32a8 8 0 0 0 -8 8v32a8 8 0 0 0 8 8zm8-32h16v16h-16z"/><path d="m328 320a8 8 0 0 0 8-8v-32a8 8 0 0 0 -8-8h-32a8 8 0 0 0 -8 8v32a8 8 0 0 0 8 8zm-24-32h16v16h-16z"/><path d="m392 320a8 8 0 0 0 8-8v-32a8 8 0 0 0 -8-8h-32a8 8 0 0 0 -8 8v32a8 8 0 0 0 8 8zm-24-32h16v16h-16z"/><path d="m456 320a8 8 0 0 0 8-8v-32a8 8 0 0 0 -8-8h-32a8 8 0 0 0 -8 8v32a8 8 0 0 0 8 8zm-24-32h16v16h-16z"/><path d="m200 336h-32a8 8 0 0 0 -8 8v32a8 8 0 0 0 8 8h32a8 8 0 0 0 8-8v-32a8 8 0 0 0 -8-8zm-8 32h-16v-16h16z"/><path d="m224 376a8 8 0 0 0 8 8h104v-16h-96v-16h120v-16h-128a8 8 0 0 0 -8 8z"/><path d="m472 360a23.9 23.9 0 0 0 -16 6.126 23.958 23.958 0 0 0 -32 0 23.958 23.958 0 0 0 -32 0 23.988 23.988 0 0 0 -40 17.874v46.58a23.637 23.637 0 0 0 -40 17.053v3.156a23.777 23.777 0 0 0 4.727 14.18l20.873 27.831a8 8 0 0 0 6.4 3.2h144a8 8 0 0 0 8-8v-104a24.028 24.028 0 0 0 -24-24zm8 120h-132l-18.473-24.631a7.676 7.676 0 0 1 -1.527-4.58v-3.156a7.634 7.634 0 0 1 13.985-4.234l11.359 17.039a8 8 0 0 0 14.656-4.438v-72a8 8 0 0 1 16 0v32a8 8 0 0 0 16 0v-32a8 8 0 0 1 16 0v32a8 8 0 0 0 16 0v-32a8 8 0 0 1 16 0v32a8 8 0 0 0 16 0v-32a8 8 0 0 1 16 0z"/><path d="m280 440h16v16h-16z"/><path d="m248 440h16v16h-16z"/><path d="m216 440h16v16h-16z"/><path d="m184 440h16v16h-16z"/><path d="m152 440h16v16h-16z"/><path d="m120 440h16v16h-16z"/><path d="m88 440h16v16h-16z"/><path d="m56 440h16v16h-16z"/><path d="m56 408h16v16h-16z"/><path d="m56 376h16v16h-16z"/></g></svg>