<svg id="Layer_1" viewBox="0 0 512 512" xmlns="http://www.w3.org/2000/svg" data-name="Layer 1"><path d="m233.758 89.478c-104.762 5.965-188.621 93.506-188.621 199.692 0 24.072 4.316 47.182 12.205 68.603l176.416-101.854z" fill="#f7b84e" fill-rule="evenodd"/><path d="m233.758 89.478c-104.762 5.964-188.621 93.506-188.621 199.692 0 19.857 2.937 39.06 8.394 57.2l180.227-104.054z" fill="#ffce7b" fill-rule="evenodd"/><path d="m447.833 307.366c12.191-25.801 19.029-54.574 19.029-84.872 0-106.187-83.859-193.728-188.621-199.693v186.651l169.591 97.913z" fill="#0dbaf3" fill-rule="evenodd"/><path d="m447.833 307.366c12.191-25.801 19.03-54.575 19.03-84.872 0-102.132-77.581-187-176.718-198.642v192.472l157.689 91.041z" fill="#3bc7f5" fill-rule="evenodd"/><path d="m245.165 489.198c71.61 0 134.737-38.144 170.088-95.111l-152.023-87.77-177.913 102.719c36.58 48.591 94.7 80.163 159.847 80.163z" fill="#3cb54b" fill-rule="evenodd"/><g><path d="m245.165 489.198c66.652 0 125.949-33.048 162.346-83.558l-158.157-91.312-164.038 94.707c36.58 48.591 94.7 80.163 159.848 80.163z" fill="#50bc5d" fill-rule="evenodd"/><path d="m245.165 489.307c-15.986 0-31.915-1.917-47.342-5.696-14.981-3.67-29.564-9.112-43.344-16.176-26.988-13.835-50.934-34.007-69.248-58.334l-.074-.098.106-.062 164.091-94.738.054.031 158.261 91.371-.069.098c-18.22 25.284-42.379 46.292-69.865 60.753-14.016 7.374-28.879 13.058-44.176 16.894-15.759 3.953-32.041 5.957-48.394 5.957zm-159.688-80.239c37.771 50.108 97.46 80.022 159.688 80.022 63.88 0 124.502-31.181 162.189-83.416l-158-91.221-163.877 94.614z" fill="#3cb54b"/></g><g fill-rule="evenodd"><path d="m206.55 263.778c-10.253-22.411-32.822-37.113-57.802-37.113-32.743 0-59.786 24.894-63.187 56.745h86.985s34.004-19.632 34.004-19.632z" fill="#d62733"/><path d="m206.55 263.778c-10.253-22.411-32.822-37.113-57.802-37.113-9.487 0-18.494 2.094-26.587 5.837-15.589 12.016-26.175 30.204-28.093 50.908h78.479s34.004-19.632 34.004-19.632z" fill="#ee2b39"/><path d="m148.743 220.532c16.518 0 29.991-13.472 29.991-29.991s-13.472-29.991-29.991-29.991-29.991 13.472-29.991 29.991 13.472 29.991 29.991 29.991z" fill="#0dbaf3"/><path d="m154.619 161.127c13.75 2.731 24.115 14.862 24.115 29.414s-10.365 26.683-24.115 29.414c-13.75-2.731-24.115-14.861-24.115-29.414s10.365-26.682 24.115-29.414z" fill="#3bc7f5"/><path d="m303.644 216.269h92.701c-3.397-31.851-30.442-56.745-63.186-56.745-18.602-.001-36.006 8.002-48.115 22.036v23.971z" fill="#ccc"/><path d="m306.707 165.261c-9.206 7.064-16.677 16.276-21.662 26.887v13.383l18.6 10.738h92.701c-3.397-31.851-30.442-56.745-63.186-56.745-9.286 0-18.273 1.995-26.452 5.737z" fill="#e6e6e6"/></g><circle cx="333.16" cy="123.398" fill="#f7b84e" r="29.991" transform="matrix(.16 -.987 .987 .16 157.989 432.49)"/><path d="m339.037 93.984c13.75 2.732 24.115 14.862 24.115 29.414s-10.365 26.683-24.115 29.414c-13.75-2.731-24.115-14.862-24.115-29.414s10.365-26.682 24.115-29.414z" fill="#ffce7b" fill-rule="evenodd"/><g><path d="m339.871 421.258c0-40.226-32.609-72.835-72.835-72.835s-72.835 32.609-72.835 72.835z" fill="#7985eb" fill-rule="evenodd"/><path d="m339.871 421.258c0-37.205-27.896-67.891-63.913-72.291-36.016 4.4-63.912 35.086-63.912 72.291z" fill="#8691ed" fill-rule="evenodd"/><circle cx="267.036" cy="321.587" fill="#f7b84e" r="29.991" transform="matrix(.999 -.042 .042 .999 -13.134 11.375)"/><path d="m272.912 292.173c13.75 2.731 24.115 14.862 24.115 29.414s-10.365 26.683-24.115 29.414c-13.75-2.731-24.115-14.862-24.115-29.414s10.365-26.683 24.115-29.414z" fill="#ffce7b" fill-rule="evenodd"/></g><g fill-rule="evenodd"><path d="m226.956 96.813c-98.708 9.279-175.015 92.424-175.015 192.36.003 20.006 3.071 39.683 9.143 58.591l165.872-95.767zm-169.612 267.77c-.774 0-1.565-.136-2.313-.408-1.885-.68-3.381-2.167-4.071-4.052-8.372-22.737-12.621-46.61-12.621-70.95.002-52.965 20.2-103.433 56.89-142.115 36.548-38.517 85.604-61.38 138.141-64.372 1.899-.098 3.702.564 5.062 1.856 1.362 1.282 2.128 3.071 2.128 4.936l.004 166.445c0 2.429-1.297 4.674-3.404 5.889l-176.414 101.859c-1.049.602-2.226.914-3.402.914z"/><path d="m285.045 205.531 159.674 92.181c10.192-23.844 15.339-49.107 15.339-75.215.003-99.946-76.294-183.08-175.016-192.359l.002 175.393zm162.792 108.642c-1.185 0-2.363-.31-3.403-.913l-169.589-97.915c-2.099-1.214-3.404-3.458-3.404-5.888l.002-186.656c0-1.866.766-3.653 2.126-4.945 1.363-1.283 3.197-1.944 5.062-1.846 52.54 2.992 101.606 25.856 138.141 64.372 36.693 38.681 56.891 89.15 56.891 142.115.003 30.606-6.617 60.136-19.676 87.78-.814 1.719-2.312 3.012-4.12 3.585-.669.203-1.351.311-2.029.31z"/><path d="m245.168 496c-32.938 0-64.472-7.608-93.739-22.61-27.886-14.293-52.625-35.126-71.543-60.262-1.173-1.556-1.623-3.537-1.234-5.451.392-1.905 1.574-3.556 3.264-4.528l152.757-88.198c3.254-1.875 7.412-.757 9.287 2.498 1.876 3.254.768 7.414-2.487 9.289l-145.962 84.272c36.651 44.842 92.025 71.388 149.655 71.388 64.85 0 124.334-32.007 160.499-85.992l-113.4-65.471c-3.253-1.885-4.374-6.043-2.499-9.288 1.887-3.256 6.044-4.372 9.299-2.497l119.595 69.046c1.592.922 2.747 2.458 3.194 4.236.448 1.788.155 3.682-.816 5.247-18.267 29.432-43.802 54.063-73.856 71.233-31.012 17.722-66.287 27.09-102.012 27.09z"/><path d="m174.364 297.013h-95.962c-3.76 0-6.804-3.04-6.804-6.801 0-42.539 34.6-77.15 77.149-77.15 32.613 0 61.846 20.648 72.729 51.381 1.265 3.536-.593 7.423-4.139 8.677-3.533 1.263-7.423-.593-8.677-4.139-8.966-25.312-33.046-42.316-59.912-42.316-32.743 0-59.786 24.894-63.187 56.745h88.804c3.76 0 6.798 3.051 6.798 6.801.001 3.76-3.041 6.802-6.802 6.802h.004z"/><path d="m148.75 167.355c-12.225 0-22.176 9.941-22.176 22.164.003 12.224 9.95 22.164 22.173 22.164 12.215 0 22.164-9.94 22.164-22.164.003-12.224-9.95-22.163-22.161-22.164zm0 57.93c-19.724 0-35.779-16.041-35.779-35.766.004-19.725 16.052-35.766 35.777-35.766 19.718-.001 35.767 16.042 35.767 35.766.003 19.725-16.052 35.767-35.764 35.766z"/><path d="m203.852 414.457h126.373c-3.41-31.85-30.443-56.744-63.189-56.744-32.743 0-59.786 24.894-63.185 56.744zm133.536 13.604h-140.697c-3.761 0-6.803-3.041-6.803-6.801.003-42.54 34.61-77.15 77.149-77.15 42.542 0 77.15 34.61 77.15 77.15.003 3.759-3.041 6.802-6.8 6.801z"/><path d="m267.039 298.402c-12.221 0-22.165 9.941-22.165 22.164.001 12.223 9.94 22.164 22.163 22.164 12.227 0 22.165-9.94 22.165-22.164.001-12.224-9.941-22.163-22.162-22.164zm0 57.931c-19.724 0-35.769-16.042-35.769-35.767.001-19.726 16.042-35.767 35.767-35.767 19.726 0 35.767 16.042 35.767 35.767.001 19.724-16.042 35.767-35.765 35.767z"/><path d="m403.508 229.871h-101.681c-3.751 0-6.804-3.041-6.804-6.801.001-3.751 3.051-6.801 6.801-6.801h94.523c-3.397-31.851-30.442-56.745-63.186-56.745-19.383-.001-37.468 8.687-49.613 23.835-2.341 2.934-6.627 3.401-9.562 1.049-2.923-2.342-3.401-6.627-1.049-9.561 14.741-18.384 36.69-28.926 60.224-28.926 42.54 0 77.149 34.61 77.149 77.15.003 3.76-3.041 6.802-6.801 6.801z"/><path d="m333.159 100.213c-12.221 0-22.164 9.94-22.164 22.164.004 12.224 9.94 22.164 22.164 22.164 12.226 0 22.163-9.94 22.163-22.164.001-12.224-9.94-22.164-22.163-22.164zm0 57.93c-19.724 0-35.766-16.041-35.766-35.766s16.041-35.767 35.766-35.767c19.724 0 35.767 16.042 35.767 35.767s-16.043 35.767-35.767 35.766z"/></g></svg>