<svg width="146" height="150" viewBox="0 0 146 150" fill="none" xmlns="http://www.w3.org/2000/svg">
<path d="M72.833 146.905C53.3334 146.705 35.0345 139.168 21.3063 125.68C7.56603 112.18 0 94.2814 0 75.2787C0 56.2761 7.56603 38.3773 21.3063 24.8788C35.0345 11.3909 53.3334 3.85232 72.833 3.65366L72.893 9.27998C35.8871 9.65818 5.78123 39.2654 5.78123 75.2798C5.78123 111.294 35.8882 140.901 72.893 141.28L72.833 146.905Z" fill="url(#paint0_linear_127_27)"/>
<path d="M100.568 60.9124H65.793C64.1971 60.9124 62.9024 59.6524 62.9024 58.0992C62.9024 56.546 64.1971 55.2861 65.793 55.2861H97.6771V25.4037C97.6771 23.8505 98.9707 22.5905 100.568 22.5905C102.165 22.5905 103.458 23.8505 103.458 25.4037V58.0992C103.458 59.6524 102.165 60.9124 100.568 60.9124Z" fill="url(#paint1_linear_127_27)"/>
<path d="M134.309 73.9496H55.1838C53.5879 73.9496 52.2932 72.6896 52.2932 71.1364C52.2932 69.5832 53.5879 68.3233 55.1838 68.3233H131.418V57.8005C131.418 56.2473 132.712 54.9873 134.309 54.9873C135.906 54.9873 137.2 56.2473 137.2 57.8005V71.1364C137.2 72.6896 135.906 73.9496 134.309 73.9496Z" fill="url(#paint2_linear_127_27)"/>
<path d="M132.169 86.9867H53.6095C52.0135 86.9867 50.7189 85.7267 50.7189 84.1735C50.7189 82.6203 52.0135 81.3604 53.6095 81.3604H132.17C133.767 81.3604 135.061 82.6203 135.061 84.1735C135.061 85.7267 133.767 86.9867 132.17 86.9867H132.169Z" fill="url(#paint3_linear_127_27)"/>
<path d="M116.208 118.936H104.396C102.799 118.936 101.505 117.676 101.505 116.123V100.581H65.0058C63.4099 100.581 62.1152 99.3207 62.1152 97.7675C62.1152 96.2143 63.4099 94.9543 65.0058 94.9543H104.396C105.993 94.9543 107.287 96.2143 107.287 97.7675V113.31H116.208C117.805 113.31 119.099 114.57 119.099 116.123C119.099 117.676 117.805 118.936 116.208 118.936Z" fill="url(#paint4_linear_127_27)"/>
<path d="M79.7356 143.744C79.7356 145.645 78.1528 147.185 76.1988 147.185C74.2448 147.185 72.663 145.645 72.663 143.744C72.663 141.843 74.2459 140.303 76.1988 140.303C78.1517 140.303 79.7356 141.843 79.7356 143.744Z" fill="url(#paint5_linear_127_27)"/>
<path d="M76.1986 150C72.6552 150 69.7722 147.194 69.7722 143.745C69.7722 140.295 72.6552 137.491 76.1986 137.491C79.742 137.491 82.625 140.296 82.625 143.745C82.625 147.193 79.742 150 76.1986 150ZM76.1986 143.116C75.8427 143.116 75.5535 143.398 75.5535 143.744C75.5535 144.089 75.8427 144.373 76.1986 144.373C76.5545 144.373 76.8437 144.09 76.8437 143.744C76.8437 143.397 76.5545 143.116 76.1986 143.116Z" fill="url(#paint6_linear_127_27)"/>
<path d="M79.7356 6.25526C79.7356 8.15584 78.1528 9.69628 76.1988 9.69628C74.2448 9.69628 72.663 8.15584 72.663 6.25526C72.663 4.35468 74.2459 2.81424 76.1988 2.81424C78.1517 2.81424 79.7356 4.35468 79.7356 6.25526Z" fill="url(#paint7_linear_127_27)"/>
<path d="M76.1986 12.5105C72.6552 12.5105 69.7722 9.70476 69.7722 6.25524C69.7722 2.80572 72.6552 0 76.1986 0C79.742 0 82.625 2.80572 82.625 6.25524C82.625 9.70476 79.742 12.5105 76.1986 12.5105ZM76.1986 5.62738C75.8427 5.62738 75.5535 5.90891 75.5535 6.2563C75.5535 6.6037 75.8427 6.88523 76.1986 6.88523C76.5545 6.88523 76.8437 6.60264 76.8437 6.2563C76.8437 5.90997 76.5545 5.62738 76.1986 5.62738Z" fill="url(#paint8_linear_127_27)"/>
<path d="M36.6727 91.3873C35.3496 91.3873 33.8661 91.1547 32.2156 90.5895C23.2239 87.5118 14.373 76.2475 13.3589 70.5256C12.9714 68.3403 11.4638 67.7209 7.56785 66.6277C6.23716 66.2548 4.86172 65.8681 3.52885 65.3008C2.06608 64.6772 1.40019 63.0189 2.04097 61.5953C2.68175 60.1717 4.38577 59.5236 5.84855 60.1473C6.82991 60.5658 7.96629 60.8845 9.16817 61.2213C12.9026 62.2688 18.0169 63.703 19.0561 69.5694C19.711 73.2686 27.1046 82.8767 34.1336 85.2819C36.9216 86.237 38.4127 85.5709 39.3035 84.8782C39.1496 83.427 36.3812 79.696 34.6957 77.4257C31.0628 72.5303 27.9266 68.302 29.1765 64.5805C29.5684 63.4151 30.565 61.8577 33.0954 61.0598C36.9401 59.8455 39.3602 59.9985 40.9616 60.1016C42.4768 60.1961 42.884 60.2216 45.7277 55.9052C49.6182 49.9984 56.8469 48.4155 62.126 47.2596C64.0418 46.84 66.8931 46.2153 67.6103 45.6172C67.5284 44.0428 65.867 41.9478 63.5124 40.469C61.1163 38.9625 57.4604 37.8353 54.3962 39.1792C48.2701 41.8724 42.9058 39.9325 40.9682 36.7422C39.6146 34.5154 39.7379 31.1806 43.063 28.7542C45.3292 27.1011 46.7811 24.4973 46.9437 23.3276C46.6501 23.3074 46.1479 23.3233 45.3642 23.4753C40.4082 24.4399 35.1509 24.0224 30.9427 22.329C29.4669 21.7351 28.766 20.0906 29.3752 18.6542C29.9854 17.219 31.6763 16.5359 33.1511 17.1287C36.2819 18.3876 40.4246 18.6988 44.2311 17.9573C49.6127 16.9088 51.5657 19.2555 52.2501 20.7471C54.1211 24.8192 50.1313 30.6272 46.5322 33.2544C46.0846 33.5816 45.9405 33.8334 45.9253 33.8961C45.9438 33.9014 46.1403 34.1957 46.7363 34.4581C47.2461 34.6833 49.1335 35.3165 52.0154 34.0522C56.4146 32.1177 61.8837 32.7498 66.6464 35.7425C70.8077 38.357 73.3926 42.1858 73.3926 45.7341C73.3926 50.5594 68.0808 51.7227 63.3934 52.7489C58.6164 53.7953 53.202 54.9809 50.593 58.9425C46.5857 65.0257 44.5793 65.968 40.5839 65.7162C39.2161 65.628 37.6671 65.5314 34.8769 66.4121C34.7973 66.4376 34.7329 66.4609 34.6826 66.4822C34.8202 67.9865 37.7643 71.9534 39.381 74.1334C43.4331 79.594 47.6227 85.2405 43.3403 88.9248C41.8939 90.1688 39.703 91.3895 36.6716 91.3895L36.6727 91.3873Z" fill="url(#paint9_linear_127_27)"/>
<path d="M31.4049 133.412C30.7969 133.412 30.1845 133.226 29.6627 132.842C26.6662 130.634 21.8183 124.57 24.9174 117.428C27.2262 112.105 30.7925 109.67 33.6569 107.714C35.0269 106.778 36.2091 105.971 37.0901 104.985C38.0136 103.953 38.7384 102.035 39.4403 100.181C40.7896 96.6179 42.4674 92.1825 47.0118 92.0189C50.4417 91.9169 52.8345 94.7907 55.604 98.1424C58.2402 101.333 61.228 104.949 65.243 106.369C66.7713 106.91 68.5943 107.053 70.3583 107.19C72.6747 107.37 75.0709 107.557 77.0358 108.683C78.4112 109.472 78.8697 111.197 78.0597 112.534C77.2486 113.874 75.4758 114.319 74.1026 113.531C73.2828 113.061 71.5613 112.927 69.8966 112.798C67.8498 112.639 65.5301 112.457 63.2671 111.657C57.7348 109.699 54.055 105.245 51.0988 101.667C49.8369 100.14 47.9288 97.8312 47.1352 97.6336C46.5522 97.6644 45.37 100.79 44.8646 102.124C43.9826 104.454 43.0711 106.863 41.4522 108.676C40.1084 110.18 38.5157 111.267 36.9765 112.318C34.3686 114.098 31.9049 115.78 30.2423 119.614C28.0984 124.555 33.1013 128.317 33.1526 128.354C34.4254 129.292 34.6765 131.057 33.7115 132.294C33.1428 133.025 32.2793 133.409 31.4049 133.409V133.412Z" fill="url(#paint10_linear_127_27)"/>
<path d="M59.224 28.8938C57.6281 28.8938 56.3334 27.6338 56.3334 26.0806V16.8826C56.3334 15.3294 57.6281 14.0694 59.224 14.0694C60.82 14.0694 62.1147 15.3294 62.1147 16.8826V26.0806C62.1147 27.6338 60.82 28.8938 59.224 28.8938Z" fill="url(#paint11_linear_127_27)"/>
<path d="M67.423 33.1082C65.827 33.1082 64.5323 31.8482 64.5323 30.295V16.8826C64.5323 15.3294 65.827 14.0694 67.423 14.0694C69.0189 14.0694 70.3136 15.3294 70.3136 16.8826V30.295C70.3136 31.8482 69.0189 33.1082 67.423 33.1082Z" fill="url(#paint12_linear_127_27)"/>
<path d="M76.0051 40.3249C74.4081 40.3249 73.1145 39.0649 73.1145 37.5117V16.8826C73.1145 15.3294 74.4081 14.0694 76.0051 14.0694C77.6022 14.0694 78.8957 15.3294 78.8957 16.8826V37.5117C78.8957 39.0649 77.6022 40.3249 76.0051 40.3249Z" fill="url(#paint13_linear_127_27)"/>
<path d="M70.7672 122.341H57.0368C55.4408 122.341 54.1462 121.081 54.1462 119.527C54.1462 117.974 55.4408 116.714 57.0368 116.714H70.7672C72.3632 116.714 73.6578 117.974 73.6578 119.527C73.6578 121.081 72.3632 122.341 70.7672 122.341Z" fill="url(#paint14_linear_127_27)"/>
<path d="M77.6597 129.81H66.1901C64.5941 129.81 63.2994 128.55 63.2994 126.997C63.2994 125.443 64.5941 124.183 66.1901 124.183H77.6597C79.2568 124.183 80.5503 125.443 80.5503 126.997C80.5503 128.55 79.2568 129.81 77.6597 129.81Z" fill="url(#paint15_linear_127_27)"/>
<path d="M69.9543 137.277H58.4857C56.8898 137.277 55.5951 136.018 55.5951 134.464C55.5951 132.91 56.8898 131.651 58.4857 131.651H69.9543C71.5502 131.651 72.8449 132.911 72.8449 134.464C72.8449 136.017 71.5502 137.277 69.9543 137.277Z" fill="url(#paint16_linear_127_27)"/>
<path d="M100.673 26.1086C96.3315 26.1086 92.8001 22.6719 92.8001 18.4468C92.8001 14.2218 96.3315 10.785 100.673 10.785C105.014 10.785 108.546 14.2218 108.546 18.4468C108.546 22.6719 105.014 26.1086 100.673 26.1086ZM100.673 15.6496C99.0878 15.6496 97.7986 16.9043 97.7986 18.4468C97.7986 19.9894 99.0878 21.2441 100.673 21.2441C102.258 21.2441 103.547 19.9894 103.547 18.4468C103.547 16.9043 102.258 15.6496 100.673 15.6496Z" fill="url(#paint17_linear_127_27)"/>
<path d="M134.395 57.7566C130.054 57.7566 126.522 54.3198 126.522 50.0948C126.522 45.8697 130.054 42.433 134.395 42.433C138.736 42.433 142.268 45.8697 142.268 50.0948C142.268 54.3198 138.736 57.7566 134.395 57.7566ZM134.395 47.2986C132.81 47.2986 131.521 48.5533 131.521 50.0958C131.521 51.6384 132.81 52.8931 134.395 52.8931C135.98 52.8931 137.269 51.6384 137.269 50.0958C137.269 48.5533 135.98 47.2986 134.395 47.2986Z" fill="url(#paint18_linear_127_27)"/>
<path d="M138.066 92.1004C133.725 92.1004 130.193 88.6636 130.193 84.4386C130.193 80.2135 133.725 76.7767 138.066 76.7767C142.407 76.7767 145.939 80.2135 145.939 84.4386C145.939 88.6636 142.407 92.1004 138.066 92.1004ZM138.066 81.6424C136.481 81.6424 135.192 82.8971 135.192 84.4396C135.192 85.9822 136.481 87.2368 138.066 87.2368C139.651 87.2368 140.94 85.9822 140.94 84.4396C140.94 82.8971 139.651 81.6424 138.066 81.6424Z" fill="url(#paint19_linear_127_27)"/>
<path d="M122.253 123.357C117.912 123.357 114.381 119.92 114.381 115.695C114.381 111.47 117.912 108.033 122.253 108.033C126.595 108.033 130.126 111.47 130.126 115.695C130.126 119.92 126.595 123.357 122.253 123.357ZM122.253 112.898C120.668 112.898 119.379 114.152 119.379 115.695C119.379 117.237 120.668 118.492 122.253 118.492C123.838 118.492 125.128 117.237 125.128 115.695C125.128 114.152 123.838 112.898 122.253 112.898Z" fill="url(#paint20_linear_127_27)"/>
<defs>
<linearGradient id="paint0_linear_127_27" x1="36.4465" y1="3.65366" x2="36.4465" y2="146.906" gradientUnits="userSpaceOnUse">
<stop stop-color="#556EE6"/>
<stop offset="1" stop-color="#2F3D80"/>
</linearGradient>
<linearGradient id="paint1_linear_127_27" x1="83.1804" y1="22.5905" x2="83.1804" y2="60.9124" gradientUnits="userSpaceOnUse">
<stop stop-color="#556EE6"/>
<stop offset="1" stop-color="#2F3D80"/>
</linearGradient>
<linearGradient id="paint2_linear_127_27" x1="94.7464" y1="54.9873" x2="94.7464" y2="73.9496" gradientUnits="userSpaceOnUse">
<stop stop-color="#556EE6"/>
<stop offset="1" stop-color="#2F3D80"/>
</linearGradient>
<linearGradient id="paint3_linear_127_27" x1="92.8899" y1="81.3604" x2="92.8899" y2="86.9867" gradientUnits="userSpaceOnUse">
<stop stop-color="#556EE6"/>
<stop offset="1" stop-color="#2F3D80"/>
</linearGradient>
<linearGradient id="paint4_linear_127_27" x1="90.6071" y1="94.9543" x2="90.6071" y2="118.936" gradientUnits="userSpaceOnUse">
<stop stop-color="#556EE6"/>
<stop offset="1" stop-color="#2F3D80"/>
</linearGradient>
<linearGradient id="paint5_linear_127_27" x1="76.1993" y1="140.303" x2="76.1993" y2="147.185" gradientUnits="userSpaceOnUse">
<stop stop-color="#556EE6"/>
<stop offset="1" stop-color="#2F3D80"/>
</linearGradient>
<linearGradient id="paint6_linear_127_27" x1="76.1986" y1="137.491" x2="76.1986" y2="150" gradientUnits="userSpaceOnUse">
<stop stop-color="#556EE6"/>
<stop offset="1" stop-color="#2F3D80"/>
</linearGradient>
<linearGradient id="paint7_linear_127_27" x1="76.1993" y1="2.81424" x2="76.1993" y2="9.69628" gradientUnits="userSpaceOnUse">
<stop stop-color="#556EE6"/>
<stop offset="1" stop-color="#2F3D80"/>
</linearGradient>
<linearGradient id="paint8_linear_127_27" x1="76.1986" y1="0" x2="76.1986" y2="12.5105" gradientUnits="userSpaceOnUse">
<stop stop-color="#556EE6"/>
<stop offset="1" stop-color="#2F3D80"/>
</linearGradient>
<linearGradient id="paint9_linear_127_27" x1="37.5949" y1="16.915" x2="37.5949" y2="91.3895" gradientUnits="userSpaceOnUse">
<stop stop-color="#556EE6"/>
<stop offset="1" stop-color="#2F3D80"/>
</linearGradient>
<linearGradient id="paint10_linear_127_27" x1="51.1903" y1="92.0163" x2="51.1903" y2="133.412" gradientUnits="userSpaceOnUse">
<stop stop-color="#556EE6"/>
<stop offset="1" stop-color="#2F3D80"/>
</linearGradient>
<linearGradient id="paint11_linear_127_27" x1="59.2241" y1="14.0694" x2="59.2241" y2="28.8938" gradientUnits="userSpaceOnUse">
<stop stop-color="#556EE6"/>
<stop offset="1" stop-color="#2F3D80"/>
</linearGradient>
<linearGradient id="paint12_linear_127_27" x1="67.423" y1="14.0694" x2="67.423" y2="33.1082" gradientUnits="userSpaceOnUse">
<stop stop-color="#556EE6"/>
<stop offset="1" stop-color="#2F3D80"/>
</linearGradient>
<linearGradient id="paint13_linear_127_27" x1="76.0051" y1="14.0694" x2="76.0051" y2="40.3249" gradientUnits="userSpaceOnUse">
<stop stop-color="#556EE6"/>
<stop offset="1" stop-color="#2F3D80"/>
</linearGradient>
<linearGradient id="paint14_linear_127_27" x1="63.902" y1="116.714" x2="63.902" y2="122.341" gradientUnits="userSpaceOnUse">
<stop stop-color="#556EE6"/>
<stop offset="1" stop-color="#2F3D80"/>
</linearGradient>
<linearGradient id="paint15_linear_127_27" x1="71.9249" y1="124.183" x2="71.9249" y2="129.81" gradientUnits="userSpaceOnUse">
<stop stop-color="#556EE6"/>
<stop offset="1" stop-color="#2F3D80"/>
</linearGradient>
<linearGradient id="paint16_linear_127_27" x1="64.22" y1="131.651" x2="64.22" y2="137.277" gradientUnits="userSpaceOnUse">
<stop stop-color="#556EE6"/>
<stop offset="1" stop-color="#2F3D80"/>
</linearGradient>
<linearGradient id="paint17_linear_127_27" x1="100.673" y1="10.785" x2="100.673" y2="26.1086" gradientUnits="userSpaceOnUse">
<stop stop-color="#556EE6"/>
<stop offset="1" stop-color="#2F3D80"/>
</linearGradient>
<linearGradient id="paint18_linear_127_27" x1="134.395" y1="42.433" x2="134.395" y2="57.7566" gradientUnits="userSpaceOnUse">
<stop stop-color="#556EE6"/>
<stop offset="1" stop-color="#2F3D80"/>
</linearGradient>
<linearGradient id="paint19_linear_127_27" x1="138.066" y1="76.7767" x2="138.066" y2="92.1004" gradientUnits="userSpaceOnUse">
<stop stop-color="#556EE6"/>
<stop offset="1" stop-color="#2F3D80"/>
</linearGradient>
<linearGradient id="paint20_linear_127_27" x1="122.253" y1="108.033" x2="122.253" y2="123.357" gradientUnits="userSpaceOnUse">
<stop stop-color="#556EE6"/>
<stop offset="1" stop-color="#2F3D80"/>
</linearGradient>
</defs>
</svg>
