<svg width="33" height="33" viewBox="0 0 33 33" fill="none" xmlns="http://www.w3.org/2000/svg">
<g clip-path="url(#clip0_1_2)">
<path d="M30.81 19.81V24.59H19.1V19.81C19.1 19.34 19.48 18.95 19.96 18.95H29.96C30.43 18.95 30.82 19.33 30.82 19.81H30.81Z" fill="#F4F4F4"/>
<path d="M13.27 1.19V5.97H1.55V1.19C1.55 0.72 1.93 0.33 2.41 0.33H12.41C12.88 0.33 13.27 0.71 13.27 1.19Z" fill="#F4F4F4"/>
<path opacity="0.18" d="M30.81 19.81V24.59H28.82V19.81C28.82 19.34 28.44 18.95 27.96 18.95H29.95C30.43 18.95 30.81 19.33 30.81 19.81Z" fill="black"/>
<path opacity="0.18" d="M13.26 1.19V5.97H11.27V1.19C11.27 0.72 10.89 0.33 10.41 0.33H12.4C12.88 0.33 13.26 0.71 13.26 1.19Z" fill="black"/>
<path d="M14.48 5.04V12.51C14.48 13.01 14.08 13.41 13.58 13.41H1.24C0.739996 13.41 0.339996 13.01 0.339996 12.51V3.42C0.339996 2.92 0.739996 2.52 1.24 2.52H5.09C5.77 2.52 6.41 2.82 6.86 3.33C7.3 3.84 7.95 4.14 8.63 4.14H13.59C14.09 4.14 14.49 4.54 14.49 5.04H14.48Z" fill="#FFD764"/>
<path d="M32.02 23.66V31.13C32.02 31.63 31.62 32.03 31.12 32.03H18.78C18.28 32.03 17.88 31.63 17.88 31.13V22.04C17.88 21.54 18.28 21.14 18.78 21.14H22.63C23.31 21.14 23.95 21.44 24.4 21.95C24.84 22.46 25.49 22.76 26.17 22.76H31.13C31.63 22.76 32.03 23.16 32.03 23.66H32.02Z" fill="#7BFFCD"/>
<path opacity="0.18" d="M14.48 5.04V12.51C14.48 13.01 14.08 13.41 13.58 13.41H10.71C11.21 13.41 11.61 13.01 11.61 12.51V5.04C11.61 4.54 11.21 4.14 10.71 4.14H13.58C14.08 4.14 14.48 4.54 14.48 5.04Z" fill="black"/>
<path opacity="0.18" d="M32.02 23.66V31.13C32.02 31.63 31.62 32.03 31.12 32.03H28.25C28.75 32.03 29.15 31.63 29.15 31.13V23.66C29.15 23.16 28.75 22.76 28.25 22.76H31.12C31.62 22.76 32.02 23.16 32.02 23.66Z" fill="black"/>
<path d="M30.81 21.74C31 21.74 31.15 21.59 31.15 21.4V19.81C31.15 19.15 30.61 18.62 29.96 18.62H19.96C19.32 18.62 18.79 19.14 18.77 19.78C18.77 19.97 18.91 20.12 19.1 20.13C19.1 20.13 19.1 20.13 19.11 20.13C19.29 20.13 19.44 19.99 19.45 19.8C19.45 19.52 19.69 19.3 19.97 19.3H29.97C30.26 19.3 30.49 19.53 30.49 19.82V21.41C30.49 21.6 30.64 21.75 30.83 21.75L30.81 21.74Z" fill="#2B3C65"/>
<path d="M13.26 3.13C13.45 3.13 13.6 2.98 13.6 2.79V1.19C13.6 0.53 13.06 0 12.41 0H2.41C1.77 0 1.24 0.52 1.22 1.16C1.22 1.35 1.36 1.5 1.55 1.51C1.55 1.51 1.55 1.51 1.56 1.51C1.74 1.51 1.89 1.37 1.9 1.18C1.9 0.9 2.14 0.68 2.42 0.68H12.42C12.71 0.68 12.94 0.91 12.94 1.2V2.8C12.94 2.99 13.09 3.14 13.28 3.14L13.26 3.13Z" fill="#2B3C65"/>
<path d="M6.29 13.07H5.16C4.97 13.07 4.82 13.22 4.82 13.41C4.82 13.6 4.97 13.75 5.16 13.75H6.29C6.48 13.75 6.63 13.6 6.63 13.41C6.63 13.22 6.48 13.07 6.29 13.07Z" fill="#2B3C65"/>
<path d="M1.24 13.75H2.21C2.4 13.75 2.55 13.6 2.55 13.41C2.55 13.22 2.4 13.07 2.21 13.07H1.24C0.93 13.07 0.67 12.82 0.67 12.5V3.42C0.67 3.11 0.92 2.85 1.24 2.85H5.09C5.67 2.85 6.22 3.1 6.6 3.54C7.09 4.12 7.82 4.47 8.62 4.47H13.58C13.89 4.47 14.14 4.72 14.14 5.03V12.5C14.14 12.81 13.89 13.07 13.58 13.07H7.64C7.45 13.07 7.3 13.22 7.3 13.41C7.3 13.6 7.45 13.75 7.64 13.75H13.58C14.26 13.75 14.82 13.19 14.82 12.51V5.04C14.82 4.36 14.27 3.8 13.58 3.8H8.62C8.01 3.8 7.47 3.53 7.11 3.11C6.6 2.52 5.87 2.18 5.09 2.18H1.24C0.56 2.18 0 2.74 0 3.42V12.51C0 13.19 0.56 13.75 1.24 13.75Z" fill="#2B3C65"/>
<path d="M31.12 22.42H26.16C25.58 22.42 25.03 22.17 24.65 21.73C24.14 21.14 23.41 20.8 22.63 20.8H18.78C18.1 20.8 17.54 21.36 17.54 22.04V31.13C17.54 31.81 18.1 32.37 18.78 32.37H31.12C31.8 32.37 32.36 31.81 32.36 31.13V23.66C32.36 22.98 31.8 22.42 31.12 22.42ZM31.69 31.12C31.69 31.43 31.44 31.68 31.13 31.68H18.79C18.48 31.68 18.23 31.43 18.23 31.12V22.03C18.23 21.72 18.48 21.47 18.79 21.47H22.64C23.22 21.47 23.77 21.72 24.15 22.16C24.66 22.75 25.39 23.09 26.17 23.09H31.13C31.44 23.09 31.69 23.34 31.69 23.65V31.12Z" fill="#2B3C65"/>
<path d="M25.24 15.26C25.43 15.26 25.58 15.11 25.58 14.92V6.7C25.58 6.51 25.43 6.36 25.24 6.36H18.98L19.75 5.59C19.88 5.46 19.88 5.25 19.75 5.11C19.62 4.97 19.41 4.98 19.27 5.11L17.93 6.45C17.8 6.58 17.8 6.8 17.93 6.93L19.27 8.27C19.4 8.4 19.61 8.4 19.75 8.27C19.89 8.14 19.88 7.93 19.75 7.79L18.98 7.02H24.9V14.9C24.9 15.09 25.05 15.24 25.24 15.24V15.26Z" fill="#2B3C65"/>
<path d="M7.12 17.1C6.93 17.1 6.78 17.25 6.78 17.44V25.66C6.78 25.85 6.93 26 7.12 26H13.38L12.61 26.77C12.48 26.9 12.48 27.11 12.61 27.25C12.74 27.39 12.95 27.38 13.09 27.25L14.43 25.91C14.56 25.78 14.56 25.57 14.43 25.43L13.09 24.09C12.96 23.96 12.75 23.96 12.61 24.09C12.47 24.22 12.48 24.44 12.61 24.57L13.38 25.34H7.46V17.46C7.46 17.27 7.31 17.12 7.12 17.12V17.1Z" fill="#2B3C65"/>
<path d="M19.29 16.84C19.42 16.71 19.42 16.5 19.29 16.36C17.58 14.65 14.79 14.65 13.08 16.36C12.95 16.49 12.95 16.7 13.08 16.84C13.21 16.98 13.42 16.97 13.56 16.84C15.01 15.39 17.36 15.39 18.82 16.84C18.95 16.97 19.16 16.97 19.3 16.84H19.29Z" fill="#2B3C65"/>
<path d="M18.11 18.01C18.24 17.88 18.24 17.67 18.11 17.53C17.6 17.01 16.91 16.73 16.18 16.73C15.45 16.73 14.76 17.01 14.25 17.53C14.12 17.66 14.12 17.88 14.25 18.01C14.38 18.14 14.59 18.14 14.73 18.01C15.53 17.21 16.84 17.21 17.64 18.01C17.77 18.14 17.99 18.14 18.12 18.01H18.11Z" fill="#2B3C65"/>
<path d="M15.42 18.71C15.29 18.84 15.29 19.06 15.42 19.19C15.55 19.32 15.76 19.32 15.9 19.19C16.05 19.04 16.3 19.04 16.46 19.19C16.59 19.32 16.8 19.32 16.94 19.19C17.07 19.06 17.07 18.84 16.94 18.71C16.52 18.29 15.85 18.29 15.43 18.71H15.42Z" fill="#2B3C65"/>
</g>
<defs>
<clipPath id="clip0_1_2">
<rect width="32.36" height="32.36" fill="white"/>
</clipPath>
</defs>
</svg>
